<svg width="75" height="75" viewBox="0 0 75 75" fill="none" xmlns="http://www.w3.org/2000/svg">
<g clip-path="url(#clip0_271_11)">
<path d="M37.5 75C16.7717 75 0 58.2034 0 37.5C0 16.7717 16.7966 0 37.5 0C58.2283 0 75 16.7966 75 37.5C75.0249 58.2283 58.2283 75 37.5 75Z" fill="#B5E2C9"/>
<mask id="mask0_271_11" style="mask-type:alpha" maskUnits="userSpaceOnUse" x="0" y="0" width="75" height="75">
<path d="M37.5 75C16.7717 75 0 58.2034 0 37.5C0 16.7717 16.7966 0 37.5 0C58.2283 0 75 16.7966 75 37.5C75.0249 58.2283 58.2283 75 37.5 75Z" fill="#F7C0B5"/>
</mask>
<g mask="url(#mask0_271_11)">
<path d="M58.5501 69.0769C58.3752 69.2018 58.1752 69.3268 58.0002 69.4519C57.8002 69.5768 57.6252 69.7018 57.4252 69.8018C57.2502 69.9019 57.1002 70.0018 56.9251 70.1018C56.9002 70.1269 56.8752 70.1269 56.8501 70.1518C56.2752 70.5019 55.6752 70.8268 55.0752 71.1268C54.9001 71.2268 54.7002 71.3269 54.5251 71.4019C54.5251 71.4019 54.5002 71.4268 54.4752 71.4268C54.2752 71.5268 54.0751 71.6269 53.8752 71.7268C53.4751 71.9269 53.0502 72.1018 52.6501 72.2768C52.4502 72.3769 52.2252 72.4519 52.0252 72.5269C51.8251 72.6019 51.6001 72.7018 51.4002 72.7768C51.2002 72.8518 50.9752 72.9518 50.7751 73.0268C50.7751 73.0268 50.7751 73.0268 50.7501 73.0268C50.5501 73.1018 50.3251 73.1768 50.1252 73.2518C49.6752 73.4018 49.2001 73.5518 48.7501 73.7018C48.6001 73.7518 48.4252 73.8019 48.2752 73.8518C47.8002 74.0018 47.3251 74.1268 46.8502 74.2268C46.6752 74.2768 46.5001 74.3018 46.3002 74.3518C45.8502 74.4518 45.3751 74.5519 44.9251 74.6518C44.8252 74.6768 44.7502 74.6768 44.6502 74.7019C44.5002 74.7268 44.3251 74.7518 44.1751 74.7769C43.9501 74.8018 43.7502 74.8519 43.5252 74.8768C43.4251 74.9018 43.3252 74.9018 43.2252 74.9269C43.1002 74.9518 42.9502 74.9768 42.8002 74.9768C42.4002 75.0268 41.9752 75.0769 41.5752 75.1268C41.4502 75.1519 41.3002 75.1519 41.1751 75.1768H41.1502C40.9752 75.2018 40.8001 75.2018 40.6252 75.2269C40.4502 75.2518 40.2751 75.2518 40.1002 75.2518C40.0002 75.2518 39.8752 75.2768 39.7752 75.2768C39.5752 75.2768 39.4002 75.3019 39.2251 75.3019C38.9752 75.3019 38.7502 75.3268 38.5002 75.3268C38.2501 75.3268 38.0253 75.3268 37.7752 75.3268C37.6002 75.3268 37.4251 75.3268 37.2502 75.3268C26.7252 75.1768 17.2252 70.7018 10.4752 63.6019C10.4752 63.6019 10.4752 63.5768 10.4502 63.5768C11.2252 62.0518 14.1002 59.3018 17.1002 57.0268C20.9002 54.1519 26.2752 52.3768 26.2752 52.3768C26.2752 52.3768 29.8002 51.8018 42.8752 54.5269C52.8502 56.6269 57.1002 65.1518 58.5501 69.0769Z" fill="#AD827B"/>
<path d="M45.6499 61.4519C45.1249 64.0268 41.725 65.5517 36 63.2519C28.975 60.4019 26.275 52.3769 26.275 52.3769C25.9 46.6268 25.0249 41.7019 25.0249 41.7019C33.15 41.0018 42.75 50.5019 42.75 50.5019L43.8499 55.2017C43.95 55.6019 44.1499 55.9517 44.4499 56.2019C44.9749 57.1019 46 59.8019 45.6499 61.4519Z" fill="#AD827B"/>
<path d="M44.45 56.2267C39.6749 55.9768 36.1499 55.2768 32.375 48.5017C35.5751 51.3268 39.35 52.4017 43.325 52.9018L43.85 55.2018C43.9499 55.6267 44.15 55.9768 44.45 56.2267Z" fill="#8E5650"/>
<path d="M54.325 26.1017C54.775 28.2017 55 29.9016 53.7749 35.5017C52.55 41.1017 54.8999 46.7016 49 51.8267C45.025 55.2767 38.075 55.9266 32.525 52.1517C30.65 50.8767 28.925 49.1016 27.5249 46.7766C26.425 44.9517 25.15 43.2267 23.725 41.6517C21.7499 39.5016 19.375 35.1767 20.5499 27.5267C22.45 15.0767 34.775 13.6517 42.05 15.0267C49.325 16.4017 53.0999 20.5517 54.325 26.1017Z" fill="#AD827B"/>
<path d="M30.4003 35.8768C30.4003 35.8768 29.6253 32.1268 25.9753 32.5768C22.8253 32.9767 21.7252 40.5268 28.8753 42.6268" fill="#AD827B"/>
<path d="M28.6497 39.2016C28.6497 39.2016 27.7497 38.6268 27.8497 37.6266C27.9997 36.4518 27.8497 35.7267 27.2997 35.5017C25.9248 34.9266 25.6497 36.5268 25.6998 36.7266" stroke="#423232" stroke-miterlimit="10" stroke-linecap="round" stroke-linejoin="round"/>
<path d="M47.7249 41.6267C47.7249 41.6267 48.6748 41.6766 49.5748 40.6016C50.0749 40.0016 50.4999 39.2516 50.2249 39.0266C49.9498 38.7767 45.4249 39.4766 45.1249 40.0766C44.8249 40.6766 46.5748 41.6267 47.7249 41.6267Z" fill="#8E605C"/>
<path d="M48.475 33.2268C48.475 33.2268 48.5251 35.6017 50.05 38.2518C50.725 39.4267 49.7 41.3517 47.4751 41.6767" stroke="#423232" stroke-miterlimit="10" stroke-linecap="round" stroke-linejoin="round"/>
<path d="M28.6377 54.6782C28.6377 54.6782 28.1377 51.5781 27.2877 51.7532C23.3377 52.6532 11.8127 56.0031 7.78769 64.7031C3.9877 72.9782 3.6377 84.5781 3.6377 84.5781H66.8626C66.8626 84.5781 65.7127 66.9531 59.2627 61.5531C55.4377 58.3281 51.9877 56.3532 49.1626 55.1532C45.4126 53.5532 41.6377 56.9031 40.5627 56.8281C38.6377 56.7282 28.6377 54.6782 28.6377 54.6782Z" fill="#544D4D"/>
<path d="M16.0127 84.578L14.8877 75.303" stroke="white" stroke-miterlimit="10" stroke-linecap="round" stroke-linejoin="round"/>
<path d="M59.6625 72.1528C59.6625 72.1528 58.9125 73.978 59.1375 75.8029C59.3625 77.6278 60.0125 80.3029 59.0874 84.5779" stroke="white" stroke-miterlimit="10" stroke-linecap="round" stroke-linejoin="round"/>
<path d="M25.7627 49.2281C25.7627 49.2281 23.9627 49.8781 23.6375 50.228C23.3126 50.5781 23.1626 50.8031 23.1626 50.8031C23.1626 50.8031 22.2626 51.803 21.7625 54.2281C21.5375 55.253 22.0625 56.9281 21.6626 58.253C20.5127 61.928 25.9625 67.5781 34.9625 70.9031C41.7875 73.4281 49.3127 71.1281 50.3627 66.3781C51.3626 61.8031 50.7626 59.7281 50.2877 58.253C49.3376 55.403 49.0376 54.6031 47.7626 53.5031C46.9625 52.8031 46.4126 54.2531 43.4126 55.0781C42.4877 55.328 41.3627 55.5281 39.9125 55.5781C31.2875 55.9031 27.6377 51.0031 26.3375 49.6031C26.0126 49.328 25.8626 49.178 25.7627 49.2281Z" fill="white"/>
<path d="M43.3378 55.0531C42.4128 55.3031 41.2878 55.5031 39.8377 55.553C31.2127 55.8781 27.5628 50.978 26.2627 49.5781" stroke="#CCCCCC" stroke-miterlimit="10" stroke-linecap="round" stroke-linejoin="round"/>
<path d="M47.9127 52.603C50.1878 54.5032 54.1377 59.4781 53.1878 70.603C52.7127 76.1032 55.3878 78.3781 54.7878 79.2532C54.6878 79.4032 54.5628 79.4782 54.4628 79.5031C54.0378 79.603 53.6378 79.8031 53.4378 80.203C53.3628 80.3782 53.2377 80.503 53.0628 80.6032C52.9128 80.7031 52.7378 80.7031 52.5878 80.6782C52.0628 80.5531 51.4878 80.8531 51.1628 81.3031C51.0378 81.478 50.8878 81.6031 50.6628 81.6532C50.5128 81.703 50.3628 81.6781 50.2628 81.6532C49.8378 81.5281 49.3628 81.6532 48.9878 81.9532C48.8877 82.0282 48.7878 82.078 48.6627 82.078C48.4377 82.078 48.2628 81.9781 48.1128 81.8281C47.7627 81.5032 47.2628 81.3781 46.7628 81.553C46.7127 81.5782 46.6878 81.5782 46.6377 81.5782C46.2878 81.628 46.0128 81.3532 45.8127 80.878C45.6128 80.428 45.1377 80.2282 44.6378 80.278C44.5377 80.278 44.4378 80.278 44.3127 80.2531C43.3377 80.0281 42.0878 78.6781 42.0627 77.0281C42.0378 75.403 42.4128 72.5782 43.0377 71.2531C44.9628 67.1782 45.6627 64.2532 45.7628 62.053C45.9627 58.0282 43.4127 54.4282 43.6628 54.3532C46.2128 53.8282 47.9127 52.603 47.9127 52.603Z" fill="white"/>
<path d="M43.0127 71.2531C44.9378 67.178 45.6377 64.253 45.7378 62.053C45.8878 58.9531 44.3878 56.078 43.8377 54.9031" stroke="#CCCCCC" stroke-miterlimit="10" stroke-linecap="round" stroke-linejoin="round"/>
<path d="M42.0378 77.028C42.0127 75.403 42.3877 72.5779 43.0128 71.253C44.9377 67.1781 45.6378 64.2531 45.7377 62.053" stroke="#CCCCCC" stroke-miterlimit="10" stroke-linecap="round" stroke-linejoin="round"/>
<path d="M44.2626 68.303C44.2626 68.303 36.6627 69.053 31.6626 65.2781" stroke="#CCCCCC" stroke-miterlimit="10" stroke-linecap="round" stroke-linejoin="round"/>
<path d="M46.313 55.1282C47.0129 56.1532 47.813 57.6532 48.013 59.5031" stroke="#CCCCCC" stroke-miterlimit="10" stroke-linecap="round" stroke-linejoin="round"/>
<path d="M49.4876 81.653C49.4876 81.653 48.2126 78.953 49.4876 73.0781C50.8376 66.8282 50.2126 63.7532 50.2126 63.7532" stroke="#CCCCCC" stroke-miterlimit="10" stroke-linecap="round" stroke-linejoin="round"/>
<path d="M22.875 58.125C22.875 58.125 24.4029 61.5836 26.25 63.1875" stroke="#CCCCCC" stroke-miterlimit="10" stroke-linecap="round" stroke-linejoin="round"/>
<path d="M45.5375 63.7531C45.5375 63.7531 40.7876 64.078 37.4375 62.7781" stroke="#CCCCCC" stroke-miterlimit="10" stroke-linecap="round" stroke-linejoin="round"/>
<path d="M42.868 30.3777C43.4179 30.4527 43.843 29.8776 43.6429 29.3277C43.543 29.0277 43.3679 28.7526 43.093 28.5777C42.2429 28.0527 39.0679 28.0026 37.393 29.2026C35.9179 30.3027 40.3679 30.0276 42.868 30.3777Z" fill="#423232"/>
<path d="M49.7926 30.6527C49.3426 30.6527 49.0675 30.0778 49.2925 29.6029C49.4176 29.3528 49.5925 29.1278 49.8424 29.0029C50.6176 28.6279 52.6924 28.8529 53.6176 30.1279C54.4426 31.2529 51.8674 30.6278 49.7926 30.6527Z" fill="#423232"/>
<path d="M41.9927 33.5277C40.0427 34.3527 37.8677 33.3276 37.8677 33.3276" stroke="#423232" stroke-miterlimit="10" stroke-linecap="round" stroke-linejoin="round"/>
<path d="M51.8679 34.0279C51.8679 34.0279 50.5179 34.8529 48.8179 33.8779" stroke="#423232" stroke-miterlimit="10" stroke-linecap="round" stroke-linejoin="round"/>
<path d="M45.1858 44.5659C45.2157 45.0495 44.8568 45.8957 44.1987 46.5C40.8186 44.4148 39.2929 45.5027 39.2929 45.5027C38.0965 43.6593 38.3657 41.1512 41.2673 43.055C43.3013 44.3544 44.5277 44.5659 45.1858 44.5659Z" fill="#423232"/>
<path d="M44.25 46.5054C43.5366 47.1585 42.4665 47.5627 41.01 46.9408C40.3262 46.6608 39.7913 46.1011 39.375 45.4794C39.375 45.4794 40.8909 44.36 44.25 46.5054Z" fill="#FE9DAB"/>
<path d="M45.9375 44.4495C45.9375 44.4495 44.6502 45.1493 41.34 43.0499C37.3862 40.5244 38.1831 45.8189 40.9724 46.9446C43.884 48.1313 45.3859 45.5449 45.3552 44.5712" stroke="#423232" stroke-miterlimit="10" stroke-linecap="round" stroke-linejoin="round"/>
<path d="M39.375 45.4781C39.375 45.4781 40.8909 44.3635 44.25 46.5" stroke="#423232" stroke-miterlimit="10" stroke-linecap="round" stroke-linejoin="round"/>
<path d="M58.1416 36.0054C56.9667 34.9304 56.6416 33.3554 56.5417 32.3054C57.2917 32.8053 58.2667 31.2804 58.2166 29.4804C58.1416 26.8053 57.4417 24.8304 56.6167 23.4554C57.1917 22.7304 57.6166 21.8804 57.8416 20.9304C58.8667 16.7804 55.4917 13.6054 50.5666 12.4054C47.5417 11.6554 41.9917 12.0304 35.4667 11.9304C34.3417 11.9054 33.1666 11.9554 32.0167 12.0804C30.6166 12.2304 29.2417 12.5304 27.9667 13.0554C25.8916 13.8304 23.9917 15.0554 22.5417 16.8304C19.9917 19.9803 19.2667 23.5803 19.1416 26.3804C19.0167 29.7054 18.2167 32.9804 16.6417 35.9304C14.9417 39.1053 13.8917 42.4803 15.5667 45.3804C15.6167 45.4554 15.6667 45.5304 15.7167 45.6303C14.9167 49.5804 19.3666 49.2303 20.2417 45.2304C20.0667 45.9804 19.9417 46.6304 19.8667 47.0804C19.2667 51.0054 22.1167 51.5054 23.5417 48.7803C23.6917 48.5054 24.0667 47.3804 24.4666 45.9554C24.4666 46.2054 24.4917 46.4553 24.5167 46.6803C24.5667 52.1553 28.4667 52.6304 28.2417 48.9303C28.1416 47.2803 28.4167 44.9804 28.8417 42.4803C21.7417 40.3554 22.8417 32.8554 26.0167 32.4554C29.6667 31.9803 30.4417 35.7554 30.4417 35.7554C30.7167 36.9303 31.1167 38.3304 31.7167 39.0054C32.7916 40.1804 34.6417 39.3554 33.4417 35.6553C33.1917 34.8804 32.9667 34.0053 32.8167 33.0804C33.7666 33.3303 34.5916 32.8053 34.1917 31.7553C33.8167 30.8054 33.6166 29.9304 33.5667 29.1054C33.4917 27.8304 33.8167 26.6804 34.3666 25.7304C34.9417 28.0053 37.3417 27.3054 37.4917 25.6554C37.5417 25.1054 37.7167 24.4554 37.9666 23.7303C38.5666 24.5054 39.3916 25.2303 40.4167 25.7553C42.3166 26.7054 43.6666 26.2554 43.9666 25.2804C45.1917 25.7054 46.2916 26.0304 47.1417 26.2304C49.6917 26.8554 52.2166 26.5304 54.1917 25.4804C54.2917 25.7054 54.3417 25.9053 54.3667 25.9803C54.3916 26.1054 54.4167 26.2304 54.4417 26.3553C54.6667 27.4304 54.7917 28.4804 54.6916 30.0554C54.6916 30.1304 54.6916 30.1803 54.6667 30.2553C54.6667 30.3054 54.6667 30.3554 54.6417 30.4053C54.6417 30.5304 54.6166 30.6303 54.6166 30.7554C54.6166 30.8304 54.5917 30.8804 54.5917 30.9554C54.5917 31.0554 54.5667 31.1804 54.5416 31.3053C54.5167 31.4054 54.5167 31.5054 54.4917 31.6053C54.4917 31.6803 54.4666 31.7804 54.4666 31.8554C54.4417 32.0054 54.4167 32.1554 54.3916 32.3304C54.3916 32.3553 54.3916 32.4054 54.3667 32.4303C54.3417 32.6304 54.2917 32.8304 54.2667 33.0554C54.1417 33.7554 53.9917 34.5054 53.8167 35.3804C52.7667 40.2303 54.3916 45.1304 50.9667 49.6803C50.8167 51.0303 51.9916 52.7304 53.4417 50.9553C54.5667 49.5804 54.0417 44.9804 53.9667 44.0553C54.0667 45.0303 55.6167 48.1304 57.0667 47.6804C57.8667 47.4303 58.2166 47.0054 58.0917 45.5304C57.9417 43.4553 56.3167 41.4054 56.0917 38.3804C57.5917 39.6554 59.7166 37.4304 58.1416 36.0054Z" fill="#423232"/>
<path d="M27.5285 36.6995C27.5285 36.6995 25.5284 36.3995 25.6784 39.1995C25.7534 40.6245 25.7534 41.3994 25.7285 41.7995C25.7034 42.0744 25.8785 42.3245 26.1284 42.4245C26.4284 42.5495 26.7534 42.4245 26.9034 42.1245C27.1284 41.7245 27.3785 41.1744 27.3785 40.7244C27.3785 39.9744 28.1784 39.2994 28.1784 39.2994C28.1784 39.2994 27.4535 38.6745 27.5285 36.6995Z" fill="white"/>
<path d="M33.5784 84.8994C33.3783 84.6744 25.5283 71.2494 26.7033 66.1995C27.5034 62.7246 26.4534 58.7244 25.5283 55.1994C25.1533 53.7495 24.8034 52.3995 24.6033 51.1995C24.2533 49.1244 24.5034 47.1495 25.3533 45.3246C26.2783 43.2744 26.1283 41.4996 26.1283 41.4744L26.6283 41.4246C26.6283 41.4996 26.7783 43.3746 25.8033 45.5244C25.0033 47.2494 24.7783 49.1496 25.1034 51.1245C25.3033 52.2996 25.6533 53.6496 26.0283 55.0995C26.9784 58.6746 28.0284 62.7495 27.2034 66.3495C26.1033 71.1495 33.9283 84.5745 33.9783 84.6246L33.5784 84.8994Z" fill="white"/>
<path d="M25.7538 40.6496C25.7788 41.1996 25.7538 41.5746 25.7538 41.7996C25.7289 42.0746 25.9038 42.3246 26.1538 42.4245C26.4538 42.5496 26.7789 42.4245 26.9289 42.1245C27.1539 41.7246 27.4038 41.1746 27.4038 40.7246C27.4038 40.6995 27.4038 40.6496 27.4038 40.6245C26.8788 40.8246 26.2788 40.9746 25.7538 40.6496Z" fill="#E5E5E5"/>
<path d="M49.2783 57.2744C49.1033 58.4244 49.0784 60.2495 49.0283 62.3744C48.9533 66.4745 46.5284 82.4495 45.3533 84.9744L44.9033 84.7745C46.0283 82.3244 48.4533 66.4244 48.5283 62.3744C48.5783 60.2495 48.6033 58.3994 48.7784 57.1994C49.1534 54.6744 48.8783 52.7744 48.7283 51.9744C48.8033 51.8994 48.8783 51.8495 48.9533 51.7745C49.0283 51.7244 49.0784 51.6494 49.1534 51.5994C49.3034 52.2494 49.7283 54.3245 49.2783 57.2744Z" fill="white"/>
</g>
</g>
<defs>
<clipPath id="clip0_271_11">
<rect width="75" height="75" fill="white"/>
</clipPath>
</defs>
</svg>
