<svg width="983" height="551" viewBox="0 0 983 551" fill="none" xmlns="http://www.w3.org/2000/svg">
<line x1="125" y1="468.713" x2="980" y2="468.713" stroke="url(#paint0_linear_221_1208)"/>
<path d="M505.44 544.088H947.627C967.163 544.088 983 528.326 983 508.884V104.023C983 84.5808 967.163 68.8111 947.627 68.8111H505.44C485.905 68.8111 470.059 84.5808 470.059 104.023V508.884C470.059 528.326 485.905 544.088 505.44 544.088Z" fill="url(#paint1_radial_221_1208)"/>
<path d="M915.568 511.582H473.382C454.121 511.582 438.5 495.995 438.5 476.768V70.6364C438.5 51.4102 454.121 35.8141 473.382 35.8141H915.568C934.828 35.8141 950.441 51.4101 950.441 70.6364V476.768C950.441 495.995 934.828 511.582 915.568 511.582Z" fill="white" stroke="url(#paint2_radial_221_1208)"/>
<path d="M552.969 88.2892C543.201 88.2892 535.287 80.3879 535.287 70.6364V17.6612C535.287 7.90961 543.201 0 552.969 0C562.737 0 570.66 7.90961 570.66 17.6612V70.6364C570.66 80.3879 562.737 88.2892 552.969 88.2892Z" fill="#91E35B"/>
<path d="M835.972 88.2892C826.204 88.2892 818.289 80.3879 818.289 70.6364V17.6612C818.289 7.90961 826.204 0 835.972 0C845.739 0 853.662 7.90961 853.662 17.6612V70.6364C853.662 80.3879 845.739 88.2892 835.972 88.2892Z" fill="#91E35B"/>
<path d="M513.338 364.659C513.338 367.421 511.1 369.659 508.338 369.659H483.073C480.312 369.659 478.073 367.421 478.073 364.659V339.454C478.073 336.692 480.312 334.454 483.073 334.454H508.338C511.1 334.454 513.338 336.692 513.338 339.454V364.659Z" fill="#D9D9D9"/>
<path d="M712.103 364.659C712.103 367.421 709.865 369.659 707.103 369.659H681.838C679.077 369.659 676.838 367.421 676.838 364.659V339.454C676.838 336.692 679.077 334.454 681.838 334.454H707.103C709.865 334.454 712.103 336.692 712.103 339.454V364.659Z" fill="#D9D9D9"/>
<path d="M612.721 364.659C612.721 367.421 610.482 369.659 607.721 369.659H582.456C579.695 369.659 577.456 367.421 577.456 364.659V339.454C577.456 336.692 579.695 334.454 582.456 334.454H607.721C610.482 334.454 612.721 336.692 612.721 339.454V364.659Z" fill="#D9D9D9"/>
<path d="M811.485 364.659C811.485 367.421 809.247 369.659 806.485 369.659H781.221C778.459 369.659 776.221 367.421 776.221 364.659V339.454C776.221 336.692 778.459 334.454 781.221 334.454H806.485C809.247 334.454 811.485 336.692 811.485 339.454V364.659Z" fill="#D9D9D9"/>
<path d="M910.868 364.659C910.868 367.421 908.629 369.659 905.868 369.659H880.603C877.842 369.659 875.603 367.421 875.603 364.659V339.454C875.603 336.692 877.842 334.454 880.603 334.454H905.868C908.629 334.454 910.868 336.692 910.868 339.454V364.659Z" fill="#D9D9D9"/>
<path d="M513.338 265.443C513.338 268.205 511.1 270.443 508.338 270.443H483.073C480.312 270.443 478.073 268.205 478.073 265.443V240.238C478.073 237.476 480.312 235.238 483.073 235.238H508.338C511.1 235.238 513.338 237.476 513.338 240.238V265.443Z" fill="#D9D9D9"/>
<path d="M612.721 265.443C612.721 268.205 610.482 270.443 607.721 270.443H582.456C579.695 270.443 577.456 268.205 577.456 265.443V240.238C577.456 237.476 579.695 235.238 582.456 235.238H607.721C610.482 235.238 612.721 237.476 612.721 240.238V265.443Z" fill="#D9D9D9"/>
<path d="M910.868 265.443C910.868 268.205 908.629 270.443 905.868 270.443H880.603C877.842 270.443 875.603 268.205 875.603 265.443V240.238C875.603 237.476 877.842 235.238 880.603 235.238H905.868C908.629 235.238 910.868 237.476 910.868 240.238V265.443Z" fill="#D9D9D9"/>
<path d="M513.338 166.228C513.338 168.989 511.1 171.228 508.338 171.228H483.073C480.312 171.228 478.073 168.989 478.073 166.228V141.022C478.073 138.26 480.312 136.022 483.073 136.022H508.338C511.1 136.022 513.338 138.26 513.338 141.022V166.228Z" fill="#D9D9D9"/>
<path d="M612.721 166.228C612.721 168.989 610.482 171.228 607.721 171.228H582.456C579.695 171.228 577.456 168.989 577.456 166.228V141.022C577.456 138.26 579.695 136.022 582.456 136.022H607.721C610.482 136.022 612.721 138.26 612.721 141.022V166.228Z" fill="#D9D9D9"/>
<path d="M910.868 166.228C910.868 168.989 908.629 171.228 905.868 171.228H880.603C877.842 171.228 875.603 168.989 875.603 166.228V141.022C875.603 138.26 877.842 136.022 880.603 136.022H905.868C908.629 136.022 910.868 138.26 910.868 141.022V166.228Z" fill="#D9D9D9"/>
<path d="M513.338 463.875C513.338 466.637 511.1 468.875 508.338 468.875H483.073C480.312 468.875 478.073 466.637 478.073 463.875V438.67C478.073 435.908 480.312 433.67 483.073 433.67H508.338C511.1 433.67 513.338 435.908 513.338 438.67V463.875Z" fill="#D9D9D9"/>
<path d="M712.103 463.875C712.103 466.637 709.865 468.875 707.103 468.875H681.838C679.077 468.875 676.838 466.637 676.838 463.875V438.67C676.838 435.908 679.077 433.67 681.838 433.67H707.103C709.865 433.67 712.103 435.908 712.103 438.67V463.875Z" fill="#D9D9D9"/>
<path d="M612.721 463.875C612.721 466.637 610.482 468.875 607.721 468.875H582.456C579.695 468.875 577.456 466.637 577.456 463.875V438.67C577.456 435.908 579.695 433.67 582.456 433.67H607.721C610.482 433.67 612.721 435.908 612.721 438.67V463.875Z" fill="#D9D9D9"/>
<path d="M811.485 463.875C811.485 466.637 809.247 468.875 806.485 468.875H781.221C778.459 468.875 776.221 466.637 776.221 463.875V438.67C776.221 435.908 778.459 433.67 781.221 433.67H806.485C809.247 433.67 811.485 435.908 811.485 438.67V463.875Z" fill="#D9D9D9"/>
<path d="M910.868 463.875C910.868 466.637 908.629 468.875 905.868 468.875H880.603C877.842 468.875 875.603 466.637 875.603 463.875V438.67C875.603 435.908 877.842 433.67 880.603 433.67H905.868C908.629 433.67 910.868 435.908 910.868 438.67V463.875Z" fill="#D9D9D9"/>
<path d="M780.475 220.654C794.505 195.674 782.616 173.161 817.784 133.212C818.92 131.922 818.05 129.855 816.332 129.816C758.64 128.525 720.258 132.904 691.429 165.25C636.745 226.604 734.321 302.831 780.475 220.654Z" fill="url(#paint3_radial_221_1208)"/>
<path d="M766.434 165.25C750.916 170.455 699.202 201.653 678.141 270.443" stroke="black" stroke-width="4" stroke-linecap="round"/>
<path d="M158.347 408.181L196.804 383.35C203.901 378.768 209.737 372.48 213.778 365.061C217.819 357.641 219.936 349.328 219.935 340.879V254.435C220.15 271.254 222.707 286.175 226.863 299.403C233.65 320.998 244.687 338.081 256.74 351.561C280.259 377.862 307.642 390.441 314.808 396.013C314.808 396.013 312.334 417.449 280.322 435.179C259.255 446.847 224.157 461.386 200.183 472.394L158.347 408.181Z" fill="#423C52"/>
<path d="M458.996 450.178L387.925 479.448C373.221 452.304 349.66 419.336 314.795 396.021C301.708 385.842 221.181 352.312 219.92 254.424C219.92 254.424 276.872 260.083 286.502 232.036C286.502 232.036 297.358 241.039 318.307 241.039C318.307 241.039 309.314 250.833 337.937 277.331C377.333 313.803 430.184 359.881 458.996 450.178Z" fill="#2F3676"/>
<path d="M220.443 260.455C220.443 260.455 279.49 266.113 289.119 238.066" stroke="#A7A7A7" stroke-width="1.5" stroke-miterlimit="10" stroke-linecap="round"/>
<path d="M286.528 245.413C286.528 245.413 277.121 262.36 305.749 288.86C345.14 325.322 397.991 371.4 426.802 461.697" stroke="#A7A7A7" stroke-width="1.5" stroke-miterlimit="10" stroke-linecap="round"/>
<path d="M256.727 351.568C244.687 338.089 233.637 321.006 226.85 299.411H262.427C262.427 299.411 279.712 346.151 256.727 351.568Z" stroke="#A7A7A7" stroke-width="1.5" stroke-miterlimit="10" stroke-linecap="round"/>
<path d="M159.01 529.404L153.17 533.189C152.76 533.438 152.268 533.515 151.801 533.402C151.335 533.29 150.932 532.996 150.681 532.587L147.404 527.53C147.133 527.134 147.03 526.647 147.118 526.175C147.206 525.703 147.477 525.285 147.873 525.013C148.117 524.853 148.317 524.634 148.454 524.376C148.592 524.119 148.662 523.831 148.658 523.539C148.659 523.167 148.55 522.803 148.347 522.492L145.112 517.501C144.861 517.092 144.458 516.798 143.991 516.686C143.525 516.573 143.033 516.649 142.623 516.899C142.347 517.073 142.027 517.164 141.701 517.161C141.388 517.158 141.079 517.077 140.805 516.925C140.531 516.772 140.299 516.554 140.131 516.289L136.854 511.232C136.583 510.836 136.48 510.349 136.568 509.877C136.656 509.405 136.927 508.987 137.322 508.715C137.567 508.555 137.766 508.336 137.904 508.078C138.041 507.821 138.111 507.533 138.108 507.241C138.108 506.869 138 506.505 137.796 506.194L134.561 501.2C134.437 500.997 134.275 500.821 134.082 500.681C133.89 500.541 133.672 500.44 133.441 500.384C133.21 500.329 132.97 500.319 132.735 500.356C132.5 500.393 132.275 500.477 132.072 500.601C131.797 500.775 131.477 500.866 131.151 500.863C130.837 500.86 130.529 500.779 130.255 500.627C129.98 500.474 129.749 500.256 129.58 499.991L126.304 494.934C126.032 494.538 125.929 494.051 126.016 493.578C126.104 493.106 126.376 492.688 126.772 492.417C127.016 492.257 127.216 492.038 127.353 491.78C127.49 491.523 127.561 491.235 127.557 490.943C127.558 490.571 127.45 490.207 127.246 489.896L124.011 484.902C123.76 484.493 123.357 484.2 122.89 484.087C122.424 483.975 121.931 484.053 121.522 484.303C121.246 484.477 120.926 484.568 120.6 484.565C120.287 484.562 119.979 484.481 119.704 484.329C119.43 484.176 119.198 483.958 119.03 483.693L115.753 478.636C115.482 478.24 115.379 477.753 115.467 477.281C115.555 476.809 115.826 476.391 116.222 476.119C116.466 475.958 116.665 475.74 116.803 475.482C116.94 475.225 117.01 474.937 117.007 474.645C117.007 474.273 116.897 473.909 116.693 473.598L113.453 468.641C113.202 468.232 112.799 467.938 112.332 467.826C111.866 467.713 111.374 467.789 110.964 468.039C110.687 468.213 110.366 468.304 110.04 468.301C109.726 468.298 109.418 468.216 109.144 468.064C108.869 467.912 108.638 467.694 108.469 467.429L105.192 462.37C104.922 461.973 104.819 461.485 104.907 461.013C104.996 460.541 105.268 460.124 105.663 459.852C105.908 459.692 106.107 459.473 106.245 459.216C106.382 458.958 106.452 458.67 106.449 458.378C106.449 458.007 106.341 457.643 106.137 457.331L102.902 452.34C102.651 451.931 102.249 451.638 101.782 451.525C101.315 451.412 100.823 451.489 100.413 451.738C100.137 451.914 99.8161 452.005 99.4892 452C99.1755 451.998 98.8673 451.917 98.593 451.764C98.3186 451.612 98.0869 451.393 97.9188 451.128L94.6419 446.069C94.5075 445.873 94.4129 445.653 94.3637 445.42C94.3145 445.188 94.3115 444.948 94.355 444.714C94.3986 444.481 94.4877 444.258 94.6173 444.059C94.7469 443.86 94.9145 443.688 95.1105 443.554L104.902 438.018L105.245 438.597C104.311 439.26 103.668 440.258 103.451 441.382C103.234 442.507 103.46 443.672 104.08 444.635L159.01 529.404Z" fill="#423C52"/>
<path d="M104.08 444.619C103.738 444.087 103.513 443.489 103.421 442.864C103.328 442.238 103.37 441.6 103.543 440.992C103.717 440.384 104.018 439.82 104.426 439.338C104.835 438.855 105.341 438.465 105.912 438.194L122.074 430.577C133.294 425.296 146.363 417.611 162.022 406.176L199.711 472.057C198.623 472.58 197.531 473.103 196.419 473.598C143.745 496.939 172.431 519.244 158.656 528.889L104.08 444.619Z" fill="white" stroke="#423C52" stroke-width="1.5" stroke-miterlimit="10" stroke-linecap="round"/>
<path d="M157.272 409.812L194.294 474.532" stroke="#423C52" stroke-width="1.5" stroke-miterlimit="10" stroke-linecap="round"/>
<path d="M509.892 498.169L512.86 504.451C512.956 504.669 513.008 504.903 513.013 505.141C513.018 505.379 512.976 505.615 512.89 505.837C512.803 506.059 512.674 506.261 512.51 506.433C512.345 506.605 512.148 506.742 511.931 506.838L506.481 509.411C506.052 509.627 505.555 509.663 505.099 509.512C504.643 509.362 504.266 509.036 504.05 508.607C503.904 508.307 503.675 508.055 503.39 507.88C503.106 507.705 502.777 507.615 502.443 507.621C502.157 507.621 501.875 507.685 501.616 507.806L496.237 510.345C495.798 510.539 495.454 510.899 495.279 511.347C495.105 511.794 495.116 512.292 495.308 512.732C495.415 512.957 495.471 513.203 495.47 513.452C495.464 513.804 495.359 514.148 495.166 514.443C494.972 514.738 494.7 514.973 494.379 515.119L488.93 517.689C488.501 517.905 488.004 517.942 487.548 517.792C487.092 517.642 486.715 517.317 486.498 516.888C486.352 516.587 486.123 516.334 485.838 516.159C485.553 515.984 485.223 515.894 484.889 515.899C484.604 515.9 484.322 515.963 484.064 516.085L478.683 518.624C478.244 518.818 477.9 519.178 477.726 519.626C477.552 520.073 477.562 520.571 477.754 521.011C477.861 521.236 477.916 521.482 477.916 521.73C477.911 522.083 477.806 522.427 477.613 522.722C477.42 523.017 477.148 523.251 476.827 523.398L471.375 525.971C470.946 526.186 470.449 526.223 469.993 526.072C469.537 525.922 469.16 525.596 468.944 525.167C468.798 524.867 468.569 524.614 468.284 524.44C468 524.265 467.671 524.175 467.337 524.18C467.052 524.181 466.77 524.244 466.513 524.366L461.131 526.905C460.692 527.099 460.348 527.459 460.173 527.906C459.999 528.354 460.01 528.852 460.202 529.292C460.309 529.517 460.364 529.763 460.364 530.012C460.359 530.364 460.253 530.707 460.061 531.002C459.868 531.297 459.596 531.532 459.276 531.679L453.824 534.249C453.395 534.464 452.898 534.501 452.443 534.351C451.987 534.201 451.609 533.876 451.392 533.448C451.246 533.147 451.018 532.895 450.733 532.719C450.448 532.544 450.12 532.454 449.785 532.459C449.5 532.459 449.219 532.523 448.961 532.645L443.58 535.183C443.14 535.377 442.796 535.738 442.622 536.185C442.448 536.633 442.46 537.131 442.653 537.57C442.758 537.795 442.813 538.04 442.813 538.288C442.807 538.64 442.702 538.984 442.51 539.28C442.317 539.575 442.045 539.81 441.724 539.957L436.272 542.528C435.843 542.743 435.347 542.779 434.891 542.629C434.435 542.479 434.058 542.155 433.841 541.727C433.695 541.426 433.467 541.174 433.182 540.999C432.898 540.823 432.57 540.733 432.236 540.737C431.95 540.738 431.667 540.802 431.409 540.926L426.028 543.462C425.589 543.656 425.244 544.016 425.071 544.464C424.897 544.911 424.908 545.41 425.101 545.849C425.208 546.074 425.262 546.32 425.261 546.569C425.256 546.921 425.151 547.265 424.958 547.56C424.766 547.855 424.493 548.09 424.172 548.236L418.723 550.806C418.294 551.022 417.797 551.059 417.34 550.909C416.884 550.759 416.506 550.434 416.289 550.005L412.078 539.57L412.695 539.308C413.228 540.323 414.131 541.092 415.217 541.458C416.302 541.823 417.487 541.755 418.524 541.269L509.892 498.169Z" fill="#423C52"/>
<path d="M418.524 541.269C417.952 541.536 417.329 541.679 416.697 541.687C416.065 541.695 415.438 541.569 414.859 541.316C414.28 541.063 413.761 540.69 413.338 540.221C412.914 539.752 412.595 539.198 412.402 538.596C410.604 532.919 408.879 527.462 407.013 521.56C403.278 509.735 397.41 495.756 388.168 478.707L458.496 450.178C458.862 451.325 459.244 452.479 459.584 453.646C475.673 508.968 501.611 483.523 509.313 498.463L418.524 541.269Z" fill="white" stroke="#423C52" stroke-width="1.5" stroke-miterlimit="10" stroke-linecap="round"/>
<path d="M391.142 483.902L460.234 455.868" stroke="#423C52" stroke-width="1.5" stroke-miterlimit="10" stroke-linecap="round"/>
<path d="M327.235 237.27C323.687 237.27 320.175 236.562 316.905 235.186C313.634 233.811 310.671 231.797 308.19 229.262C305.708 226.727 303.757 223.721 302.452 220.423C301.146 217.124 300.513 213.597 300.588 210.05L302.352 132.51L339.466 131.625L353.479 205.912C356.397 222.252 343.837 237.27 327.235 237.27Z" fill="#423C52"/>
<path d="M302.352 132.494L301.973 112.71C301.886 107.622 305.637 102.764 310.667 102.076L338.097 99.0449L339.458 131.625L302.352 132.494Z" fill="#DCAE92"/>
<path d="M325.855 110.511C418.006 107.156 446.307 70.1445 472.561 70.825C489.011 71.2516 490.189 141.704 467.541 141.118C445.878 140.558 425.512 115.288 349.822 111.684L325.855 110.511Z" fill="#EDDA2B"/>
<path d="M325.855 110.511C418.006 107.156 446.307 70.1445 472.561 70.825C489.011 71.2516 490.189 141.704 467.541 141.118C445.878 140.558 425.512 115.288 349.822 111.684L325.855 110.511Z" stroke="#423C52" stroke-width="1.5" stroke-miterlimit="10"/>
<path d="M478.191 74.2406L477.581 135.245" stroke="#423C52" stroke-width="1.5" stroke-miterlimit="10"/>
<path d="M471.119 70.825L470.417 140.786" stroke="#423C52" stroke-width="1.5" stroke-miterlimit="10"/>
<path d="M464.002 71.8117L463.312 140.707" stroke="#423C52" stroke-width="1.5" stroke-miterlimit="10"/>
<path d="M456.873 74.06L456.224 138.883" stroke="#423C52" stroke-width="1.5" stroke-miterlimit="10"/>
<path d="M449.736 77.1092L449.144 136.164" stroke="#423C52" stroke-width="1.5" stroke-miterlimit="10"/>
<path d="M442.596 80.4227L442.067 133.093" stroke="#423C52" stroke-width="1.5" stroke-miterlimit="10"/>
<path d="M435.45 84.1393L434.992 130.026" stroke="#423C52" stroke-width="1.5" stroke-miterlimit="10"/>
<path d="M428.313 87.2984L427.912 127.137" stroke="#423C52" stroke-width="1.5" stroke-miterlimit="10"/>
<path d="M421.175 90.3423L420.833 124.506" stroke="#423C52" stroke-width="1.5" stroke-miterlimit="10"/>
<path d="M414.038 93.2606L413.75 122.158" stroke="#423C52" stroke-width="1.5" stroke-miterlimit="10"/>
<path d="M406.903 95.9695L406.662 120.091" stroke="#423C52" stroke-width="1.5" stroke-miterlimit="10"/>
<path d="M399.774 98.3382L399.575 118.293" stroke="#423C52" stroke-width="1.5" stroke-miterlimit="10"/>
<path d="M392.644 100.495L392.482 116.741" stroke="#423C52" stroke-width="1.5" stroke-miterlimit="10"/>
<path d="M385.52 102.411L385.389 115.421" stroke="#423C52" stroke-width="1.5" stroke-miterlimit="10"/>
<path d="M378.396 104.096L378.293 114.312" stroke="#423C52" stroke-width="1.5" stroke-miterlimit="10"/>
<path d="M371.274 105.562L371.195 113.398" stroke="#423C52" stroke-width="1.5" stroke-miterlimit="10"/>
<path d="M364.155 106.821L364.094 112.665" stroke="#423C52" stroke-width="1.5" stroke-miterlimit="10"/>
<path d="M357.036 107.884L356.994 112.1" stroke="#423C52" stroke-width="1.5" stroke-miterlimit="10"/>
<path d="M349.922 108.763L349.89 111.684" stroke="#423C52" stroke-width="1.5" stroke-miterlimit="10"/>
<path d="M449.738 76.9155L480.002 77.2165" stroke="#423C52" stroke-width="1.5" stroke-miterlimit="10"/>
<path d="M435.453 83.8802L482.549 84.3513" stroke="#423C52" stroke-width="1.5" stroke-miterlimit="10"/>
<path d="M420.971 90.8422L483.931 91.4704" stroke="#423C52" stroke-width="1.5" stroke-miterlimit="10"/>
<path d="M401.603 97.7545L484.611 98.5842" stroke="#423C52" stroke-width="1.5" stroke-miterlimit="10"/>
<path d="M376.302 104.609L484.732 105.693" stroke="#423C52" stroke-width="1.5" stroke-miterlimit="10"/>
<path d="M342.761 111.38L484.316 112.796" stroke="#423C52" stroke-width="1.5" stroke-miterlimit="10"/>
<path d="M402.833 119.088L483.3 119.892" stroke="#423C52" stroke-width="1.5" stroke-miterlimit="10"/>
<path d="M426.075 126.427L481.499 126.982" stroke="#423C52" stroke-width="1.5" stroke-miterlimit="10"/>
<path d="M443.464 133.709L478.351 134.057" stroke="#423C52" stroke-width="1.5" stroke-miterlimit="10"/>
<path d="M143.573 105.415C143.573 105.415 188.708 130.667 227.212 123.941" stroke="#423C52" stroke-width="1.5" stroke-miterlimit="10"/>
<path d="M111.825 180.153C111.825 180.153 137.029 144.175 187.565 133.235" stroke="#423C52" stroke-width="1.5" stroke-miterlimit="10"/>
<path d="M57.6804 152.208C57.6804 152.208 82.6129 163.624 119.449 152.708" stroke="#423C52" stroke-width="1.5" stroke-miterlimit="10"/>
<path d="M325.856 110.511C317.97 110.616 220.467 111.082 21.428 186.748" stroke="#423C52" stroke-width="1.5" stroke-miterlimit="10"/>
<path d="M420.354 125.121C406.11 120.148 387.69 115.463 362.351 113.299L361.537 113.123C361.537 113.123 363.571 108.436 366.118 105.709C380.886 103.234 395.391 99.3873 409.445 94.2186L420.354 125.121Z" fill="#423C52"/>
<path d="M126.272 91.4468C126.272 91.4468 140.314 89.9942 149.676 109.153C149.676 109.153 133.331 109.425 126.272 91.4468Z" fill="#DED83B"/>
<path d="M0 199.139C0 199.139 3.51505 181.715 25.7151 184.424C25.7151 184.424 20.224 203.693 0 199.139Z" fill="#DED83B"/>
<path d="M93.6553 188.764C93.6553 188.764 95.8905 171.131 118.232 172.217C118.232 172.217 114.154 191.834 93.6553 188.764Z" fill="#DED83B"/>
<path d="M122.129 192.166C122.129 192.166 114.029 180.969 127.285 169.712C127.285 169.712 135.396 183.014 122.129 192.166Z" fill="#423C52"/>
<path d="M130.633 192.389C130.633 192.389 118.967 184.982 127.126 169.618C127.126 169.623 139.579 178.98 130.633 192.389Z" fill="#DED83B"/>
<path d="M162.93 102.515C162.93 102.515 176.42 101.469 182.754 119.656C182.754 119.656 167.246 119.531 162.93 102.515Z" fill="#423C52"/>
<path d="M168.924 94.1583C168.924 94.1583 184.073 98.4376 182.777 120.164C182.777 120.164 165.953 113.851 168.924 94.1583Z" fill="#DED83B"/>
<path d="M139.241 119.536C139.241 119.536 146.028 109.163 162.535 113.712C162.535 113.712 154.175 125.587 139.241 119.536Z" fill="#423C52"/>
<path d="M49.5327 191.873C49.5327 191.873 50.4959 179.095 68.6391 173.261C68.6391 173.261 66.9666 188.24 49.5327 191.873Z" fill="#423C52"/>
<path d="M29.9971 167.142C29.9971 167.142 41.0709 160.696 56.1702 172.34C56.1624 172.34 42.8716 179.449 29.9971 167.142Z" fill="#DED83B"/>
<path d="M47.5173 153.912C47.5173 153.912 57.4186 145.777 74.1773 154.856C74.1773 154.856 62.1952 164.001 47.5173 153.912Z" fill="#423C52"/>
<path d="M49.6975 135.347C49.6975 135.347 65.9249 133.515 74.2191 155.131C74.2191 155.131 55.521 155.647 49.6975 135.347Z" fill="#DED83B"/>
<path d="M312.926 110.88L313.711 104.531C313.973 103.387 315.614 102.175 317.19 101.963L341.379 98.8224C344.899 98.367 347.108 99.8929 346.613 102.437L344.826 112.998C344.386 115.615 341.685 117.73 338.544 118.015L309.065 120.557C307.333 120.716 309.272 112.362 309.526 111.085L312.926 110.88Z" fill="#DCAE92"/>
<path d="M312.926 110.619L311.044 110.729C310.367 110.795 309.73 111.084 309.233 111.549C308.735 112.014 308.405 112.63 308.293 113.301L307.66 118.69C307.398 120.02 308.463 120.86 310.262 120.711C322.437 119.695 339.918 118.175 342.159 117.131C345.095 115.767 346.32 106.698 346.77 101.796C346.946 99.9165 345.323 98.7701 342.737 98.9323" stroke="#423C52" stroke-width="1.5" stroke-miterlimit="10" stroke-linecap="round"/>
<path d="M342.734 98.9323L311.039 102.72" stroke="#423C52" stroke-width="1.5" stroke-miterlimit="10" stroke-linecap="round"/>
<path d="M333.778 118.531C337.903 116.379 339.696 107.954 339.335 102.699C339.212 100.919 337.887 99.673 335.299 99.8379" stroke="#423C52" stroke-width="1.5" stroke-miterlimit="10" stroke-linecap="round"/>
<path d="M326.159 119.138C329.271 117.999 331.551 109.242 331.577 103.596C331.577 101.764 330.13 100.571 327.541 100.733" stroke="#423C52" stroke-width="1.5" stroke-miterlimit="10" stroke-linecap="round"/>
<path d="M316.86 120.18C319.794 118.816 321.5 110.477 321.472 104.842C321.472 103.023 319.974 101.654 317.184 101.963" stroke="#423C52" stroke-width="1.5" stroke-miterlimit="10" stroke-linecap="round"/>
<path d="M312.926 110.619L312.303 114.67" stroke="#423C52" stroke-width="1.5" stroke-miterlimit="10" stroke-linecap="round"/>
<path d="M400.826 124.32L360.692 213.508C357.047 221.706 351.103 228.671 343.581 233.559C336.058 238.448 327.279 241.05 318.307 241.05C297.369 241.05 286.502 232.046 286.502 232.046C276.872 260.093 219.92 254.435 219.92 254.435V158.769C219.919 153.175 221.021 147.636 223.161 142.468C225.302 137.3 228.44 132.604 232.395 128.648C236.351 124.693 241.047 121.555 246.215 119.414C251.383 117.274 256.922 116.172 262.516 116.173H263.621C288.085 116.173 307.741 135.831 307.741 160.081V169.147L354.036 114.969L400.826 124.32Z" fill="#91E35B"/>
<path d="M318.307 241.05C284.423 241.05 253.442 208.276 247.755 187.918C247.755 187.918 254.513 249.923 318.307 254.435V241.05Z" fill="#423C52"/>
<path d="M310.371 165.111L301.302 177.025" stroke="#423C52" stroke-width="1.5" stroke-miterlimit="10" stroke-linecap="round"/>
<path d="M400.564 124.582L353.785 115.217C353.785 115.217 363.84 95.5037 367.984 93.7187C370.664 92.567 384.782 90.468 396.251 89.3687C403.757 88.6489 410.138 88.3532 411.449 89.0311C411.727 89.175 411.886 89.5048 411.952 89.989L411.803 91.1537C411.578 92.9309 409.994 93.7553 408.264 94.2317C405.681 94.941 404.053 95.1582 403.891 95.2289C402.43 95.857 399.703 100.259 396.232 105.379C398.698 106.826 401.318 109.074 402.307 111.773C403.182 114.141 403.305 116.721 402.66 119.162L400.564 124.582Z" fill="#DCAE92"/>
<path d="M366.947 105.096C369.994 100.474 373.082 93.8679 375.166 92.9701C376.254 92.5016 381.204 91.7374 385.583 91.2296" stroke="#423C52" stroke-width="1.5" stroke-miterlimit="10" stroke-linecap="round"/>
<path d="M376.053 105.096C379.474 99.9034 383.005 92.4466 385.35 91.439C386.569 90.9155 391.704 90.2298 395.986 89.955" stroke="#423C52" stroke-width="1.5" stroke-miterlimit="10" stroke-linecap="round"/>
<path d="M385.716 105.096C389.137 99.9034 393.395 91.2244 395.738 90.2036C396.96 89.6802 400.394 88.895 404.681 88.7432C406.944 88.66 409.209 88.7536 411.457 89.0232L411.196 91.07C411.01 92.5356 409.913 93.3523 408.523 93.8548C406.775 94.4882 404.553 95.365 403.901 95.645C401.546 96.6527 397.9 102.879 396.088 105.591C401.514 108.383 405 114.702 400.315 123.831L354.306 115.209" stroke="#423C52" stroke-width="1.5" stroke-miterlimit="10" stroke-linecap="round"/>
<path d="M340.044 74.3243C337.489 72.1179 318.265 73.848 295.128 79.0721C271.486 84.4036 253.356 90.9469 252.746 93.9699C253.078 87.2669 277.909 76.7637 277.909 76.7637L278.77 68.65C278.841 67.9797 279.12 67.3484 279.567 66.844C280.014 66.3396 280.607 65.9874 281.264 65.8364L301.918 61.0833C302.538 60.9398 303.187 60.9824 303.783 61.2059C304.38 61.4293 304.897 61.8237 305.27 62.3396L310.45 69.5006C332.676 68.5479 338.942 72.9319 340.044 74.3243Z" fill="white" stroke="#423C52" stroke-width="1.5" stroke-miterlimit="10" stroke-linecap="round"/>
<path d="M310.45 69.5006C305.59 70.3408 300.329 71.3013 294.866 72.5367C288.784 73.9082 283.057 75.3215 277.909 76.7715" stroke="#423C52" stroke-width="1.5" stroke-miterlimit="10" stroke-linecap="round"/>
<path d="M303.383 100.257L294.448 122.174L292.529 126.885C284.494 119.95 274.227 116.147 263.613 116.175H262.516C256.242 116.166 250.044 117.549 244.368 120.224L244.412 120.177L260.208 103.288L276.304 86.0813L303.383 100.257Z" fill="#DCAE92"/>
<path d="M303.386 100.257L294.508 122.041C291.391 116.531 288.203 109.14 288.122 104.546C288.069 101.73 288.122 95.7863 287.98 92.2058L303.386 100.257Z" fill="#423C52"/>
<path d="M282.866 83.7598C282.866 83.7598 287.711 82.4511 293.521 81.0273C293.521 81.0273 293.521 81.0535 293.521 81.0875C293.419 81.6816 292.629 86.398 292.825 90.3711C292.938 92.6691 293.383 94.7184 294.477 95.5795C297.599 98.0346 308.77 97.8121 311.353 97.0688C311.353 97.0688 312.321 110.226 310.306 110.524C308.291 110.823 291.328 106.266 289.106 101.824C287.572 98.7517 288.119 94.8964 287.975 91.3159L288.046 89.1514C288.067 88.4555 287.949 87.7624 287.698 87.1127C287.448 86.463 287.071 85.8697 286.589 85.3676C286.106 84.8656 285.529 84.4647 284.889 84.1887C284.25 83.9126 283.562 83.7668 282.866 83.7598Z" fill="#541B05"/>
<path d="M288.019 96.8751H281.018C277.32 96.8751 274.475 94.2578 274.475 91.0359V87.0602" stroke="#423C52" stroke-width="1.5" stroke-miterlimit="10"/>
<path d="M279.615 83.7414H283.146C284.437 83.7421 285.675 84.2547 286.588 85.1668C287.502 86.0789 288.017 87.3161 288.019 88.607V95.9355H281.099C279.491 95.9355 277.948 95.2966 276.811 94.1593C275.674 93.022 275.035 91.4795 275.035 89.8712V88.3243C275.035 87.7215 275.154 87.1245 275.384 86.5675C275.615 86.0106 275.953 85.5045 276.38 85.0782C276.806 84.6519 277.312 84.3137 277.869 84.083C278.426 83.8523 279.023 83.7336 279.626 83.7336L279.615 83.7414Z" fill="#DCAE92"/>
<path d="M285.549 90.9862C285.549 88.5887 283.151 86.644 280.191 86.644" stroke="#423C52" stroke-width="1.5" stroke-miterlimit="10" stroke-linecap="round"/>
<path d="M316.619 94.687C315.13 95.9212 313.338 96.7345 311.429 97.0426L311.34 97.0583C308.757 97.8016 297.586 98.0241 294.463 95.5691C293.369 94.708 292.924 92.6586 292.812 90.3606C292.616 86.3875 293.406 81.6711 293.508 81.077C294.777 80.7734 296.067 80.4741 297.379 80.1793C302.192 79.0904 306.802 78.1613 311.083 77.4023C311.083 77.4128 315.567 83.7309 316.619 94.687Z" fill="#DCAE92"/>
<path d="M300.8 86.063C301.655 85.119 302.7 84.3662 303.865 83.8538C305.031 83.3415 306.292 83.0811 307.566 83.0897" stroke="#423C52" stroke-width="1.5" stroke-miterlimit="10" stroke-linecap="round"/>
<path d="M305.231 89.7036C305.867 89.7036 306.383 88.8611 306.383 87.8218C306.383 86.7825 305.867 85.9399 305.231 85.9399C304.595 85.9399 304.08 86.7825 304.08 87.8218C304.08 88.8611 304.595 89.7036 305.231 89.7036Z" fill="#423C52"/>
<path d="M294.576 122.31L292.532 126.883C284.497 119.947 274.229 116.144 263.616 116.173H262.516C256.242 116.164 250.044 117.547 244.368 120.222L260.098 103.277C278.278 104.549 294.576 122.31 294.576 122.31Z" fill="#E5F1EF"/>
<path d="M243.342 120.719C249.288 117.719 255.857 116.162 262.516 116.173H263.621C274.235 116.144 284.502 119.947 292.537 126.883" stroke="#423C52" stroke-width="1.5" stroke-miterlimit="10" stroke-linecap="round"/>
<defs>
<linearGradient id="paint0_linear_221_1208" x1="552.5" y1="469.214" x2="167" y2="469.213" gradientUnits="userSpaceOnUse">
<stop offset="0.776399"/>
<stop offset="0.914663" stop-opacity="0"/>
</linearGradient>
<radialGradient id="paint1_radial_221_1208" cx="0" cy="0" r="1" gradientUnits="userSpaceOnUse" gradientTransform="translate(983 69) rotate(137.203) scale(699.138 549.767)">
<stop stop-color="#91E35B"/>
<stop offset="1" stop-color="#FFFB7D"/>
</radialGradient>
<radialGradient id="paint2_radial_221_1208" cx="0" cy="0" r="1" gradientUnits="userSpaceOnUse" gradientTransform="translate(438 35.2057) rotate(42.7003) scale(735.044 789.383)">
<stop/>
<stop offset="1" stop-opacity="0"/>
</radialGradient>
<radialGradient id="paint3_radial_221_1208" cx="0" cy="0" r="1" gradientUnits="userSpaceOnUse" gradientTransform="translate(821 129.782) rotate(134.947) scale(200.297 174.037)">
<stop stop-color="#91E35B"/>
<stop offset="1" stop-color="#FFFB7D"/>
</radialGradient>
</defs>
</svg>
