<svg width="858" height="568" viewBox="0 0 858 568" fill="none" xmlns="http://www.w3.org/2000/svg">
<line y1="468.713" x2="855" y2="468.713" stroke="url(#paint0_linear_172_66)"/>
<path d="M380.44 544.088H822.627C842.163 544.088 858 528.326 858 508.884V104.023C858 84.5808 842.163 68.8111 822.627 68.8111H380.44C360.905 68.8111 345.059 84.5808 345.059 104.023V508.884C345.059 528.326 360.905 544.088 380.44 544.088Z" fill="url(#paint1_radial_172_66)"/>
<path d="M790.568 511.582H348.382C329.121 511.582 313.5 495.995 313.5 476.768V70.6364C313.5 51.4102 329.121 35.8141 348.382 35.8141H790.568C809.828 35.8141 825.441 51.4101 825.441 70.6364V476.768C825.441 495.995 809.828 511.582 790.568 511.582Z" fill="white" stroke="url(#paint2_radial_172_66)"/>
<path d="M427.969 88.2892C418.201 88.2892 410.287 80.3879 410.287 70.6364V17.6612C410.287 7.90961 418.201 0 427.969 0C437.737 0 445.66 7.90961 445.66 17.6612V70.6364C445.66 80.3879 437.737 88.2892 427.969 88.2892Z" fill="#91E35B"/>
<path d="M710.972 88.2892C701.204 88.2892 693.289 80.3879 693.289 70.6364V17.6612C693.289 7.90961 701.204 0 710.972 0C720.739 0 728.662 7.90961 728.662 17.6612V70.6364C728.662 80.3879 720.739 88.2892 710.972 88.2892Z" fill="#91E35B"/>
<path d="M388.338 364.659C388.338 367.421 386.1 369.659 383.338 369.659H358.073C355.312 369.659 353.073 367.421 353.073 364.659V339.454C353.073 336.692 355.312 334.454 358.073 334.454H383.338C386.1 334.454 388.338 336.692 388.338 339.454V364.659Z" fill="#D9D9D9"/>
<path d="M587.103 364.659C587.103 367.421 584.865 369.659 582.103 369.659H556.838C554.077 369.659 551.838 367.421 551.838 364.659V339.454C551.838 336.692 554.077 334.454 556.838 334.454H582.103C584.865 334.454 587.103 336.692 587.103 339.454V364.659Z" fill="#D9D9D9"/>
<path d="M487.721 364.659C487.721 367.421 485.482 369.659 482.721 369.659H457.456C454.695 369.659 452.456 367.421 452.456 364.659V339.454C452.456 336.692 454.695 334.454 457.456 334.454H482.721C485.482 334.454 487.721 336.692 487.721 339.454V364.659Z" fill="#D9D9D9"/>
<path d="M686.485 364.659C686.485 367.421 684.247 369.659 681.485 369.659H656.221C653.459 369.659 651.221 367.421 651.221 364.659V339.454C651.221 336.692 653.459 334.454 656.221 334.454H681.485C684.247 334.454 686.485 336.692 686.485 339.454V364.659Z" fill="#D9D9D9"/>
<path d="M785.868 364.659C785.868 367.421 783.629 369.659 780.868 369.659H755.603C752.842 369.659 750.603 367.421 750.603 364.659V339.454C750.603 336.692 752.842 334.454 755.603 334.454H780.868C783.629 334.454 785.868 336.692 785.868 339.454V364.659Z" fill="#D9D9D9"/>
<path d="M388.338 265.443C388.338 268.205 386.1 270.443 383.338 270.443H358.073C355.312 270.443 353.073 268.205 353.073 265.443V240.238C353.073 237.476 355.312 235.238 358.073 235.238H383.338C386.1 235.238 388.338 237.476 388.338 240.238V265.443Z" fill="#D9D9D9"/>
<path d="M487.721 265.443C487.721 268.205 485.482 270.443 482.721 270.443H457.456C454.695 270.443 452.456 268.205 452.456 265.443V240.238C452.456 237.476 454.695 235.238 457.456 235.238H482.721C485.482 235.238 487.721 237.476 487.721 240.238V265.443Z" fill="#D9D9D9"/>
<path d="M785.868 265.443C785.868 268.205 783.629 270.443 780.868 270.443H755.603C752.842 270.443 750.603 268.205 750.603 265.443V240.238C750.603 237.476 752.842 235.238 755.603 235.238H780.868C783.629 235.238 785.868 237.476 785.868 240.238V265.443Z" fill="#D9D9D9"/>
<path d="M388.338 166.228C388.338 168.989 386.1 171.228 383.338 171.228H358.073C355.312 171.228 353.073 168.989 353.073 166.228V141.022C353.073 138.26 355.312 136.022 358.073 136.022H383.338C386.1 136.022 388.338 138.26 388.338 141.022V166.228Z" fill="#D9D9D9"/>
<path d="M487.721 166.228C487.721 168.989 485.482 171.228 482.721 171.228H457.456C454.695 171.228 452.456 168.989 452.456 166.228V141.022C452.456 138.26 454.695 136.022 457.456 136.022H482.721C485.482 136.022 487.721 138.26 487.721 141.022V166.228Z" fill="#D9D9D9"/>
<path d="M785.868 166.228C785.868 168.989 783.629 171.228 780.868 171.228H755.603C752.842 171.228 750.603 168.989 750.603 166.228V141.022C750.603 138.26 752.842 136.022 755.603 136.022H780.868C783.629 136.022 785.868 138.26 785.868 141.022V166.228Z" fill="#D9D9D9"/>
<path d="M388.338 463.875C388.338 466.637 386.1 468.875 383.338 468.875H358.073C355.312 468.875 353.073 466.637 353.073 463.875V438.67C353.073 435.908 355.312 433.67 358.073 433.67H383.338C386.1 433.67 388.338 435.908 388.338 438.67V463.875Z" fill="#D9D9D9"/>
<path d="M587.103 463.875C587.103 466.637 584.865 468.875 582.103 468.875H556.838C554.077 468.875 551.838 466.637 551.838 463.875V438.67C551.838 435.908 554.077 433.67 556.838 433.67H582.103C584.865 433.67 587.103 435.908 587.103 438.67V463.875Z" fill="#D9D9D9"/>
<path d="M487.721 463.875C487.721 466.637 485.482 468.875 482.721 468.875H457.456C454.695 468.875 452.456 466.637 452.456 463.875V438.67C452.456 435.908 454.695 433.67 457.456 433.67H482.721C485.482 433.67 487.721 435.908 487.721 438.67V463.875Z" fill="#D9D9D9"/>
<path d="M686.485 463.875C686.485 466.637 684.247 468.875 681.485 468.875H656.221C653.459 468.875 651.221 466.637 651.221 463.875V438.67C651.221 435.908 653.459 433.67 656.221 433.67H681.485C684.247 433.67 686.485 435.908 686.485 438.67V463.875Z" fill="#D9D9D9"/>
<path d="M785.868 463.875C785.868 466.637 783.629 468.875 780.868 468.875H755.603C752.842 468.875 750.603 466.637 750.603 463.875V438.67C750.603 435.908 752.842 433.67 755.603 433.67H780.868C783.629 433.67 785.868 435.908 785.868 438.67V463.875Z" fill="#D9D9D9"/>
<path d="M655.475 220.654C669.505 195.674 657.616 173.161 692.784 133.212C693.92 131.922 693.05 129.855 691.332 129.816C633.64 128.525 595.258 132.904 566.429 165.25C511.745 226.604 609.321 302.831 655.475 220.654Z" fill="url(#paint3_radial_172_66)"/>
<path d="M641.434 165.25C625.916 170.455 574.202 201.653 553.141 270.443" stroke="black" stroke-width="4" stroke-linecap="round"/>
<path fill-rule="evenodd" clip-rule="evenodd" d="M150.967 269.931L196.728 427.355L218.252 545.551H239.855L218.29 269.931H150.967Z" fill="#C8A087"/>
<path fill-rule="evenodd" clip-rule="evenodd" d="M130.402 269.931C133.595 351.712 132.336 396.317 131.621 403.748C130.906 411.178 126.849 460.94 99.2031 548.046H121.672C158.285 464.483 171.066 414.72 175.265 403.748C179.465 392.775 191.867 348.169 209.973 269.931H130.402Z" fill="#DCAE92"/>
<path fill-rule="evenodd" clip-rule="evenodd" d="M149.985 269.931C161.888 324.101 182.475 410.57 211.747 529.338H243.344C245.678 407.434 235.75 327.201 218.557 269.931H149.985Z" fill="#191847"/>
<path fill-rule="evenodd" clip-rule="evenodd" d="M130.242 269.931C133.369 351.712 125.265 432.282 100.161 530.612H133.874C170.554 448.296 196.843 368.124 214.811 269.931H130.242Z" fill="#2F3676"/>
<path fill-rule="evenodd" clip-rule="evenodd" d="M96.0005 564.259L97.2403 544.304C104.499 546.424 113.591 545.592 124.515 541.81C136.262 550.117 151.05 555.789 168.878 558.826L168.878 558.826C170.238 559.058 171.153 560.347 170.92 561.705C170.905 561.792 170.886 561.88 170.861 561.965L169.147 568H124.515H98.48L96.0005 564.259Z" fill="#191847"/>
<path fill-rule="evenodd" clip-rule="evenodd" d="M213.429 564.259L214.669 544.304C221.928 546.424 231.02 545.592 241.944 541.81C253.691 550.117 268.479 555.789 286.307 558.826L286.307 558.826C287.667 559.058 288.582 560.347 288.349 561.705C288.334 561.792 288.315 561.88 288.29 561.965L286.576 568H241.944H215.909L213.429 564.259Z" fill="#191847"/>
<path fill-rule="evenodd" clip-rule="evenodd" d="M172.671 123.353C166.914 116.608 163.018 108.341 163.669 99.0779C165.545 72.3883 202.76 78.2597 209.999 91.7303C217.239 105.201 216.378 139.37 207.022 141.778C203.291 142.738 195.343 140.386 187.253 135.518L192.331 171.381H162.349L172.671 123.353Z" fill="#DCAE92"/>
<path fill-rule="evenodd" clip-rule="evenodd" d="M188.752 102.026C189.9 117.986 192.936 125.966 197.86 125.966C205.247 125.966 211.513 121.284 214.755 121.284C217.117 121.284 216.59 124.236 215.024 126.424C213.732 128.23 207.439 129.97 207.439 132.769C207.439 135.568 212.411 133.403 212.411 135.063C212.411 137.809 213.284 142.972 208.51 142.972C203.679 142.972 189.826 141.214 187.452 134.056C185.92 129.435 184.929 119.862 184.48 105.335C184.187 105.3 183.889 105.282 183.586 105.282C179.447 105.282 176.091 108.632 176.091 112.765C176.091 114.863 176.956 116.759 178.349 118.118C176.615 120.562 174.671 123.115 172.444 125.749C164.076 120.737 157.867 106.066 166.048 91.9727C168.309 85.0684 173.428 81.3806 179.473 79.6682C184.37 77.6231 189.454 77.3925 193.745 78.6185C202.158 79.3389 209.669 81.8997 211.798 83.4205C211.798 91.3714 210.255 93.7304 197.074 93.5225C193.835 95.23 191.346 98.1705 188.752 102.026Z" fill="#541B05"/>
<path fill-rule="evenodd" clip-rule="evenodd" d="M259.06 149.662L306.411 135.471C315.244 128.606 323.576 123.587 331.406 120.413C333.684 119.985 337.454 120.234 332.743 125.569C328.031 130.905 323.316 136.729 324.661 138.966C326.006 141.203 330.907 139.517 332.326 143.061C333.272 145.423 325.151 147.115 307.965 148.137L271.149 169.768L259.06 149.662Z" fill="#DCAE92"/>
<path fill-rule="evenodd" clip-rule="evenodd" d="M132.316 288.917H228.508C206.719 222.576 195.588 177.043 195.116 152.319C195.092 151.058 192.76 148.837 191.729 149.128C184.184 151.255 176.111 150.46 167.51 146.742C144.706 183.357 136.82 228.436 132.316 288.917Z" fill="#F2F2F2"/>
<path fill-rule="evenodd" clip-rule="evenodd" d="M175.718 146.801C203.291 147.027 248.026 152.053 299.618 135.518L304.712 160.927C265.719 185.963 226.236 205.357 191.638 202.603C206.662 266.939 205.969 319.605 172.801 319.605C156.962 319.605 139.865 319.605 121.512 319.605C113.366 264.952 134.775 189.175 154.623 150.953C155.381 149.494 156.994 146.742 160.795 146.742C164.107 146.742 169.075 146.742 175.699 146.742C175.705 146.762 175.712 146.782 175.718 146.801Z" fill="#91E35B"/>
<defs>
<linearGradient id="paint0_linear_172_66" x1="427.5" y1="469.214" x2="42" y2="469.213" gradientUnits="userSpaceOnUse">
<stop/>
<stop offset="0.914663" stop-opacity="0"/>
</linearGradient>
<radialGradient id="paint1_radial_172_66" cx="0" cy="0" r="1" gradientUnits="userSpaceOnUse" gradientTransform="translate(858 69) rotate(137.203) scale(699.138 549.767)">
<stop stop-color="#91E35B"/>
<stop offset="1" stop-color="#FFFB7D"/>
</radialGradient>
<radialGradient id="paint2_radial_172_66" cx="0" cy="0" r="1" gradientUnits="userSpaceOnUse" gradientTransform="translate(313 35.2057) rotate(42.7003) scale(735.044 789.383)">
<stop/>
<stop offset="1" stop-opacity="0"/>
</radialGradient>
<radialGradient id="paint3_radial_172_66" cx="0" cy="0" r="1" gradientUnits="userSpaceOnUse" gradientTransform="translate(696 129.782) rotate(134.947) scale(200.297 174.037)">
<stop stop-color="#91E35B"/>
<stop offset="1" stop-color="#FFFB7D"/>
</radialGradient>
</defs>
</svg>
