<svg width="250" height="235" viewBox="0 0 250 235" fill="none" xmlns="http://www.w3.org/2000/svg">
<path d="M121.708 234.383C115.208 234.383 108.708 234.383 102.708 231.383C116.436 214.489 116.951 192.488 98.2081 164.883H104.708L111.653 175.301C111.69 175.356 111.731 175.408 111.78 175.452C112.167 175.802 112.554 175.852 112.942 175.602C113.13 175.481 113.223 175.261 113.25 175.038C113.916 169.602 114.459 166.959 116.208 164.883H121.708H145.708C145.708 172.383 151.708 217.383 140.708 231.383C139.208 233.292 133.208 233.883 121.708 234.383Z" fill="#E69055"/>
<path d="M120.708 65.8832V1.38318C111.708 1.38318 106.208 1.88318 98.7081 3.38318C99.111 33.9878 103.68 48.6516 120.708 65.8832Z" fill="#DEE358"/>
<path d="M18.7081 58.3832C33.8121 37.5694 43.148 27.9844 62.7081 17.8832C59.4365 39.9541 64.0957 54.8418 82.7081 85.3832C52.0162 82.5619 37.679 77.0906 18.7081 58.3832Z" fill="#88DE50"/>
<path d="M50.7081 113.883C34.1888 106.001 23.4216 103.755 1.70812 103.383C-0.457344 116.87 -0.291872 136.383 0.708128 140.883C1.70813 145.383 6.20813 157.383 17.2081 157.383H34.7081C28.2081 139.883 32.6429 124.384 50.7081 113.883Z" fill="#198E55"/>
<path d="M59.7257 120.022C41.3108 121.777 33.2316 139.83 43.2082 157.883H96.7081C88.3919 139.062 73.1788 124.839 65.4917 120.916C63.7255 120.015 61.6997 119.834 59.7257 120.022Z" fill="#198E55"/>
<path d="M3.70813 96.3832C6.19092 82.8685 8.46481 75.9104 15.2081 65.3832C36.7895 85.093 57.6426 90.2461 87.4888 93.2616C88.2664 93.3402 88.9875 93.713 89.4887 94.3128C102.836 110.286 118.747 133.363 120.708 157.883H103.708C89.7081 119.883 56.2081 99.3832 3.70813 96.3832Z" fill="#88DE50"/>
<path d="M244.838 2.54373C258.001 120.412 250.773 149.384 147.208 157.883C147.208 157.883 150.208 126.883 143.708 106.383C137.208 85.8832 120.708 65.8832 120.708 65.8832L120.208 1.3832C121.793 1.38835 130.345 2.53633 131.208 2.8832C188.623 25.9473 224.633 -5.77359 243.648 0.959588C244.316 1.19598 244.759 1.83988 244.838 2.54373Z" fill="#DEE358"/>
<path d="M69.7082 13.8832C73.2082 10.8832 85.7082 5.88318 92.2082 5.38318C91.374 25.8201 93.3232 52.5195 109.664 71.2608C116.339 78.9163 124.346 85.6374 128.778 94.7764C138.479 114.779 142.647 137.157 140.208 157.883H127.708C127.708 136.383 112.708 110.383 92.2082 87.1807C76.7082 66.3832 63.813 43.0315 69.7082 13.8832Z" fill="#B5D556"/>
</svg>
