<svg width="30" height="30" viewBox="0 0 30 30" fill="none" xmlns="http://www.w3.org/2000/svg">
<path d="M2.5 30C1.83333 30 1.25 29.775 0.75 29.325C0.25 28.875 0 28.35 0 27.75V4.5C0 3.9 0.25 3.375 0.75 2.925C1.25 2.475 1.83333 2.25 2.5 2.25H5.20833V1.2C5.20833 0.85 5.33333 0.5625 5.58333 0.3375C5.83333 0.1125 6.15278 0 6.54167 0C6.93056 0 7.25694 0.1125 7.52083 0.3375C7.78472 0.5625 7.91667 0.85 7.91667 1.2V2.25H22.0833V1.2C22.0833 0.85 22.2083 0.5625 22.4583 0.3375C22.7083 0.1125 23.0278 0 23.4167 0C23.8056 0 24.1319 0.1125 24.3958 0.3375C24.6597 0.5625 24.7917 0.85 24.7917 1.2V2.25H27.5C28.1667 2.25 28.75 2.475 29.25 2.925C29.75 3.375 30 3.9 30 4.5V27.75C30 28.35 29.75 28.875 29.25 29.325C28.75 29.775 28.1667 30 27.5 30H2.5ZM2.5 27.75H27.5V11.625H2.5V27.75ZM2.5 9.375H27.5V4.5H2.5V9.375Z" fill="#91E35B"/>
<path d="M17.3 23.7001C18 24.4001 18.8625 24.7501 19.8875 24.7501C20.9125 24.7501 21.775 24.4001 22.475 23.7001C23.175 23.0001 23.525 22.1376 23.525 21.1126C23.525 20.0876 23.175 19.2251 22.475 18.5251C21.775 17.8251 20.9125 17.4751 19.8875 17.4751C18.8625 17.4751 18 17.8251 17.3 18.5251C16.6 19.2251 16.25 20.0876 16.25 21.1126C16.25 22.1376 16.6 23.0001 17.3 23.7001Z" fill="#91E35B"/>
</svg>
