<svg width="400" height="400" viewBox="0 0 400 400" fill="none" xmlns="http://www.w3.org/2000/svg">
<path d="M200 400C89.4492 400 0 310.418 0 200C0 89.4492 89.5819 0 200 0C310.551 0 400 89.5819 400 200C400.133 310.551 310.551 400 200 400Z" fill="url(#paint0_radial_211_84)"/>
<mask id="mask0_211_84" style="mask-type:alpha" maskUnits="userSpaceOnUse" x="0" y="0" width="400" height="400">
<path d="M200 400C89.4492 400 0 310.418 0 200C0 89.4492 89.5819 0 200 0C310.551 0 400 89.5819 400 200C400.133 310.551 310.551 400 200 400Z" fill="#F7C0B5"/>
</mask>
<g mask="url(#mask0_211_84)">
<path d="M312.532 368.41C311.599 369.077 310.532 369.743 309.599 370.41C308.532 371.077 307.599 371.743 306.532 372.277C305.599 372.81 304.799 373.343 303.866 373.877C303.732 374.01 303.599 374.01 303.466 374.143C300.399 376.01 297.199 377.743 293.999 379.343C293.066 379.877 291.999 380.41 291.066 380.81C291.066 380.81 290.932 380.943 290.799 380.943C289.732 381.477 288.666 382.01 287.599 382.543C285.466 383.61 283.199 384.543 281.066 385.477C279.999 386.01 278.799 386.41 277.732 386.81C276.666 387.21 275.466 387.743 274.399 388.143C273.332 388.543 272.132 389.077 271.066 389.477C271.066 389.477 271.066 389.477 270.932 389.477C269.866 389.877 268.666 390.277 267.599 390.677C265.199 391.477 262.666 392.277 260.266 393.077C259.466 393.343 258.532 393.61 257.732 393.877C255.199 394.677 252.666 395.343 250.132 395.877C249.199 396.143 248.266 396.277 247.199 396.543C244.799 397.077 242.266 397.61 239.866 398.143C239.332 398.277 238.932 398.277 238.399 398.41C237.599 398.543 236.666 398.677 235.866 398.81C234.666 398.943 233.599 399.21 232.399 399.343C231.866 399.477 231.332 399.477 230.799 399.61C230.132 399.743 229.332 399.877 228.532 399.877C226.399 400.143 224.132 400.41 221.999 400.677C221.332 400.81 220.532 400.81 219.866 400.943H219.732C218.799 401.077 217.866 401.077 216.932 401.21C215.999 401.343 215.066 401.343 214.132 401.343C213.599 401.343 212.932 401.477 212.399 401.477C211.332 401.477 210.399 401.61 209.466 401.61C208.132 401.61 206.932 401.743 205.599 401.743C204.266 401.743 203.066 401.743 201.732 401.743C200.799 401.743 199.866 401.743 198.932 401.743C142.799 400.943 92.1324 377.077 56.1324 339.21C56.1324 339.21 56.1324 339.077 55.999 339.077C60.1324 330.943 75.4657 316.277 91.4657 304.143C111.732 288.81 140.399 279.343 140.399 279.343C140.399 279.343 159.199 276.277 228.932 290.81C282.132 302.01 304.799 347.477 312.532 368.41Z" fill="#FEE4BF"/>
<path d="M243.732 327.743C240.932 341.476 222.799 349.61 192.266 337.343C154.799 322.143 140.399 279.343 140.399 279.343C138.399 248.676 133.732 222.41 133.732 222.41C177.066 218.676 228.266 269.343 228.266 269.343L234.132 294.41C234.666 296.543 235.732 298.41 237.332 299.743C240.132 304.543 245.599 318.943 243.732 327.743Z" fill="#FEE4BF"/>
<path d="M237.333 299.876C211.866 298.543 193.066 294.81 172.933 258.676C189.999 273.743 210.133 279.476 231.333 282.143L234.133 294.41C234.666 296.676 235.733 298.543 237.333 299.876Z" fill="#EFBDA5"/>
<path d="M289.999 139.21C292.399 150.41 293.599 159.476 287.066 189.343C280.532 219.21 293.066 249.076 261.599 276.41C240.399 294.81 203.332 298.276 173.732 278.143C163.732 271.343 154.532 261.876 147.066 249.476C141.199 239.743 134.399 230.543 126.799 222.143C116.266 210.676 103.599 187.61 109.866 146.81C119.999 80.4098 185.732 72.8098 224.532 80.1431C263.332 87.4764 283.466 109.61 289.999 139.21Z" fill="#FEE4BF"/>
<path d="M162.399 191.343C162.399 191.343 158.266 171.343 138.799 173.743C121.999 175.876 116.133 216.143 154.266 227.343" fill="#FEE4BF"/>
<path d="M153.066 209.077C153.066 209.077 148.266 206.01 148.799 200.677C149.599 194.41 148.799 190.543 145.866 189.343C138.533 186.277 137.066 194.81 137.333 195.877" stroke="#423232" stroke-width="4" stroke-miterlimit="10" stroke-linecap="round" stroke-linejoin="round"/>
<path d="M254.799 222.01C254.799 222.01 259.866 222.276 264.666 216.543C267.333 213.343 269.599 209.343 268.133 208.143C266.666 206.81 242.533 210.543 240.933 213.743C239.333 216.943 248.666 222.01 254.799 222.01Z" fill="#EFBDA5"/>
<path d="M258.799 177.21C258.799 177.21 259.066 189.877 267.199 204.01C270.799 210.277 265.332 220.543 253.466 222.277" stroke="#423232" stroke-width="4" stroke-miterlimit="10" stroke-linecap="round" stroke-linejoin="round"/>
<path d="M356.593 450.919H19.5269C19.5269 450.919 21.5269 389.053 41.7935 344.919C57.1269 311.586 93.2602 293.053 120.194 283.453C127.794 280.786 134.727 278.786 140.06 277.319C140.06 277.986 140.194 278.519 140.194 279.186C140.194 279.186 154.594 321.986 192.06 337.186C222.594 349.586 240.727 341.319 243.527 327.586C245.26 318.786 239.794 304.386 236.994 299.719C235.394 298.386 234.327 296.386 233.794 294.386L232.727 289.986C235.26 289.453 237.66 288.786 240.06 287.986C240.86 287.719 241.527 287.453 242.327 287.186C259.527 291.719 285.393 302.519 315.927 328.119C350.46 356.919 356.593 450.919 356.593 450.919Z" fill="#656565"/>
<path d="M180.46 351.052C134.46 330.386 116.593 293.453 120.06 283.453C120.06 283.453 120.06 283.319 120.193 283.186C122.593 278.252 126.46 274.253 131.26 271.453C133.927 269.853 136.86 268.386 139.26 267.586C139.393 269.452 139.927 275.319 140.06 277.319C140.06 277.986 140.193 278.519 140.193 279.186C140.193 279.186 148.727 311.052 186.193 326.252C216.727 338.652 235.66 330.519 237.66 316.653C239.927 301.319 231.26 290.252 231.26 290.252C233.793 289.719 237.793 288.786 240.193 287.986C246.06 295.053 252.06 302.119 254.327 320.786C257.527 347.586 228.06 372.519 180.46 351.052Z" fill="white"/>
<path d="M85.5269 450.919L79.5269 401.453" stroke="#544D4D" stroke-width="4" stroke-miterlimit="10" stroke-linecap="round" stroke-linejoin="round"/>
<path d="M318.327 384.653C318.327 384.653 314.327 394.386 315.527 404.119C316.727 413.853 320.194 428.119 315.26 450.919" stroke="#544D4D" stroke-width="4" stroke-miterlimit="10" stroke-linecap="round" stroke-linejoin="round"/>
<path d="M215.296 181.615C215.296 181.749 215.296 181.882 215.296 181.882L215.162 185.615C215.029 188.815 212.362 191.215 209.162 191.082C205.962 190.949 203.562 188.149 203.829 185.082L203.962 181.349C203.962 180.682 204.229 179.882 204.496 179.349L215.162 179.882C215.162 180.415 215.296 180.949 215.296 181.615Z" fill="#423232"/>
<path d="M271.028 184.549L270.895 188.015C270.762 190.949 268.228 193.215 265.295 193.082C262.362 192.949 260.095 190.415 260.228 187.482L260.362 184.015C260.362 183.349 260.495 182.682 260.762 182.149L270.762 182.549C271.028 183.215 271.028 183.882 271.028 184.549Z" fill="#423232"/>
<path d="M228.628 163.348C231.561 163.748 233.828 160.682 232.761 157.748C232.228 156.148 231.295 154.682 229.828 153.748C225.295 150.948 208.361 150.682 199.428 157.082C191.561 162.948 215.295 161.482 228.628 163.348Z" fill="#423232"/>
<path d="M265.561 164.815C263.161 164.815 261.695 161.748 262.895 159.215C263.561 157.882 264.495 156.682 265.828 156.015C269.961 154.015 281.028 155.215 285.961 162.015C290.361 168.015 276.628 164.682 265.561 164.815Z" fill="#423232"/>
<path d="M223.961 180.148L215.028 179.748L204.361 179.348L201.961 179.215" stroke="#423232" stroke-width="4" stroke-miterlimit="10" stroke-linecap="round" stroke-linejoin="round"/>
<path d="M276.628 182.815L270.761 182.549L260.761 182.149H260.361" stroke="#423232" stroke-width="4" stroke-miterlimit="10" stroke-linecap="round" stroke-linejoin="round"/>
<path d="M291.461 137.023C291.061 135.023 290.528 132.889 289.861 130.889C289.195 128.889 287.595 127.156 285.461 126.756C278.528 125.556 271.861 113.556 262.261 112.223C231.728 108.089 211.328 110.623 182.661 121.823C153.061 133.289 184.795 174.756 163.595 188.356C162.528 184.623 157.328 169.423 140.261 171.556C124.128 173.556 117.995 210.889 151.328 223.689C136.795 247.423 137.861 237.956 127.195 225.156C116.528 212.356 95.1947 179.156 109.595 130.623C123.995 82.0893 189.195 56.7559 249.861 81.4226C260.261 85.6893 266.528 96.2226 275.595 97.9559C359.995 114.089 293.461 146.623 291.461 137.023Z" fill="#423232"/>
<path d="M209.461 111.823C209.461 111.823 198.128 108.489 191.328 126.223C184.528 143.956 160.795 168.356 141.061 139.956C121.328 111.689 150.928 89.0225 181.728 98.2225C212.528 107.423 209.061 100.489 209.461 111.823Z" fill="#423232"/>
<path d="M229.061 98.8893C229.061 98.8893 259.061 117.956 278.795 110.489C291.195 105.823 305.195 88.6227 295.461 75.8226C283.861 60.4893 247.995 72.0893 227.995 65.6893C197.995 56.0893 151.461 49.6893 129.595 85.6893C124.128 94.756 119.195 103.956 111.461 111.156C103.461 118.623 95.4615 130.756 94.7948 149.689C93.5948 187.423 123.195 220.223 123.195 220.223C123.195 220.223 105.595 155.689 138.795 146.089C171.995 136.489 181.195 103.289 203.195 103.289C225.195 103.289 214.928 78.4893 229.061 98.8893Z" fill="#423232"/>
<path d="M258.261 115.823C258.261 115.823 282.395 145.956 300.528 144.223C318.661 142.489 339.061 103.556 289.195 90.2228C239.328 76.8895 258.261 115.823 258.261 115.823Z" fill="#423232"/>
<path d="M209.461 111.823C209.461 111.823 225.328 151.023 267.461 155.689C309.728 160.489 326.795 83.1561 262.261 75.8227C197.728 68.4894 209.461 111.823 209.461 111.823Z" fill="#423232"/>
<path d="M175.728 93.4227C175.728 93.4227 185.595 138.223 206.395 140.223C227.195 142.223 221.595 84.356 194.395 80.356C167.195 76.356 175.728 93.4227 175.728 93.4227Z" fill="#423232"/>
<path d="M270.098 202.558C266.498 198.158 261.831 195.091 256.231 194.958C250.365 194.825 241.165 196.158 231.965 203.491C219.965 213.091 195.965 211.625 186.498 210.691C183.831 210.425 181.298 211.758 180.098 214.158C177.431 219.491 173.831 230.558 175.565 248.425C177.831 272.825 197.698 294.958 225.698 293.091C262.498 290.825 283.965 261.225 285.298 221.625C285.031 210.691 278.498 212.958 270.098 202.558Z" fill="white"/>
<path d="M220.898 210.692C220.898 210.692 277.031 236.025 281.831 217.625" stroke="#EDF3F4" stroke-width="4" stroke-miterlimit="10" stroke-linecap="round" stroke-linejoin="round"/>
<path d="M198.231 228.825C198.231 228.825 254.898 261.225 280.365 243.625" stroke="#EDF3F4" stroke-width="4" stroke-miterlimit="10" stroke-linecap="round" stroke-linejoin="round"/>
<path d="M196.231 251.758C196.231 251.758 225.431 278.025 267.431 268.558" stroke="#EDF3F4" stroke-width="4" stroke-miterlimit="10" stroke-linecap="round" stroke-linejoin="round"/>
<path d="M203.965 212.958C203.965 212.958 198.365 220.692 196.098 241.092C193.431 265.625 205.031 286.025 205.031 286.025" stroke="#EDF3F4" stroke-width="4" stroke-miterlimit="10" stroke-linecap="round" stroke-linejoin="round"/>
<path d="M185.431 214.025C185.431 214.025 170.098 203.358 159.298 184.958" stroke="white" stroke-width="4" stroke-miterlimit="10" stroke-linecap="round" stroke-linejoin="round"/>
<path d="M151.431 226.425C154.498 236.425 162.098 252.692 181.298 267.358" stroke="white" stroke-width="4" stroke-miterlimit="10" stroke-linecap="round" stroke-linejoin="round"/>
</g>
<defs>
<radialGradient id="paint0_radial_211_84" cx="0" cy="0" r="1" gradientUnits="userSpaceOnUse" gradientTransform="translate(200 200) rotate(90) scale(200 508.053)">
<stop stop-color="#91E35B"/>
<stop offset="1" stop-color="#FFFB7D"/>
</radialGradient>
</defs>
</svg>
