<svg width="400" height="400" viewBox="0 0 400 400" fill="none" xmlns="http://www.w3.org/2000/svg">
<path d="M200 400C89.4492 400 0 310.418 0 200C0 89.4492 89.5819 0 200 0C310.551 0 400 89.5819 400 200C400.133 310.551 310.551 400 200 400Z" fill="url(#paint0_radial_211_274)"/>
<mask id="mask0_211_274" style="mask-type:alpha" maskUnits="userSpaceOnUse" x="0" y="0" width="400" height="400">
<path d="M200 400C89.4492 400 0 310.418 0 200C0 89.4492 89.5819 0 200 0C310.551 0 400 89.5819 400 200C400.133 310.551 310.551 400 200 400Z" fill="#F7C0B5"/>
</mask>
<g mask="url(#mask0_211_274)">
<path d="M312 368.41C311.067 369.077 310 369.743 309.067 370.41C308 371.077 307.067 371.743 306 372.277C305.067 372.81 304.267 373.343 303.333 373.877C303.2 374.01 303.067 374.01 302.933 374.143C299.867 376.01 296.667 377.743 293.467 379.343C292.533 379.877 291.467 380.41 290.533 380.81C290.533 380.81 290.4 380.943 290.267 380.943C289.2 381.477 288.133 382.01 287.067 382.543C284.933 383.61 282.667 384.543 280.533 385.477C279.467 386.01 278.267 386.41 277.2 386.81C276.133 387.21 274.933 387.743 273.867 388.143C272.8 388.543 271.6 389.077 270.533 389.477C270.533 389.477 270.533 389.477 270.4 389.477C269.333 389.877 268.133 390.277 267.067 390.677C264.667 391.477 262.133 392.277 259.733 393.077C258.933 393.343 258 393.61 257.2 393.877C254.667 394.677 252.133 395.343 249.6 395.877C248.667 396.143 247.733 396.277 246.667 396.543C244.267 397.077 241.733 397.61 239.333 398.143C238.8 398.277 238.4 398.277 237.867 398.41C237.067 398.543 236.133 398.677 235.333 398.81C234.133 398.943 233.067 399.21 231.867 399.343C231.333 399.477 230.8 399.477 230.267 399.61C229.6 399.743 228.8 399.877 228 399.877C225.867 400.143 223.6 400.41 221.467 400.677C220.8 400.81 220 400.81 219.333 400.943H219.2C218.267 401.077 217.333 401.077 216.4 401.21C215.467 401.343 214.533 401.343 213.6 401.343C213.067 401.343 212.4 401.477 211.867 401.477C210.8 401.477 209.867 401.61 208.933 401.61C207.6 401.61 206.4 401.743 205.067 401.743C203.733 401.743 202.533 401.743 201.2 401.743C200.267 401.743 199.333 401.743 198.4 401.743C142.267 400.943 91.6001 377.077 55.6001 339.21C55.6001 339.21 55.6001 339.077 55.4668 339.077C59.6001 330.943 74.9335 316.277 90.9335 304.143C111.2 288.81 139.867 279.343 139.867 279.343C139.867 279.343 158.667 276.277 228.4 290.81C281.6 302.01 304.267 347.477 312 368.41Z" fill="#F7D3B5"/>
<path d="M243.2 327.743C240.4 341.476 222.267 349.61 191.734 337.343C154.267 322.143 139.867 279.343 139.867 279.343C137.867 248.676 133.2 222.41 133.2 222.41C176.534 218.676 227.734 269.343 227.734 269.343L233.6 294.41C234.134 296.543 235.2 298.41 236.8 299.743C239.6 304.543 245.067 318.943 243.2 327.743Z" fill="#F7D3B5"/>
<path d="M236.8 299.876C211.333 298.543 192.533 294.81 172.4 258.676C189.467 273.743 209.6 279.476 230.8 282.143L233.6 294.41C234.133 296.676 235.2 298.543 236.8 299.876Z" fill="#EFBDA5"/>
<path d="M289.467 139.21C291.867 150.41 293.067 159.476 286.533 189.343C280 219.21 292.533 249.076 261.067 276.41C239.867 294.81 202.8 298.276 173.2 278.143C163.2 271.343 154 261.876 146.533 249.476C140.667 239.743 133.867 230.543 126.267 222.143C115.733 210.676 103.067 187.61 109.333 146.81C119.467 80.4098 185.2 72.8098 224 80.1431C262.8 87.4764 282.933 109.61 289.467 139.21Z" fill="#F7D3B5"/>
<path d="M161.867 191.343C161.867 191.343 157.733 171.343 138.267 173.743C121.467 175.876 115.6 216.143 153.733 227.343" fill="#F7D3B5"/>
<path d="M152.533 209.077C152.533 209.077 147.733 206.01 148.267 200.677C149.067 194.41 148.267 190.543 145.333 189.343C138 186.277 136.533 194.81 136.8 195.877" stroke="#423232" stroke-width="4" stroke-miterlimit="10" stroke-linecap="round" stroke-linejoin="round"/>
<path d="M254.267 222.01C254.267 222.01 259.333 222.276 264.133 216.543C266.8 213.343 269.067 209.343 267.6 208.143C266.133 206.81 242 210.543 240.4 213.743C238.8 216.943 248.133 222.01 254.267 222.01Z" fill="#EFBDA5"/>
<path d="M258.266 177.21C258.266 177.21 258.533 189.877 266.666 204.01C270.266 210.277 264.8 220.543 252.933 222.277" stroke="#423232" stroke-width="4" stroke-miterlimit="10" stroke-linecap="round" stroke-linejoin="round"/>
<path d="M278.533 316.933C268.4 307.733 255.067 296.933 233.467 291.333C209.6 285.067 197.2 298.533 178.133 296.667C167.867 295.6 151.067 275.6 139.733 278.533C125.733 282.267 110.267 289.733 91.6001 302.667C87.6001 305.467 53.3334 328.4 41.4667 365.867C30.6667 399.733 28.0001 446.4 27.7334 461.867H331.467C331.6 366.133 289.067 326.533 278.533 316.933Z" fill="#FFC3A6"/>
<path d="M135.333 294.267C135.333 294.267 132.8 272.133 135.067 265.067C135.333 264.133 138.133 262.533 138.133 262.533C138.133 262.533 138.133 274.933 168.133 283.467C199.733 292.4 234.933 289.733 241.467 286.933C241.467 286.933 241.6 305.333 238.133 312.267C232.8 322.933 190.4 320.667 164.667 311.867C142.133 304.133 135.333 294.267 135.333 294.267Z" fill="#FFC3A6"/>
<g opacity="0.25">
<g opacity="0.25">
<g opacity="0.25">
<g opacity="0.25">
<path opacity="0.25" d="M11.2002 311.067C38.2669 296.133 34.6669 311.6 74.0002 304C90.8002 300.8 109.734 286.133 133.867 285.067C152.267 284.267 172.667 296.533 195.334 298.133C214.267 299.467 236.134 289.733 258 293.333C277.067 296.4 294.667 312.4 316 317.6" stroke="#6D5F5E" stroke-width="21.7052" stroke-miterlimit="10" stroke-linecap="round" stroke-linejoin="round"/>
</g>
<g opacity="0.25">
<path opacity="0.25" d="M11.7334 326.267C40.9334 314.133 36.2667 329.467 76.2667 322.933C93.7334 320.133 113.467 305.333 137.867 304.267C156.933 303.467 177.867 315.867 200.933 317.067C220.533 318.133 242.667 307.6 264.933 310.667C284.667 313.333 303.2 329.333 324.933 334" stroke="#6D5F5E" stroke-width="21.7052" stroke-miterlimit="10" stroke-linecap="round" stroke-linejoin="round"/>
</g>
<g opacity="0.25">
<path opacity="0.25" d="M12.2671 341.467C43.2004 331.867 37.6004 346.933 78.4004 341.6C96.4004 339.2 116.934 324.4 141.734 323.333C161.334 322.533 183.067 335.2 206.4 336.133C226.667 336.933 249.067 325.6 271.867 328.133C292.267 330.4 311.734 346.267 334 350.267" stroke="#6D5F5E" stroke-width="21.7052" stroke-miterlimit="10" stroke-linecap="round" stroke-linejoin="round"/>
</g>
<g opacity="0.25">
<path opacity="0.25" d="M12.8003 356.667C45.2003 349.467 38.9336 364.267 80.5336 360C99.2003 358 120.534 343.2 145.734 342.267C166 341.467 188.267 354.533 212.134 355.067C233.067 355.6 255.867 343.6 279.067 345.6C300.267 347.467 320.667 363.067 343.334 366.533" stroke="#6D5F5E" stroke-width="21.7052" stroke-miterlimit="10" stroke-linecap="round" stroke-linejoin="round"/>
</g>
<g opacity="0.25">
<path opacity="0.25" d="M13.2002 372C46.8002 366.8 40.0002 381.6 82.2669 378.267C101.6 376.8 123.734 361.867 149.334 361.067C170.267 360.4 193.2 373.733 217.334 374.133C238.934 374.4 262.134 361.733 285.734 363.2C307.6 364.533 329.067 380 352.267 382.667" stroke="#6D5F5E" stroke-width="21.7052" stroke-miterlimit="10" stroke-linecap="round" stroke-linejoin="round"/>
</g>
<g opacity="0.25">
<path opacity="0.25" d="M13.4668 387.333C48.1335 384 40.9335 398.667 83.8668 396.4C103.867 395.333 126.8 380.533 152.933 380C174.533 379.467 198 393.2 222.667 393.333C244.933 393.467 268.667 380 292.533 381.067C315.333 382 337.733 397.2 361.2 398.933" stroke="#6D5F5E" stroke-width="21.7052" stroke-miterlimit="10" stroke-linecap="round" stroke-linejoin="round"/>
</g>
<g opacity="0.25">
<path opacity="0.25" d="M13.8667 402.8C49.4667 401.2 41.8667 415.733 85.7334 414.533C106.267 414 130.133 399.2 156.8 398.8C179.067 398.533 203.2 412.533 228.267 412.533C251.333 412.533 275.467 398.533 299.733 398.933C323.333 399.333 346.8 414.266 370.667 415.2" stroke="#6D5F5E" stroke-width="21.7052" stroke-miterlimit="10" stroke-linecap="round" stroke-linejoin="round"/>
</g>
</g>
</g>
</g>
<path d="M97.0668 300C102.267 305.867 123.6 331.333 131.2 360.133L148.4 362.933C148.4 362.933 130 317.067 104.667 294.667C103.6 293.733 102 293.6 100.667 294.133C99.6001 294.667 98.2668 295.6 97.0668 297.2C96.2668 298.133 96.4001 299.333 97.0668 300Z" fill="#423232"/>
<path d="M259.867 354.133C259.867 354.133 262.134 319.733 244.934 295.467C244.934 295.467 246 294.4 252 297.333C256.267 299.333 268.8 316.533 270 351.333C270.134 351.333 261.334 354.267 259.867 354.133Z" fill="#423232"/>
<path d="M127.2 336.267C127.2 336.267 225.734 362.533 268.267 333.467C268.267 333.467 290.4 377.067 299.067 461.867H109.2C109.2 461.867 124.667 441.467 127.2 336.267Z" fill="#423232"/>
<path d="M145.2 368.8C148.735 368.8 151.6 365.935 151.6 362.4C151.6 358.866 148.735 356 145.2 356C141.666 356 138.8 358.866 138.8 362.4C138.8 365.935 141.666 368.8 145.2 368.8Z" fill="white"/>
<path d="M263.6 358.667C266.693 358.667 269.2 356.159 269.2 353.067C269.2 349.974 266.693 347.467 263.6 347.467C260.507 347.467 258 349.974 258 353.067C258 356.159 260.507 358.667 263.6 358.667Z" fill="white"/>
<path d="M228.628 162.015C231.561 162.415 233.828 159.348 232.761 156.415C232.228 154.815 231.295 153.348 229.828 152.415C225.295 149.615 208.361 149.348 199.428 155.748C191.561 161.615 215.295 160.148 228.628 162.015Z" fill="#423232"/>
<path d="M265.561 163.482C263.161 163.482 261.695 160.415 262.895 157.882C263.561 156.549 264.495 155.349 265.828 154.682C269.961 152.682 281.028 153.882 285.961 160.682C290.361 166.682 276.628 163.349 265.561 163.482Z" fill="#423232"/>
<path d="M223.961 178.815C213.561 183.215 201.961 177.748 201.961 177.748" stroke="#423232" stroke-width="4" stroke-miterlimit="10" stroke-linecap="round" stroke-linejoin="round"/>
<path d="M276.628 181.482C276.628 181.482 269.428 185.882 260.362 180.682" stroke="#423232" stroke-width="4" stroke-miterlimit="10" stroke-linecap="round" stroke-linejoin="round"/>
<path d="M323.826 287.72C316.359 271.186 310.626 273.453 315.826 258.52C321.026 243.72 314.359 233.186 300.626 219.186C287.559 205.853 286.226 191.32 286.626 189.186C285.426 194.786 284.893 200.52 284.626 206.12C284.226 213.586 284.359 220.92 283.826 228.253C282.759 244.653 278.893 260.786 261.293 275.986C253.559 282.653 243.693 287.453 232.759 289.72C229.826 298.653 234.226 305.053 243.826 306.12C253.426 307.186 257.426 321.586 279.159 328.386C311.692 338.92 331.292 304.253 323.826 287.72Z" fill="#423232"/>
<path d="M263.026 126.386C265.826 127.853 268.226 126.52 269.692 123.586C285.159 121.186 288.759 152.12 289.292 153.986C289.826 155.986 290.092 161.586 289.026 176.92C288.359 185.453 337.959 124.92 292.626 99.3198C295.959 94.3865 293.559 69.8531 265.692 63.8531C255.692 61.7198 242.626 71.0531 226.226 67.4531C162.092 53.1865 95.5592 66.7865 100.759 151.453C101.959 169.986 71.6925 203.32 71.6925 203.32C35.1592 218.786 37.0258 259.186 62.7591 267.453C73.4258 270.92 38.2258 294.92 58.7591 316.253C69.4258 327.453 88.4925 304.786 107.826 317.053C137.026 335.586 151.559 327.186 157.292 319.853C169.026 304.92 154.492 274.92 154.492 274.92C154.492 274.92 160.226 265.72 162.092 260.786C171.159 236.52 149.559 225.586 149.559 225.586C116.226 212.786 122.226 175.586 138.492 173.453C155.559 171.32 160.892 186.52 161.826 190.253C161.826 190.253 176.892 211.053 205.959 163.586C234.759 116.12 250.492 119.586 263.026 126.386Z" fill="#423232"/>
<path d="M146.818 195.731C146.818 195.731 136.151 194.131 136.951 209.064C137.351 216.664 137.351 220.798 137.218 222.931C137.084 224.398 138.018 225.731 139.351 226.264C140.951 226.931 142.684 226.264 143.484 224.664C144.684 222.531 146.018 219.598 146.018 217.198C146.018 213.198 150.284 209.598 150.284 209.598C150.284 209.598 146.418 206.264 146.818 195.731Z" fill="white"/>
<path d="M179.085 452.798C178.018 451.598 136.151 379.998 142.418 353.064C146.685 334.531 141.085 313.198 136.151 294.398C134.151 286.664 132.285 279.465 131.218 273.065C129.351 261.998 130.685 251.465 135.218 241.731C140.151 230.798 139.351 221.331 139.351 221.198L142.018 220.931C142.018 221.331 142.818 231.331 137.618 242.798C133.351 251.998 132.151 262.131 133.885 272.665C134.951 278.931 136.818 286.131 138.818 293.865C143.885 312.931 149.485 334.665 145.085 353.865C139.218 379.465 180.951 451.065 181.218 451.331L179.085 452.798Z" fill="white"/>
<path d="M137.352 216.798C137.485 219.731 137.352 221.731 137.352 222.931C137.218 224.398 138.152 225.731 139.485 226.264C141.085 226.931 142.818 226.264 143.618 224.664C144.818 222.531 146.152 219.598 146.152 217.198C146.152 217.064 146.152 216.798 146.152 216.664C143.352 217.731 140.152 218.531 137.352 216.798Z" fill="#E5E5E5"/>
<path d="M262.818 305.464C261.884 311.598 261.751 321.331 261.484 332.664C261.084 354.531 248.151 439.731 241.884 453.198L239.484 452.131C245.484 439.064 258.418 354.264 258.818 332.664C259.084 321.331 259.218 311.464 260.151 305.064C262.151 291.598 260.684 281.464 259.884 277.198C260.284 276.798 260.684 276.531 261.084 276.131C261.484 275.864 261.751 275.464 262.151 275.198C262.951 278.664 265.218 289.731 262.818 305.464Z" fill="white"/>
<path d="M243 237.217C235.493 241.873 222.19 236.806 216 229" stroke="#423232" stroke-width="4" stroke-miterlimit="10" stroke-linecap="round" stroke-linejoin="round"/>
</g>
<defs>
<radialGradient id="paint0_radial_211_274" cx="0" cy="0" r="1" gradientUnits="userSpaceOnUse" gradientTransform="translate(179.077 66.7692) rotate(86.4072) scale(333.887 333.887)">
<stop stop-color="#FFFB7D"/>
<stop offset="1" stop-color="#91E35B"/>
</radialGradient>
</defs>
</svg>
