<svg width="30" height="30" viewBox="0 0 30 30" fill="none" xmlns="http://www.w3.org/2000/svg">
<path d="M19.725 21.4125C19.95 21.6375 20.2125 21.75 20.5125 21.75C20.8125 21.75 21.0875 21.625 21.3375 21.375C21.5875 21.125 21.7187 20.8375 21.7312 20.5125C21.7437 20.1875 21.625 19.9125 21.375 19.6875L16.2375 14.55V8.1C16.2375 7.8 16.1313 7.54375 15.9188 7.33125C15.7063 7.11875 15.4375 7.0125 15.1125 7.0125C14.7875 7.0125 14.5188 7.11875 14.3063 7.33125C14.0938 7.54375 13.9875 7.8125 13.9875 8.1375V15C13.9875 15.15 14.0125 15.2875 14.0625 15.4125C14.1125 15.5375 14.1875 15.6625 14.2875 15.7875L19.725 21.4125ZM15 30C12.95 30 11.0125 29.6062 9.1875 28.8187C7.3625 28.0312 5.76875 26.9562 4.40625 25.5938C3.04375 24.2313 1.96875 22.6375 1.18125 20.8125C0.39375 18.9875 0 17.05 0 15C0 12.95 0.39375 11.0125 1.18125 9.1875C1.96875 7.3625 3.04375 5.76875 4.40625 4.40625C5.76875 3.04375 7.3625 1.96875 9.1875 1.18125C11.0125 0.39375 12.95 0 15 0C17.05 0 18.9875 0.39375 20.8125 1.18125C22.6375 1.96875 24.2313 3.04375 25.5938 4.40625C26.9562 5.76875 28.0312 7.3625 28.8187 9.1875C29.6062 11.0125 30 12.95 30 15C30 17.05 29.6062 18.9875 28.8187 20.8125C28.0312 22.6375 26.9562 24.2313 25.5938 25.5938C24.2313 26.9562 22.6375 28.0312 20.8125 28.8187C18.9875 29.6062 17.05 30 15 30ZM15 27.75C18.5 27.75 21.5 26.5 24 24C26.5 21.5 27.75 18.5 27.75 15C27.75 11.5 26.5 8.5 24 6C21.5 3.5 18.5 2.25 15 2.25C11.5 2.25 8.5 3.5 6 6C3.5 8.5 2.25 11.5 2.25 15C2.25 18.5 3.5 21.5 6 24C8.5 26.5 11.5 27.75 15 27.75Z" fill="#91E35B"/>
</svg>
