<svg width="400" height="400" viewBox="0 0 400 400" fill="none" xmlns="http://www.w3.org/2000/svg">
<path d="M200 400C89.4492 400 0 310.418 0 200C0 89.4492 89.5819 0 200 0C310.551 0 400 89.5819 400 200C400.133 310.551 310.551 400 200 400Z" fill="url(#paint0_radial_180_71)"/>
<mask id="mask0_180_71" style="mask-type:alpha" maskUnits="userSpaceOnUse" x="0" y="0" width="400" height="400">
<path d="M200 400C89.4492 400 0 310.418 0 200C0 89.4492 89.5819 0 200 0C310.551 0 400 89.5819 400 200C400.133 310.551 310.551 400 200 400Z" fill="#F7C0B5"/>
</mask>
<g mask="url(#mask0_180_71)">
<path d="M311.733 368.405C310.8 369.072 309.733 369.739 308.8 370.405C307.733 371.072 306.8 371.739 305.733 372.272C304.8 372.805 304 373.339 303.066 373.872C302.933 374.005 302.8 374.005 302.666 374.139C299.6 376.005 296.4 377.739 293.2 379.339C292.266 379.872 291.2 380.405 290.266 380.805C290.266 380.805 290.133 380.939 290 380.939C288.933 381.472 287.866 382.005 286.8 382.539C284.666 383.605 282.4 384.539 280.266 385.472C279.2 386.005 278 386.405 276.933 386.805C275.866 387.205 274.666 387.739 273.6 388.139C272.533 388.539 271.333 389.072 270.266 389.472C270.266 389.472 270.266 389.472 270.133 389.472C269.066 389.872 267.866 390.272 266.8 390.672C264.4 391.472 261.866 392.272 259.466 393.072C258.666 393.339 257.733 393.605 256.933 393.872C254.4 394.672 251.866 395.339 249.333 395.872C248.4 396.139 247.466 396.272 246.4 396.539C244 397.072 241.466 397.605 239.066 398.139C238.533 398.272 238.133 398.272 237.6 398.405C236.8 398.539 235.866 398.672 235.066 398.805C233.866 398.939 232.8 399.205 231.6 399.339C231.066 399.472 230.533 399.472 230 399.605C229.333 399.739 228.533 399.872 227.733 399.872C225.6 400.139 223.333 400.405 221.2 400.672C220.533 400.805 219.733 400.805 219.066 400.939H218.933C218 401.072 217.066 401.072 216.133 401.205C215.2 401.339 214.266 401.339 213.333 401.339C212.8 401.339 212.133 401.472 211.6 401.472C210.533 401.472 209.6 401.605 208.666 401.605C207.333 401.605 206.133 401.739 204.8 401.739C203.466 401.739 202.266 401.739 200.933 401.739C200 401.739 199.066 401.739 198.133 401.739C142 400.939 91.333 377.072 55.333 339.205C55.333 339.205 55.333 339.072 55.1997 339.072C59.333 330.939 74.6664 316.272 90.6664 304.139C110.933 288.805 139.6 279.339 139.6 279.339C139.6 279.339 158.4 276.272 228.133 290.805C281.333 302.005 304 347.472 311.733 368.405Z" fill="#F7D3B5"/>
<path d="M242.933 327.739C240.133 341.472 222 349.605 191.466 337.339C154 322.139 139.6 279.339 139.6 279.339C137.6 248.672 132.933 222.405 132.933 222.405C176.266 218.672 227.466 269.339 227.466 269.339L233.333 294.405C233.866 296.539 234.933 298.405 236.533 299.739C239.333 304.539 244.8 318.938 242.933 327.739Z" fill="#F7D3B5"/>
<path d="M236.533 299.872C211.066 298.539 192.266 294.805 172.133 258.672C189.199 273.739 209.333 279.472 230.533 282.139L233.333 294.405C233.866 296.672 234.933 298.539 236.533 299.872Z" fill="#EFBD9C"/>
<path d="M289.2 139.205C291.6 150.405 292.8 159.472 286.266 189.339C279.733 219.205 292.266 249.072 260.8 276.405C239.6 294.805 202.533 298.272 172.933 278.139C162.933 271.339 153.733 261.872 146.266 249.472C140.4 239.739 133.6 230.539 126 222.139C115.466 210.672 102.8 187.605 109.066 146.805C119.2 80.4052 184.933 72.8052 223.733 80.1385C262.533 87.4719 282.666 109.605 289.2 139.205Z" fill="#F7D3B5"/>
<path d="M161.599 191.339C161.599 191.339 157.466 171.339 137.999 173.739C121.199 175.872 115.333 216.139 153.466 227.339" fill="#F7D3B5"/>
<path d="M152.266 209.072C152.266 209.072 147.466 206.005 148 200.672C148.8 194.405 148 190.539 145.066 189.339C137.733 186.272 136.266 194.805 136.533 195.872" stroke="#423232" stroke-width="4" stroke-miterlimit="10" stroke-linecap="round" stroke-linejoin="round"/>
<path d="M253.999 222.005C253.999 222.005 259.066 222.272 263.866 216.538C266.533 213.338 268.799 209.338 267.333 208.138C265.866 206.805 241.733 210.538 240.133 213.738C238.533 216.938 247.866 222.005 253.999 222.005Z" fill="#EFBD9C"/>
<path d="M258 177.205C258 177.205 258.266 189.872 266.4 204.005C270 210.272 264.533 220.539 252.667 222.272" stroke="#423232" stroke-width="4" stroke-miterlimit="10" stroke-linecap="round" stroke-linejoin="round"/>
<path d="M282.461 236C283.846 247.848 270.267 269.871 260.923 277.418C239.7 294.493 202.592 297.71 172.96 279.027C169.623 276.924 166.419 274.573 163.349 271.974C161.213 269.5 159.345 266.902 157.743 264.18C149.527 247.768 165.077 188.615 157.692 181.538L166.769 180C165.495 195.94 169.077 246.462 186.615 246.462C204.154 246.462 202.461 217.231 230.154 225.385C242 229.165 252.647 229.165 252.647 229.165C274.271 228.917 267.731 240.424 270 247.848C273.337 257.993 282.461 236 282.461 236Z" fill="#423232"/>
<path d="M247.074 239.941C247.211 242.135 245.566 245.974 242.549 248.717C227.055 239.256 220.062 244.192 220.062 244.192C214.577 235.828 215.811 224.447 229.112 233.085C238.435 238.981 244.057 239.941 247.074 239.941Z" fill="black"/>
<path d="M242.549 248.717C239.258 251.596 234.322 253.379 227.603 250.636C224.45 249.402 221.982 246.934 220.062 244.192C220.062 244.192 227.055 239.256 242.549 248.717Z" fill="#FE9DAB"/>
<path d="M356.321 451.087H19.2544C19.2544 451.087 21.2544 389.22 41.5211 345.087C56.8544 311.753 93.6544 289.753 120.454 280.153C128.054 277.487 133.921 274.553 139.388 273.087C139.388 273.753 139.788 278.687 139.788 279.22C139.788 279.22 161.921 309.753 211.254 309.353C240.854 309.22 232.588 290.02 232.588 290.02C235.121 289.487 237.521 288.82 239.921 288.02C240.721 287.753 246.321 285.487 246.988 285.22C264.188 289.753 285.254 302.553 315.788 328.153C350.188 357.087 356.321 451.087 356.321 451.087Z" fill="#E89D6B"/>
<path d="M85.2544 451.087L79.2544 401.621" stroke="#544D4D" stroke-width="13" stroke-miterlimit="10" stroke-linecap="round" stroke-linejoin="round"/>
<path d="M318.054 384.82C318.054 384.82 314.054 394.554 315.254 404.287C316.454 414.021 319.921 428.287 314.987 451.087" stroke="#544D4D" stroke-width="13" stroke-miterlimit="10" stroke-linecap="round" stroke-linejoin="round"/>
<path d="M116.054 278.02C118.588 277.22 122.988 278.02 124.321 280.287C129.521 288.82 142.054 313.754 147.254 363.22C151.388 401.887 145.121 471.487 145.121 471.487L15.7876 465.354C15.7876 465.354 19.6543 399.62 30.9876 355.487C42.0543 312.687 71.1209 293.487 116.054 278.02Z" fill="#755B7A"/>
<path d="M250.188 286.154C250.188 286.154 291.387 363.62 279.387 467.087H368.454C368.454 467.087 367.921 396.82 347.921 352.287C327.921 307.754 257.921 282.82 257.921 282.82C257.921 282.82 253.521 284.954 250.188 286.154Z" fill="#755B7A"/>
<path d="M250.187 286.154L246.987 285.221C246.987 285.221 251.654 282.954 253.654 281.621L254.854 280.954C254.854 280.954 261.254 283.887 263.521 284.954C265.787 286.021 255.654 290.954 255.654 290.954C255.654 290.954 250.587 286.287 250.187 286.154Z" fill="#7E5D6D"/>
<path d="M210.444 190.597C207.244 190.464 204.844 187.797 205.111 184.597L205.244 180.864C205.377 177.664 208.044 175.264 211.244 175.53C214.444 175.664 216.844 178.33 216.577 181.53L216.444 185.264C216.311 188.33 213.644 190.73 210.444 190.597Z" fill="#423232"/>
<path d="M266.577 192.597C263.644 192.463 261.377 189.93 261.51 186.997L261.644 183.53C261.777 180.597 264.31 178.33 267.244 178.463C270.177 178.597 272.444 181.13 272.31 184.063L272.177 187.53C272.044 190.463 269.51 192.73 266.577 192.597Z" fill="#423232"/>
<path d="M223.378 182.863C223.378 182.863 219.911 177.93 213.911 176.997C208.978 176.197 203.511 178.597 202.711 181.397" stroke="#423232" stroke-width="4" stroke-miterlimit="10" stroke-linecap="round" stroke-linejoin="round"/>
<path d="M262.71 184.064C262.71 184.064 262.71 179.797 268.844 179.797C273.91 179.797 276.044 184.464 276.044 184.464" stroke="#423232" stroke-width="4" stroke-miterlimit="10" stroke-linecap="round" stroke-linejoin="round"/>
<path d="M228.844 161.397C231.644 162.33 234.444 159.797 233.91 156.73C233.644 155.13 232.977 153.53 231.644 152.33C227.644 148.73 211.11 145.53 201.11 150.197C192.31 154.463 216.044 157.13 228.844 161.397Z" fill="#423232"/>
<path d="M268.71 163.53C266.443 164.33 264.043 161.93 264.443 159.13C264.577 157.664 265.11 156.197 266.177 155.13C269.377 151.93 280.31 149.397 287.243 154.33C293.243 158.464 279.11 159.664 268.71 163.53Z" fill="#423232"/>
<path d="M230.533 205.867H199.466C191.333 205.867 184.8 199.333 184.8 191.2V178.533C184.8 170.4 191.333 163.867 199.466 163.867H230.533C238.666 163.867 245.2 170.4 245.2 178.533V191.2C245.2 199.333 238.533 205.867 230.533 205.867Z" stroke="#423232" stroke-width="4" stroke-miterlimit="10" stroke-linecap="round" stroke-linejoin="round"/>
<path d="M284.133 163.867H268.8C263.466 163.867 259.066 168.267 259.066 173.6V185.2C260.933 191.867 263.6 198.267 267.6 204C268 204 268.4 204.133 268.8 204.133H284.133C289.466 204.133 293.866 199.733 293.866 194.4V173.6C294 168.133 289.6 163.867 284.133 163.867Z" stroke="#423232" stroke-width="4" stroke-miterlimit="10" stroke-linecap="round" stroke-linejoin="round"/>
<path d="M245.2 176C249.733 175.467 255.466 175.067 260.266 175.6" stroke="#423232" stroke-width="4" stroke-miterlimit="10" stroke-linecap="round" stroke-linejoin="round"/>
<path d="M184.8 176.933L153.866 178" stroke="#423232" stroke-width="4" stroke-miterlimit="10" stroke-linecap="round" stroke-linejoin="round"/>
<path d="M325.472 343.571C306.539 319.171 277.205 309.038 261.072 303.038C259.739 296.371 257.205 289.038 253.205 281.971C247.072 285.705 240.005 288.505 232.672 289.971L233.739 294.371C234.272 296.505 236.939 306.371 232.805 319.038C229.339 329.705 215.339 334.505 191.605 323.705C145.339 302.771 140.005 279.171 140.005 279.171C139.205 266.371 137.872 254.371 136.672 244.638C122.272 247.838 105.605 254.371 96.5387 268.105C85.3387 284.905 81.2054 301.971 82.272 315.571C62.8054 327.971 32.672 346.771 22.8054 380.371C10.0054 424.105 12.1387 450.905 12.1387 450.905H356.672C356.272 451.038 351.205 376.771 325.472 343.571Z" fill="#755B7A"/>
<path d="M119.472 299.838C119.472 299.838 127.605 331.438 163.205 353.304" stroke="#423232" stroke-width="4" stroke-miterlimit="10" stroke-linecap="round" stroke-linejoin="round"/>
<path d="M260.939 303.038C260.939 303.038 270.405 343.971 249.739 362.771" stroke="#423232" stroke-width="4" stroke-miterlimit="10" stroke-linecap="round" stroke-linejoin="round"/>
<path d="M196.672 356.504C196.672 356.504 189.739 376.771 191.605 390.771" stroke="#423232" stroke-width="4" stroke-miterlimit="10" stroke-linecap="round" stroke-linejoin="round"/>
<path d="M239.206 355.305C239.206 355.305 244.406 366.638 248.139 384.638" stroke="#423232" stroke-width="4" stroke-miterlimit="10" stroke-linecap="round" stroke-linejoin="round"/>
<path d="M82.0054 315.705C82.0054 315.705 92.9387 360.238 158.005 373.305" stroke="#423232" stroke-width="4" stroke-miterlimit="10" stroke-linecap="round" stroke-linejoin="round"/>
<path d="M192.805 393.838L186.939 393.305C184.805 393.038 183.205 391.038 183.605 388.905L185.605 378.905C186.139 376.105 188.805 374.105 191.605 374.505C194.405 374.771 196.672 377.171 196.672 380.105L196.805 390.371C196.805 392.371 194.939 394.105 192.805 393.838Z" fill="white"/>
<path d="M254.005 387.704L248.405 389.704C246.272 390.504 244.005 389.171 243.605 387.038L241.205 377.171C240.539 374.371 242.005 371.571 244.805 370.505C247.472 369.571 250.539 370.771 251.739 373.305L256.139 382.505C257.072 384.505 256.139 386.904 254.005 387.704Z" fill="white"/>
<path d="M312.805 384.638C312.805 384.638 320.272 426.505 317.339 451.038" stroke="#544D4D" stroke-width="4" stroke-miterlimit="10" stroke-linecap="round" stroke-linejoin="round"/>
<path d="M306.316 147.77C302.583 159.37 294.45 170.171 288.716 176.571C292.316 156.304 291.25 148.304 289.116 138.837C288.45 135.904 287.65 133.104 286.716 130.304C265.783 150.704 229.916 130.571 229.916 130.571C229.916 130.571 222.316 136.837 208.983 135.37C194.716 133.904 190.85 125.104 190.85 125.104C186.983 152.037 161.516 141.771 166.183 168.571C168.361 181.077 164.769 197.538 161.25 190.304C160.183 186.57 154.983 171.37 137.916 173.504C121.783 175.504 115.65 212.837 148.983 225.637C148.583 238.037 128.85 269.104 129.516 234.437C129.65 227.37 109.383 227.904 98.3162 204.57C93.5162 194.437 94.8496 184.97 96.9829 178.17C99.1162 171.637 98.9829 164.57 96.8495 158.037C94.4495 150.437 92.5829 138.97 96.9829 125.104C104.45 101.37 120.45 95.9038 124.583 93.1038C128.716 90.3038 127.383 69.7705 162.45 58.3038C185.116 50.8372 209.383 63.7705 214.45 62.8372C219.516 61.9038 254.983 38.5705 282.316 60.5705C308.716 81.9038 298.85 107.104 298.85 107.104C298.85 107.104 315.383 119.771 306.316 147.77Z" fill="#423232"/>
</g>
<defs>
<radialGradient id="paint0_radial_180_71" cx="0" cy="0" r="1" gradientUnits="userSpaceOnUse" gradientTransform="translate(68.6154 96.7692) rotate(43.3183) scale(433.698 559.12)">
<stop stop-color="#91E35B"/>
<stop offset="1" stop-color="#FFFB7D"/>
</radialGradient>
</defs>
</svg>
