<svg width="172" height="100" viewBox="0 0 172 100" fill="none" xmlns="http://www.w3.org/2000/svg">
<g clip-path="url(#clip0_252_350)">
<path d="M48.2923 86.8086C45.7132 86.8086 43.134 86.8086 40.7533 85.6975C46.2004 79.4405 46.4048 71.2919 38.9678 61.0679H41.5469L44.3026 64.9264C44.3173 64.9468 44.3335 64.966 44.353 64.9823C44.5065 65.1119 44.6601 65.1305 44.814 65.0379C44.8886 64.9931 44.9255 64.9116 44.9362 64.8294C45.2001 62.8157 45.416 61.8368 46.1099 61.0679H48.2923H57.8152C57.8152 63.8456 60.1959 80.5123 55.8312 85.6975C55.2361 86.4045 52.8553 86.6234 48.2923 86.8086Z" fill="#E69055"/>
<path d="M47.8953 24.4011V0.512207C44.3243 0.512207 42.1419 0.697392 39.166 1.25295C39.3259 12.588 41.1388 18.019 47.8953 24.4011Z" fill="#DEE358"/>
<path d="M7.4231 21.6235C13.4161 13.9148 17.1205 10.3647 24.8817 6.62354C23.5836 14.7979 25.4323 20.3119 32.8175 31.6235C20.6393 30.5786 14.9505 28.5522 7.4231 21.6235Z" fill="#88DE50"/>
<path d="M20.1203 42.1789C13.5657 39.2597 9.2934 38.4278 0.677761 38.29C-0.181468 43.2852 -0.115811 50.5123 0.280976 52.1789C0.677765 53.8456 2.46331 58.29 6.82796 58.29H13.7717C11.1926 51.8086 12.9523 46.0682 20.1203 42.1789Z" fill="#198E55"/>
<path d="M23.6984 44.4532C16.3916 45.1028 13.1858 51.7891 17.1444 58.4754H38.3726C35.0728 51.5047 29.0364 46.2369 25.9862 44.7839C25.2854 44.4502 24.4817 44.3832 23.6984 44.4532Z" fill="#198E55"/>
<path d="M1.47119 35.6973C2.45633 30.6919 3.35858 28.1148 6.03424 24.2158C14.5974 31.5158 22.8717 33.4243 34.7143 34.5412C35.0229 34.5703 35.309 34.7083 35.5079 34.9305C40.8039 40.8464 47.1168 49.3935 47.8953 58.475H41.1499C35.5949 44.4009 22.3025 36.8084 1.47119 35.6973Z" fill="#88DE50"/>
<path d="M27.6594 5.1418C29.0482 4.03069 34.008 2.17884 36.5871 1.99365C36.2561 9.56291 37.0295 19.4515 43.5134 26.3928C46.1619 29.2282 49.339 31.7174 51.0976 35.1022C54.9468 42.5106 56.6006 50.7987 55.6328 58.475H50.673C50.673 50.5121 44.7212 40.8824 36.5871 32.289C30.4369 24.5862 25.3203 15.9375 27.6594 5.1418Z" fill="#B5D556"/>
<path d="M68.7518 86.0677C68.3383 85.6666 67.9995 85.1573 67.7348 84.5399C67.4868 83.9073 67.363 83.1821 67.363 82.364C67.363 81.5306 67.5614 80.4195 67.9582 79.0306C68.3713 77.6417 68.8923 76.0599 69.5204 74.2854L71.6035 68.5214C74.5627 60.4969 76.2741 54.2932 76.7371 49.9103C76.8859 48.614 77.5636 47.9658 78.7707 47.9658C79.5309 47.9658 80.1594 48.1358 80.6554 48.4751C81.6141 49.1543 82.0771 49.9103 82.0442 50.7436C82.0108 51.5769 81.8537 52.5954 81.5728 53.7992C81.2919 54.9877 80.928 56.2914 80.4816 57.7114C80.0352 59.1155 79.5226 60.6047 78.9441 62.1788L75.5218 71.5769C73.5545 76.9166 72.5709 80.3655 72.5709 81.9243C72.5709 82.7577 72.9343 83.1743 73.662 83.1743C74.3564 83.1743 74.9845 83.0354 75.5468 82.7577C76.1253 82.4799 76.4971 82.341 76.6625 82.341C77.0097 82.341 77.1835 82.5029 77.1835 82.8269C77.1835 84.2006 76.4312 85.3503 74.9266 86.2762C73.918 86.9088 72.9923 87.2251 72.1491 87.2251C71.3226 87.2251 70.6528 87.1325 70.1405 86.9473C69.6279 86.7621 69.1648 86.4692 68.7518 86.0677ZM100.867 80.8362C100.867 82.2562 101.404 82.9658 102.479 82.9658C103.223 82.9658 103.834 82.858 104.314 82.6417C104.81 82.4258 105.14 82.3177 105.306 82.3177C105.653 82.3177 105.826 82.4877 105.826 82.8269C105.826 84.1543 105.082 85.2962 103.594 86.2529C102.024 87.2562 100.42 87.5029 98.7834 86.9936C97.7089 86.6388 96.9154 85.8747 96.4027 84.7021C96.1547 84.1003 96.0309 83.5525 96.0309 83.0584C96.0309 82.2562 96.1135 81.4073 96.2789 80.5121C94.7414 83.4443 92.8316 85.4658 90.5501 86.5769C89.6407 87.0092 88.6737 87.2251 87.6488 87.2251C86.6235 87.2251 85.7307 87.0321 84.9705 86.6466C84.2265 86.2451 83.5897 85.6973 83.0607 85.0029C81.9862 83.5525 81.4986 81.7314 81.5978 79.5399C81.697 76.7932 82.5648 74.1003 84.2015 71.4614C85.7061 68.9921 87.6071 66.9784 89.9053 65.4195C92.2035 63.8303 94.3525 63.0355 96.3531 63.0355C98.3537 63.0355 99.9655 63.8917 101.189 65.6047C102.33 63.8917 103.338 63.0355 104.215 63.0355C105.157 63.0355 105.868 63.1973 106.347 63.5214C107.256 64.1388 107.579 64.6788 107.314 65.1417C103.165 73.074 101.032 78.0121 100.916 79.9566C100.883 80.2343 100.867 80.5277 100.867 80.8362ZM87.1032 80.9288C87.1032 82.7806 87.7397 83.7066 89.0126 83.7066C89.9879 83.7066 91.1866 82.9351 92.6086 81.3917C94.6918 79.1232 96.5348 76.0677 98.1387 72.2251C98.6513 71.0214 99.081 69.8177 99.4282 68.614C99.362 67.5647 98.891 66.7932 98.0149 66.2992C97.7173 66.1295 97.2709 66.0447 96.6757 66.0447C96.0968 66.0447 95.4107 66.2451 94.6172 66.6466C93.8403 67.0477 93.0796 67.5954 92.3356 68.2899C91.6083 68.9843 90.9223 69.8099 90.2775 70.7669C89.649 71.708 89.0951 72.7343 88.6158 73.8454C87.6071 76.2221 87.1032 78.5832 87.1032 80.9288ZM96.5019 60.651C95.8571 60.8825 95.3032 61.0062 94.8406 61.0214C94.3775 61.0369 94.0716 60.9521 93.9228 60.7669C93.5756 60.3655 93.5923 60.0029 93.9724 59.6788L95.1132 58.6603C97.5601 56.4843 99.2548 53.7762 100.197 50.5355C100.362 49.918 100.982 49.6636 102.057 49.7714C102.933 49.8951 103.644 50.3117 104.19 51.0214C105.397 52.5954 104.859 54.4936 102.578 56.7158C100.743 58.5062 98.7172 59.8177 96.5019 60.651ZM110.464 86.0677C110.051 85.6666 109.712 85.1573 109.447 84.5399C109.199 83.9073 109.075 83.1821 109.075 82.364C109.075 81.5306 109.274 80.4195 109.67 79.0306C110.084 77.6417 110.605 76.0599 111.233 74.2854L113.316 68.5214C116.275 60.4969 117.986 54.2932 118.449 49.9103C118.598 48.614 119.276 47.9658 120.483 47.9658C121.243 47.9658 121.872 48.1358 122.368 48.4751C123.326 49.1543 123.789 49.9103 123.756 50.7436C123.723 51.5769 123.566 52.5954 123.285 53.7992C123.004 54.9877 122.64 56.2914 122.194 57.7114C121.748 59.1155 121.235 60.6047 120.656 62.1788L117.234 71.5769C115.267 76.9166 114.283 80.3655 114.283 81.9243C114.283 82.7577 114.647 83.1743 115.374 83.1743C116.069 83.1743 116.697 83.0354 117.259 82.7577C117.838 82.4799 118.209 82.341 118.375 82.341C118.722 82.341 118.896 82.5029 118.896 82.8269C118.896 84.2006 118.143 85.3503 116.639 86.2762C115.63 86.9088 114.705 87.2251 113.861 87.2251C113.035 87.2251 112.365 87.1325 111.853 86.9473C111.34 86.7621 110.877 86.4692 110.464 86.0677ZM125.74 85.4195C125.046 84.8025 124.5 84.0229 124.104 83.0817C123.707 82.1247 123.5 80.9984 123.483 79.7021C123.467 78.4058 123.632 77.094 123.979 75.7669C124.343 74.4395 124.848 73.1588 125.492 71.9243C126.153 70.6895 126.939 69.5321 127.848 68.4521C128.774 67.3717 129.791 66.4303 130.899 65.628C133.312 63.8995 135.817 63.0355 138.413 63.0355C141.818 63.0355 144.125 64.4321 145.332 67.2251C146.191 69.2469 146.241 71.6929 145.481 74.5632C144.786 77.2021 143.513 79.6247 141.661 81.8317C139.826 84.0384 137.66 85.6047 135.164 86.5306C133.907 86.9936 132.667 87.2251 131.444 87.2251C130.237 87.2251 129.154 87.0784 128.195 86.7854C127.253 86.4921 126.435 86.0369 125.74 85.4195ZM130.477 74.1929C129.981 75.3347 129.584 76.5077 129.286 77.7114C129.006 78.9151 128.873 80.0569 128.89 81.1373C128.906 82.2021 129.08 83.0432 129.411 83.6603C129.758 84.2621 130.311 84.5632 131.072 84.5632C131.833 84.5632 132.577 84.324 133.304 83.8454C134.048 83.3517 134.767 82.7036 135.462 81.901C136.156 81.0988 136.809 80.1729 137.421 79.1232C138.032 78.074 138.57 76.9784 139.033 75.8362C140.041 73.3517 140.529 71.1451 140.496 69.2158C140.496 67.5184 140.124 66.438 139.38 65.9751C139.082 65.7899 138.661 65.6973 138.115 65.6973C137.586 65.6973 136.974 65.9288 136.28 66.3917C135.585 66.8395 134.891 67.4488 134.197 68.2206C133.502 68.9921 132.833 69.8951 132.188 70.9288C131.543 71.9629 130.973 73.0506 130.477 74.1929ZM149.473 79.0077C149.506 77.6651 149.729 76.3303 150.143 75.0029C150.573 73.6603 151.135 72.3951 151.829 71.2066C152.54 70.0184 153.375 68.9229 154.334 67.9195C155.309 66.9166 156.367 66.0525 157.508 65.3269C159.889 63.7992 162.394 63.0355 165.022 63.0355C167.734 63.0355 169.577 64.0462 170.552 66.0677C170.9 66.7932 171.057 67.6188 171.024 68.5447C171.007 69.4551 170.85 70.2962 170.552 71.0677C170.255 71.824 169.883 72.5029 169.437 73.1047C168.428 74.4629 167.411 75.1417 166.386 75.1417C165.245 75.1417 164.402 74.8488 163.857 74.2621C163.377 73.7529 163.228 73.1588 163.41 72.4799C163.46 72.2792 163.609 72.1017 163.857 71.9473C164.105 71.7777 164.419 71.5154 164.799 71.1603C165.873 70.111 166.436 68.884 166.485 67.4799C166.518 66.5229 165.89 66.0447 164.601 66.0447C163.212 66.0447 161.757 66.7699 160.236 68.2206C158.021 70.3347 156.458 73.0432 155.549 76.3454C154.755 79.2158 154.904 81.3147 155.995 82.6417C156.64 83.4136 157.516 83.7992 158.624 83.7992C160.492 83.7992 162.294 83.1821 164.03 81.9473C164.559 81.5617 164.989 81.168 165.32 80.7669C165.65 80.3655 165.956 80.1651 166.237 80.1651C166.518 80.1651 166.75 80.2962 166.932 80.5584C167.13 80.8055 167.229 81.1295 167.229 81.5306C167.229 82.4414 166.791 83.3362 165.915 84.2158C163.667 86.2221 160.963 87.2251 157.806 87.2251C155.111 87.2251 153.027 86.5077 151.556 85.0725C150.101 83.6525 149.407 81.631 149.473 79.0077Z" fill="white"/>
<path d="M94.8508 61.0084C95.3139 60.9932 95.8678 60.8695 96.5126 60.6381C98.7278 59.8047 100.753 58.4932 102.588 56.7029C104.87 54.4806 105.407 52.5825 104.2 51.0084C103.655 50.2988 102.944 49.8821 102.068 49.7584C100.993 49.6506 100.373 49.9051 100.207 50.5225C99.2651 53.7632 97.5704 56.4714 95.1238 58.6473L93.9831 59.6658C93.6025 59.9899 93.5863 60.3529 93.9335 60.754C94.0823 60.9392 94.3878 61.024 94.8508 61.0084Z" fill="#5AA6FF"/>
<path fill-rule="evenodd" clip-rule="evenodd" d="M97.1486 0.942123C101.013 33.2442 100.448 47.5196 83.2444 54.0352C84.2741 49.0974 83.0905 47.4593 79.8828 46.4548C77.0232 45.8578 75.117 46.4548 74.7992 50.0359C74.5599 52.7356 74.2219 54.5637 73.7068 56.5996C69.3231 57.4267 64.253 58.0278 58.4103 58.4752C58.4103 58.4752 59.6006 46.9937 57.0215 39.4011C54.4424 31.8086 47.8954 24.4012 47.8954 24.4012L47.697 0.512297C48.3259 0.514204 51.7193 0.939382 52.0617 1.06785C66.7123 6.5613 77.8505 3.66319 85.9414 1.55793C90.4318 0.389541 93.9835 -0.534648 96.6765 0.355403C96.9415 0.442956 97.1173 0.681438 97.1486 0.942123Z" fill="#DEE358"/>
</g>
<defs>
<clipPath id="clip0_252_350">
<rect width="171.809" height="100" fill="white"/>
</clipPath>
</defs>
</svg>
