<svg width="40" height="40" viewBox="0 0 40 40" fill="none" xmlns="http://www.w3.org/2000/svg">
<circle cx="20" cy="20" r="20" fill="black"/>
<path d="M15.2578 29.0939L15.2578 29.0939C15.7206 29.8999 16.3641 30.4988 17.1851 30.8834L17.1866 30.8841C18.0101 31.2636 18.9421 31.4501 19.9774 31.4501C20.9928 31.4501 21.9102 31.2351 22.7235 30.7998L22.7248 30.7991C23.5554 30.3481 24.2076 29.6849 24.6803 28.8173L24.681 28.8159C25.1561 27.9305 25.3871 26.8593 25.3871 25.6134V5.86401H28.5975V25.6134C28.5975 27.4419 28.2244 28.9664 27.4923 30.1997C26.7569 31.4383 25.7429 32.3814 24.4457 33.0327C23.1587 33.6722 21.6713 33.9956 19.9774 33.9956C18.2798 33.9956 16.7822 33.7033 15.4795 33.1248C14.1841 32.5497 13.1731 31.6774 12.44 30.505L12.2281 30.6376L12.44 30.505C11.7448 29.3931 11.3732 27.9926 11.3403 26.2903H14.5708C14.5997 27.3993 14.824 28.3379 15.2578 29.0939Z" stroke="white" stroke-width="0.5"/>
<path d="M28.8494 5.61011V25.6095C28.8494 27.4718 28.4694 29.043 27.7093 30.3234C26.9491 31.6036 25.8992 32.5799 24.5593 33.2525C23.2323 33.9119 21.7057 34.2417 19.9793 34.2417C18.2529 34.2417 16.7198 33.9443 15.38 33.3494C14.0401 32.7545 12.9901 31.8493 12.23 30.6336C11.4699 29.418 11.0898 27.8855 11.0898 26.0364" stroke="white" stroke-width="1.5"/>
<rect x="23.0811" y="5.61426" width="3.59795" height="8.69504" transform="rotate(90 23.0811 5.61426)" fill="white"/>
<rect x="14.3857" y="11.011" width="2.69846" height="2.39863" fill="#C14FFF"/>
<rect x="14.3857" y="13.4097" width="2.69846" height="2.0988" fill="#9E5CFE"/>
<rect x="14.3857" y="15.2085" width="2.69846" height="2.39863" fill="#787DFF"/>
<rect x="14.3857" y="17.3074" width="2.69846" height="3.29812" fill="#379CF6"/>
<rect x="19.1831" y="15.8081" width="2.69846" height="2.39863" fill="#8D04D6"/>
<rect x="21.8813" y="17.0076" width="3.59795" height="2.39863" fill="#D700BD"/>
<rect x="23.6807" y="19.4062" width="2.69846" height="2.39863" fill="#FE45E8"/>
<rect x="24.8799" y="21.8047" width="2.69846" height="2.99829" fill="#C14FFF"/>
<rect x="24.8799" y="24.803" width="2.69846" height="2.0988" fill="#9E5CFE"/>
<rect x="23.3809" y="26.9019" width="2.99829" height="2.39863" fill="#787DFF"/>
<rect x="21.8813" y="29.3005" width="2.69846" height="2.0988" fill="#379CF6"/>
<rect x="18.8833" y="30.2" width="2.99829" height="2.39863" fill="#007CE8"/>
<rect x="17.0845" y="29.0007" width="1.79897" height="2.69846" fill="#006CC7"/>
<rect x="14.3857" y="27.8013" width="2.69846" height="3.29812" fill="#3D42DA"/>
<rect x="14.3857" y="24.2034" width="2.69846" height="3.59795" fill="#222590"/>
<rect x="14.3857" y="21.8047" width="2.69846" height="2.69846" fill="#3D42DA"/>
<rect x="14.3857" y="20.6055" width="2.69846" height="1.49914" fill="#006CC7"/>
<rect x="25.2632" y="5.75439" width="3.50877" height="3.50877" fill="white"/>
</svg>
