<svg width="433" height="270" viewBox="0 0 433 270" fill="none" xmlns="http://www.w3.org/2000/svg">
<path d="M121.708 234.383C115.208 234.383 108.708 234.383 102.708 231.383C116.436 214.489 116.951 192.488 98.208 164.883H104.708L111.653 175.301C111.69 175.356 111.731 175.408 111.78 175.452C112.167 175.802 112.554 175.852 112.942 175.602C113.13 175.481 113.223 175.261 113.25 175.039C113.915 169.602 114.459 166.959 116.208 164.883H121.708H145.708C145.708 172.383 151.708 217.383 140.708 231.383C139.208 233.292 133.208 233.883 121.708 234.383Z" fill="#E69055"/>
<path d="M120.708 65.8833V1.3833C111.708 1.3833 106.208 1.8833 98.708 3.3833C99.1109 33.9879 103.68 48.6517 120.708 65.8833Z" fill="#DEE358"/>
<path d="M18.708 58.3833C33.8119 37.5696 43.1479 27.9845 62.708 17.8833C59.4364 39.9542 64.0956 54.8419 82.708 85.3833C52.016 82.562 37.6789 77.0907 18.708 58.3833Z" fill="#88DE50"/>
<path d="M50.7081 113.883C34.1888 106.001 23.4216 103.755 1.70812 103.383C-0.457344 116.87 -0.291872 136.383 0.708128 140.883C1.70813 145.383 6.20813 157.383 17.2081 157.383H34.7081C28.2081 139.883 32.6429 124.384 50.7081 113.883Z" fill="#198E55"/>
<path d="M59.7257 120.023C41.3107 121.777 33.2315 139.83 43.2081 157.883H96.7081C88.3918 139.062 73.1787 124.839 65.4916 120.916C63.7254 120.015 61.6997 119.834 59.7257 120.023Z" fill="#198E55"/>
<path d="M3.70801 96.3833C6.19079 82.8686 8.46469 75.9105 15.208 65.3833C36.7893 85.0932 57.6425 90.2462 87.4887 93.2618C88.2663 93.3403 88.9874 93.7131 89.4886 94.3129C102.836 110.286 118.746 133.363 120.708 157.883H103.708C89.708 119.883 56.208 99.3833 3.70801 96.3833Z" fill="#88DE50"/>
<path d="M69.7079 13.8833C73.2079 10.8833 85.7079 5.8833 92.2079 5.3833C91.3738 25.8203 93.3229 52.5196 109.664 71.2609C116.339 78.9165 124.346 85.6375 128.778 94.7765C138.478 114.779 142.646 137.157 140.208 157.883H127.708C127.708 136.383 112.708 110.383 92.2079 87.1808C76.7079 66.3833 63.8128 43.0316 69.7079 13.8833Z" fill="#B5D556"/>
<path d="M173.271 232.383C172.229 231.3 171.375 229.925 170.708 228.258C170.083 226.55 169.771 224.592 169.771 222.383C169.771 220.133 170.271 217.133 171.271 213.383C172.312 209.633 173.625 205.362 175.208 200.571L180.458 185.008C187.916 163.342 192.229 146.592 193.396 134.758C193.771 131.258 195.479 129.508 198.521 129.508C200.437 129.508 202.021 129.967 203.271 130.883C205.687 132.717 206.854 134.758 206.771 137.008C206.687 139.258 206.291 142.008 205.583 145.258C204.875 148.467 203.958 151.987 202.833 155.821C201.708 159.612 200.416 163.633 198.958 167.883L190.333 193.258C185.375 207.675 182.896 216.987 182.896 221.196C182.896 223.446 183.812 224.571 185.646 224.571C187.396 224.571 188.979 224.196 190.396 223.446C191.854 222.696 192.791 222.321 193.208 222.321C194.083 222.321 194.521 222.758 194.521 223.633C194.521 227.342 192.625 230.446 188.833 232.946C186.291 234.654 183.958 235.508 181.833 235.508C179.75 235.508 178.062 235.258 176.771 234.758C175.479 234.258 174.312 233.467 173.271 232.383ZM254.208 218.258C254.208 222.092 255.562 224.008 258.271 224.008C260.146 224.008 261.687 223.717 262.896 223.133C264.146 222.55 264.979 222.258 265.396 222.258C266.271 222.258 266.708 222.717 266.708 223.633C266.708 227.217 264.833 230.3 261.083 232.883C257.125 235.592 253.083 236.258 248.958 234.883C246.25 233.925 244.25 231.862 242.958 228.696C242.333 227.071 242.021 225.592 242.021 224.258C242.021 222.092 242.229 219.8 242.646 217.383C238.771 225.3 233.958 230.758 228.208 233.758C225.916 234.925 223.479 235.508 220.896 235.508C218.312 235.508 216.062 234.987 214.146 233.946C212.271 232.862 210.666 231.383 209.333 229.508C206.625 225.592 205.396 220.675 205.646 214.758C205.896 207.342 208.083 200.071 212.208 192.946C216 186.279 220.791 180.842 226.583 176.633C232.375 172.342 237.791 170.196 242.833 170.196C247.875 170.196 251.937 172.508 255.021 177.133C257.896 172.508 260.437 170.196 262.646 170.196C265.021 170.196 266.812 170.633 268.021 171.508C270.312 173.175 271.125 174.633 270.458 175.883C260 197.3 254.625 210.633 254.333 215.883C254.25 216.633 254.208 217.425 254.208 218.258ZM219.521 218.508C219.521 223.508 221.125 226.008 224.333 226.008C226.791 226.008 229.812 223.925 233.396 219.758C238.646 213.633 243.291 205.383 247.333 195.008C248.625 191.758 249.708 188.508 250.583 185.258C250.416 182.425 249.229 180.342 247.021 179.008C246.271 178.55 245.146 178.321 243.646 178.321C242.187 178.321 240.458 178.862 238.458 179.946C236.5 181.029 234.583 182.508 232.708 184.383C230.875 186.258 229.146 188.487 227.521 191.071C225.937 193.612 224.541 196.383 223.333 199.383C220.791 205.8 219.521 212.175 219.521 218.508ZM243.208 163.758C241.583 164.383 240.187 164.717 239.021 164.758C237.854 164.8 237.083 164.571 236.708 164.071C235.833 162.987 235.875 162.008 236.833 161.133L239.708 158.383C245.875 152.508 250.146 145.196 252.521 136.446C252.937 134.779 254.5 134.092 257.208 134.383C259.416 134.717 261.208 135.842 262.583 137.758C265.625 142.008 264.271 147.133 258.521 153.133C253.896 157.967 248.791 161.508 243.208 163.758ZM278.396 232.383C277.354 231.3 276.5 229.925 275.833 228.258C275.208 226.55 274.896 224.592 274.896 222.383C274.896 220.133 275.396 217.133 276.396 213.383C277.437 209.633 278.75 205.362 280.333 200.571L285.583 185.008C293.041 163.342 297.354 146.592 298.521 134.758C298.896 131.258 300.604 129.508 303.646 129.508C305.562 129.508 307.146 129.967 308.396 130.883C310.812 132.717 311.979 134.758 311.896 137.008C311.812 139.258 311.416 142.008 310.708 145.258C310 148.467 309.083 151.987 307.958 155.821C306.833 159.612 305.541 163.633 304.083 167.883L295.458 193.258C290.5 207.675 288.021 216.987 288.021 221.196C288.021 223.446 288.937 224.571 290.771 224.571C292.521 224.571 294.104 224.196 295.521 223.446C296.979 222.696 297.916 222.321 298.333 222.321C299.208 222.321 299.646 222.758 299.646 223.633C299.646 227.342 297.75 230.446 293.958 232.946C291.416 234.654 289.083 235.508 286.958 235.508C284.875 235.508 283.187 235.258 281.896 234.758C280.604 234.258 279.437 233.467 278.396 232.383ZM316.896 230.633C315.146 228.967 313.771 226.862 312.771 224.321C311.771 221.737 311.25 218.696 311.208 215.196C311.166 211.696 311.583 208.154 312.458 204.571C313.375 200.987 314.646 197.529 316.271 194.196C317.937 190.862 319.916 187.737 322.208 184.821C324.541 181.904 327.104 179.362 329.896 177.196C335.979 172.529 342.291 170.196 348.833 170.196C357.416 170.196 363.229 173.967 366.271 181.508C368.437 186.967 368.562 193.571 366.646 201.321C364.896 208.446 361.687 214.987 357.021 220.946C352.396 226.904 346.937 231.133 340.646 233.633C337.479 234.883 334.354 235.508 331.271 235.508C328.229 235.508 325.5 235.112 323.083 234.321C320.708 233.529 318.646 232.3 316.896 230.633ZM328.833 200.321C327.583 203.404 326.583 206.571 325.833 209.821C325.125 213.071 324.791 216.154 324.833 219.071C324.875 221.946 325.312 224.217 326.146 225.883C327.021 227.508 328.416 228.321 330.333 228.321C332.25 228.321 334.125 227.675 335.958 226.383C337.833 225.05 339.646 223.3 341.396 221.133C343.146 218.967 344.791 216.467 346.333 213.633C347.875 210.8 349.229 207.842 350.396 204.758C352.937 198.05 354.166 192.092 354.083 186.883C354.083 182.3 353.146 179.383 351.271 178.133C350.521 177.633 349.458 177.383 348.083 177.383C346.75 177.383 345.208 178.008 343.458 179.258C341.708 180.467 339.958 182.112 338.208 184.196C336.458 186.279 334.771 188.717 333.146 191.508C331.521 194.3 330.083 197.237 328.833 200.321ZM376.708 213.321C376.791 209.696 377.354 206.092 378.396 202.508C379.479 198.883 380.896 195.467 382.646 192.258C384.437 189.05 386.541 186.092 388.958 183.383C391.416 180.675 394.083 178.342 396.958 176.383C402.958 172.258 409.271 170.196 415.896 170.196C422.729 170.196 427.375 172.925 429.833 178.383C430.708 180.342 431.104 182.571 431.021 185.071C430.979 187.529 430.583 189.8 429.833 191.883C429.083 193.925 428.146 195.758 427.021 197.383C424.479 201.05 421.916 202.883 419.333 202.883C416.458 202.883 414.333 202.092 412.958 200.508C411.75 199.133 411.375 197.529 411.833 195.696C411.958 195.154 412.333 194.675 412.958 194.258C413.583 193.8 414.375 193.092 415.333 192.133C418.041 189.3 419.458 185.987 419.583 182.196C419.666 179.612 418.083 178.321 414.833 178.321C411.333 178.321 407.666 180.279 403.833 184.196C398.25 189.904 394.312 197.217 392.021 206.133C390.021 213.883 390.396 219.55 393.146 223.133C394.771 225.217 396.979 226.258 399.771 226.258C404.479 226.258 409.021 224.592 413.396 221.258C414.729 220.217 415.812 219.154 416.646 218.071C417.479 216.987 418.25 216.446 418.958 216.446C419.666 216.446 420.25 216.8 420.708 217.508C421.208 218.175 421.458 219.05 421.458 220.133C421.458 222.592 420.354 225.008 418.146 227.383C412.479 232.8 405.666 235.508 397.708 235.508C390.916 235.508 385.666 233.571 381.958 229.696C378.291 225.862 376.541 220.404 376.708 213.321Z" fill="white"/>
<path d="M239.047 164.723C240.214 164.682 241.61 164.348 243.235 163.723C248.818 161.473 253.922 157.932 258.547 153.098C264.297 147.098 265.652 141.973 262.61 137.723C261.235 135.807 259.443 134.682 257.235 134.348C254.527 134.057 252.964 134.744 252.547 136.411C250.172 145.161 245.902 152.473 239.735 158.348L236.86 161.098C235.902 161.973 235.86 162.953 236.735 164.036C237.11 164.536 237.881 164.765 239.047 164.723Z" fill="#5AA6FF"/>
<path fill-rule="evenodd" clip-rule="evenodd" d="M244.838 2.54373C254.578 89.7593 253.153 128.303 209.796 145.895C212.391 132.563 209.408 128.14 201.324 125.428C194.117 123.816 189.313 125.428 188.512 135.097C187.909 142.386 187.057 147.322 185.759 152.819C174.711 155.052 161.933 156.675 147.208 157.883C147.208 157.883 150.208 126.883 143.708 106.383C137.208 85.8832 120.708 65.8832 120.708 65.8832L120.208 1.3832C121.793 1.38835 130.345 2.53633 131.208 2.8832C168.131 17.7155 196.202 9.89061 216.593 4.20642C227.91 1.05176 236.861 -1.44355 243.648 0.959588C244.316 1.19598 244.759 1.83988 244.838 2.54373Z" fill="#DEE358"/>
</svg>
