<svg width="836" height="480" viewBox="0 0 836 480" fill="none" xmlns="http://www.w3.org/2000/svg">
<path d="M768.888 115.51C775.034 115.51 778.392 108.282 774.389 103.62C770.98 99.6518 765.746 97.181 760.002 95.9281C749.969 93.7391 737.76 100.651 734.805 102.389C734.042 88.7161 722.124 77.8601 707.531 77.8601C706.938 77.8601 706.347 77.8787 705.763 77.9157C702.028 58.3316 683.389 43.4406 660.958 43.4406C635.838 43.4406 615.473 62.1127 615.473 85.1444C615.472 86.9327 615.596 88.7189 615.844 90.4899C614.737 90.355 613.623 90.287 612.507 90.286C602.534 90.286 591.081 96.4582 589.73 106.374C589.73 106.374 535.828 91.7577 535.517 115.812L768.888 115.51Z" fill="#C7EFE8"/>
<path d="M75.8637 73.7695H253.576C253.233 72.0642 249.683 53.8017 205.93 70.4332C205.93 70.4332 208.091 61.351 194.964 65.3824C181.838 69.4137 186.512 51.3903 174.982 48.5044C168.107 46.7843 164.202 49.6165 161.451 52.7674C160.126 34.7551 144.269 20.5331 124.902 20.5331C104.667 20.5331 88.2655 36.0581 88.2655 55.2122C88.2652 56.3885 88.3271 57.564 88.4508 58.7339C86.3731 56.1612 81.7986 53.8591 75.5486 54.0074C75.4059 54.0074 75.2632 54.0167 75.1223 54.026C62.4629 54.7636 63.1746 73.7695 75.8637 73.7695Z" fill="#C7EFE8"/>
<path d="M217.166 299.867L223.533 83.91C223.533 83.6342 223.642 83.3697 223.837 83.1747C224.032 82.9797 224.297 82.8702 224.573 82.8702C224.848 82.8702 225.113 82.9797 225.308 83.1747C225.503 83.3697 225.612 83.6342 225.612 83.91L231.805 299.865L217.166 299.867Z" fill="#E5F1EF"/>
<path d="M232.75 43.3071C231.638 59.3844 228.721 73.5192 226.119 82.062C226.046 82.2989 225.895 82.5042 225.69 82.6446C225.486 82.7849 225.24 82.8521 224.993 82.8351C224.746 82.8182 224.511 82.7181 224.328 82.5512C224.145 82.3842 224.023 82.1603 223.983 81.9156C222.578 73.1374 221.618 58.8395 222.727 42.7677C224.024 23.8194 227.857 7.56415 230.697 0C232.493 7.88295 234.057 24.3587 232.75 43.3071Z" fill="#C8D9D2"/>
<path d="M186.667 100.51C199.784 92.8438 212.414 87.4594 220.956 84.6402C222.421 84.1565 223.49 86.0229 222.335 87.0498C216.697 92.0302 206.064 100.191 191.282 108.83C174.884 118.413 159.911 124.65 152.056 126.55C157.57 120.632 170.269 110.098 186.667 100.51Z" fill="#C8D9D2"/>
<path d="M260.243 96.7158C275.442 104.627 287.86 114.196 292.981 119.484C285.708 118.32 271.829 112.906 256.619 104.995C244.308 98.5916 233.838 91.9616 227.573 86.8645C226.461 85.9674 227.353 84.201 228.733 84.5346C236.507 86.4104 247.936 90.3138 260.243 96.7158Z" fill="#C8D9D2"/>
<path d="M224.826 88.1971C227.272 88.1971 229.254 86.2146 229.254 83.7691C229.254 81.3236 227.272 79.3411 224.826 79.3411C222.381 79.3411 220.398 81.3236 220.398 83.7691C220.398 86.2146 222.381 88.1971 224.826 88.1971Z" fill="#E5F1EF"/>
<path d="M321.539 314.769L327.099 126.407C327.099 126.167 327.195 125.936 327.365 125.766C327.535 125.596 327.765 125.501 328.005 125.501C328.246 125.501 328.476 125.596 328.646 125.766C328.816 125.936 328.912 126.167 328.912 126.407L334.315 314.769H321.539Z" fill="#E5F1EF"/>
<path d="M339.698 98.6064C336.524 110.059 332.334 119.844 329.183 125.625C329.095 125.786 328.956 125.913 328.788 125.985C328.619 126.057 328.431 126.069 328.254 126.02C328.078 125.972 327.923 125.864 327.815 125.716C327.707 125.568 327.653 125.387 327.661 125.204C327.941 118.656 329.359 108.185 332.534 96.7381C336.274 83.2446 341.431 72.0661 344.611 67.0227C344.741 72.9799 343.44 85.1148 339.698 98.6064Z" fill="#C8D9D2"/>
<path d="M297.962 133.128C308.57 129.527 318.488 127.501 325.079 126.726C325.318 126.697 325.559 126.752 325.762 126.881C325.965 127.009 326.117 127.205 326.193 127.433C326.268 127.661 326.263 127.909 326.177 128.133C326.09 128.358 325.929 128.545 325.72 128.665C320.912 131.43 312.027 135.756 300.072 139.813C286.812 144.316 275.075 146.61 269.118 146.823C273.974 143.367 284.699 137.63 297.962 133.128Z" fill="#C8D9D2"/>
<path d="M351.673 141.248C361.497 149.207 369.037 157.952 371.962 162.528C366.879 160.614 357.653 154.655 347.835 146.696C339.885 140.251 333.301 133.906 329.527 129.31C329.386 129.137 329.308 128.921 329.306 128.698C329.303 128.474 329.377 128.257 329.515 128.081C329.652 127.905 329.845 127.781 330.063 127.73C330.28 127.678 330.508 127.702 330.71 127.797C336.041 130.301 343.729 134.807 351.673 141.248Z" fill="#C8D9D2"/>
<path d="M328.374 130.249C330.508 130.249 332.237 128.52 332.237 126.387C332.237 124.253 330.508 122.524 328.374 122.524C326.241 122.524 324.512 124.253 324.512 126.387C324.512 128.52 326.241 130.249 328.374 130.249Z" fill="#E5F1EF"/>
<path d="M27.3965 377.043H642.094C642.094 377.043 582.69 299.854 477.201 316.641C338.667 338.687 287.228 290.967 220.706 274.031C157.316 257.891 108.914 279.267 76.2734 305.871C49.6775 327.546 27.3965 352.208 27.3965 377.045V377.043Z" fill="#9BAD2E"/>
<path d="M245.122 377.043C245.122 377.043 276.396 336.324 355.591 346.852C465.678 361.494 505.028 280.719 598.928 276.2C771.011 267.918 835.448 377.043 835.448 377.043H245.122Z" fill="#BCD235"/>
<path d="M22.0864 377.044L0 354.585L24.9797 371.894L24.1678 355.465L35.8746 369.752L33.8098 318.623L42.5324 364.245L50.8805 356.319L50.1076 370.041L59.5345 366.147L52.1224 377.025L22.0864 377.044Z" fill="#BCD235"/>
<path d="M59.0208 360.56C57.386 362.065 56.2053 361.961 54.8097 361.609C54.5743 360.19 54.6058 359.044 56.2406 357.532C57.8753 356.019 61.271 354.853 62.0402 354.937C62.068 355.71 60.6556 359.055 59.0208 360.56Z" fill="#BCD235"/>
<path d="M447.998 466.857V287.555" stroke="#423C52" stroke-width="5" stroke-miterlimit="10" stroke-linecap="round"/>
<path d="M458.11 241.106C456.843 247.476 454.261 252.683 451.59 254.851C449.953 251.824 449.566 246.027 450.833 239.652C452.101 233.278 454.683 228.075 457.354 225.907C458.991 228.935 459.38 234.735 458.11 241.106Z" fill="#FFDB00"/>
<path d="M445.899 302.414C444.632 308.783 442.05 313.991 439.379 316.158C437.744 313.133 437.355 307.335 438.622 300.959C439.89 294.583 442.472 289.38 445.143 287.213C446.78 290.244 447.169 296.043 445.899 302.414Z" fill="#FFDB00"/>
<path d="M418.614 261.326C424.983 262.595 430.189 265.175 432.358 267.846C429.333 269.483 423.533 269.87 417.159 268.602C410.785 267.335 405.58 264.753 403.412 262.082C406.444 260.445 412.242 260.058 418.614 261.326Z" fill="#FFDB00"/>
<path d="M479.92 273.536C486.291 274.806 491.497 277.386 493.666 280.057C490.639 281.694 484.841 282.081 478.467 280.813C472.093 279.545 466.89 276.964 464.722 274.293C467.75 272.65 473.55 272.267 479.92 273.536Z" fill="#FFDB00"/>
<path d="M434.194 243.067C437.801 248.468 439.658 253.975 439.303 257.396C436.005 256.414 431.631 252.588 428.024 247.187C424.417 241.786 422.56 236.277 422.914 232.856C426.211 233.838 430.587 237.664 434.194 243.067Z" fill="#FFDB00"/>
<path d="M468.911 295.052C472.517 300.453 474.375 305.96 474.021 309.381C470.723 308.399 466.347 304.573 462.742 299.172C459.137 293.771 457.276 288.263 457.632 284.841C460.929 285.825 465.304 289.649 468.911 295.052Z" fill="#FFDB00"/>
<path d="M420.56 285.293C425.961 281.686 431.468 279.829 434.89 280.185C433.907 283.48 430.082 287.857 424.68 291.463C419.279 295.07 413.771 296.928 410.349 296.572C411.335 293.276 415.161 288.9 420.56 285.293Z" fill="#FFDB00"/>
<path d="M472.549 250.575C477.95 246.968 483.457 245.111 486.878 245.467C485.896 248.764 482.07 253.139 476.669 256.745C471.268 260.352 465.759 262.211 462.338 261.856C463.32 258.564 467.146 254.184 472.549 250.575Z" fill="#FFDB00"/>
<path d="M446.596 240.698C447.708 246.872 447.215 252.462 445.579 255.352C443.041 253.209 440.648 248.123 439.544 241.96C438.439 235.797 438.923 230.194 440.561 227.303C443.099 229.447 445.492 234.522 446.596 240.698Z" fill="#FFDB00"/>
<path d="M457.227 300.119C458.339 306.292 457.846 311.884 456.209 314.773C453.672 312.631 451.279 307.545 450.174 301.38C449.069 295.215 449.553 289.614 451.192 286.724C453.738 288.867 456.122 293.943 457.227 300.119Z" fill="#FFDB00"/>
<path d="M418.213 272.797C424.387 271.685 429.977 272.176 432.867 273.814C430.724 276.352 425.638 278.745 419.475 279.849C413.312 280.954 407.709 280.468 404.818 278.832C406.962 276.294 412.034 273.901 418.213 272.797Z" fill="#FFDB00"/>
<path d="M477.635 262.167C483.807 261.055 489.399 261.546 492.289 263.184C490.146 265.722 485.069 268.115 478.895 269.219C472.721 270.324 467.129 269.839 464.24 268.202C466.382 265.664 471.459 263.272 477.635 262.167Z" fill="#FFDB00"/>
<path d="M425.598 251.763C430.766 255.194 434.432 259.363 435.379 262.514C432.113 262.862 426.853 261.103 421.68 257.672C416.507 254.241 412.844 250.073 411.897 246.922C415.165 246.573 420.429 248.332 425.598 251.763Z" fill="#FFDB00"/>
<path d="M475.344 284.782C480.512 288.211 484.178 292.381 485.125 295.532C481.857 295.88 476.599 294.121 471.424 290.691C466.249 287.26 462.59 283.091 461.643 279.94C464.909 279.592 470.175 281.351 475.344 284.782Z" fill="#FFDB00"/>
<path d="M429.143 293.994C432.574 288.826 436.743 285.162 439.893 284.214C440.242 287.48 438.483 292.741 435.054 297.914C431.625 303.087 427.455 306.748 424.304 307.695C423.953 304.429 425.712 299.156 429.143 293.994Z" fill="#FFDB00"/>
<path d="M462.162 244.249C465.593 239.082 469.762 235.415 472.912 234.468C473.261 237.736 471.502 242.994 468.073 248.168C464.644 253.341 460.474 257.003 457.323 257.95C456.972 254.683 458.731 249.419 462.162 244.249Z" fill="#FFDB00"/>
<path d="M448.54 289.595C458.771 289.595 467.066 281.301 467.066 271.069C467.066 260.838 458.771 252.544 448.54 252.544C438.308 252.544 430.014 260.838 430.014 271.069C430.014 281.301 438.308 289.595 448.54 289.595Z" fill="#423C52"/>
<path d="M467.066 271.069C467.066 271.121 467.066 271.177 467.066 271.231C467.059 272.331 466.953 273.428 466.749 274.51C466.716 274.695 466.68 274.867 466.64 275.043C466.395 276.165 466.046 277.262 465.596 278.318C465.518 278.504 465.44 278.676 465.357 278.854C464.987 279.653 464.559 280.424 464.078 281.162C463.909 281.425 463.731 281.683 463.544 281.938C463.5 282.001 463.452 282.066 463.403 282.124C463.27 282.309 463.133 282.481 462.988 282.658C462.181 283.667 461.269 284.587 460.267 285.404C460.093 285.549 459.915 285.69 459.733 285.825L459.589 285.935C459.342 286.12 459.089 286.298 458.831 286.468C458.074 286.976 457.281 287.426 456.456 287.814C456.271 287.901 456.101 287.981 455.921 288.059C454.864 288.518 453.767 288.877 452.644 289.132C452.467 289.173 452.289 289.21 452.11 289.243C451.03 289.454 449.933 289.568 448.833 289.584C448.737 289.584 448.638 289.584 448.542 289.584C448.446 289.584 448.381 289.584 448.299 289.584C447.199 289.571 446.102 289.46 445.022 289.252C444.837 289.219 444.664 289.18 444.488 289.141C443.365 288.892 442.267 288.536 441.211 288.079C441.026 288.001 440.852 287.921 440.676 287.836C439.834 287.443 439.024 286.986 438.253 286.468C437.997 286.298 437.745 286.12 437.497 285.935L437.399 285.86C437.213 285.725 437.041 285.584 436.865 285.441C435.846 284.616 434.918 283.684 434.098 282.661C433.953 282.476 433.816 282.307 433.682 282.127C433.649 282.083 433.616 282.038 433.588 281.996C433.4 281.749 433.222 281.492 433.054 281.227C432.552 280.47 432.109 279.675 431.729 278.85C431.645 278.665 431.566 278.495 431.49 278.315C431.04 277.258 430.69 276.162 430.446 275.04C430.405 274.854 430.37 274.686 430.335 274.506C430.133 273.424 430.027 272.327 430.018 271.227C430.018 271.173 430.018 271.118 430.018 271.066C430.018 270.94 430.018 270.815 430.018 270.695C430.039 269.594 430.159 268.498 430.376 267.418C430.411 267.233 430.448 267.062 430.489 266.884C430.749 265.76 431.114 264.663 431.581 263.607C431.658 263.422 431.742 263.248 431.827 263.072C432.186 262.322 432.595 261.598 433.052 260.905C433.221 260.643 433.399 260.386 433.586 260.136C433.668 260.021 433.753 259.908 433.84 259.795C433.977 259.609 434.12 259.435 434.266 259.261C435.044 258.32 435.913 257.459 436.861 256.69C437.037 256.545 437.215 256.404 437.395 256.269C437.521 256.173 437.653 256.084 437.781 255.986C438.04 255.8 438.303 255.622 438.57 255.452C439.244 255.019 439.946 254.632 440.672 254.293C440.848 254.208 441.026 254.128 441.208 254.051C442.264 253.593 443.361 253.238 444.485 252.988C444.661 252.95 444.839 252.911 445.018 252.877C446.099 252.669 447.195 252.559 448.295 252.547C448.377 252.547 448.457 252.547 448.538 252.547C448.62 252.547 448.733 252.547 448.829 252.547C449.93 252.562 451.026 252.676 452.106 252.887C452.292 252.92 452.464 252.959 452.64 253C453.764 253.253 454.861 253.612 455.917 254.071C456.102 254.149 456.275 254.23 456.453 254.316C457.161 254.649 457.848 255.028 458.506 255.452C458.776 255.622 459.04 255.8 459.298 255.986C459.442 256.089 459.587 256.195 459.73 256.304C459.915 256.44 460.089 256.581 460.264 256.725C461.194 257.486 462.048 258.335 462.814 259.261C462.96 259.435 463.101 259.613 463.238 259.795C463.342 259.926 463.442 260.061 463.541 260.197C463.726 260.453 463.911 260.71 464.074 260.973C464.513 261.646 464.907 262.347 465.253 263.072C465.338 263.257 465.42 263.426 465.5 263.607C465.966 264.663 466.331 265.76 466.591 266.884C466.632 267.07 466.669 267.238 466.704 267.418C466.921 268.497 467.04 269.594 467.06 270.695C467.064 270.819 467.066 270.943 467.066 271.069Z" fill="#423C52"/>
<path d="M433.586 260.137V282.009C433.398 281.762 433.22 281.505 433.052 281.239V260.907C433.221 260.645 433.399 260.388 433.586 260.137Z" fill="#BCD235"/>
<path d="M437.398 256.271V285.868C437.212 285.732 437.04 285.592 436.864 285.449V256.692C437.04 256.547 437.218 256.406 437.398 256.271Z" fill="#BCD235"/>
<path d="M441.209 254.052V288.086C441.024 288.009 440.85 287.929 440.674 287.844V254.301C440.85 254.21 441.028 254.13 441.209 254.052Z" fill="#BCD235"/>
<path d="M445.026 252.879V289.26C444.841 289.226 444.669 289.187 444.493 289.148V252.99C444.656 252.951 444.841 252.912 445.026 252.879Z" fill="#BCD235"/>
<path d="M448.831 252.549V289.591C448.735 289.591 448.637 289.591 448.54 289.591C448.444 289.591 448.379 289.591 448.297 289.591V252.549C448.379 252.549 448.459 252.549 448.54 252.549C448.622 252.549 448.733 252.545 448.831 252.549Z" fill="#BCD235"/>
<path d="M452.642 253.003V289.147C452.466 289.187 452.288 289.224 452.108 289.258V252.888C452.288 252.922 452.466 252.961 452.642 253.003Z" fill="#BCD235"/>
<path d="M456.455 254.317V287.821C456.27 287.908 456.099 287.988 455.919 288.066V254.073C456.099 254.151 456.277 254.232 456.455 254.317Z" fill="#BCD235"/>
<path d="M460.266 256.727V285.412C460.091 285.556 459.914 285.697 459.732 285.832V256.306C459.914 256.441 460.091 256.582 460.266 256.727Z" fill="#BCD235"/>
<path d="M464.077 260.973V281.16C463.908 281.423 463.73 281.681 463.543 281.936V260.198C463.728 260.454 463.906 260.712 464.077 260.973Z" fill="#BCD235"/>
<path d="M459.587 285.942C459.34 286.127 459.087 286.305 458.829 286.476H438.255C437.999 286.305 437.747 286.127 437.499 285.942H459.587Z" fill="#BCD235"/>
<path d="M463.402 282.131C463.268 282.316 463.131 282.489 462.987 282.665H434.09C433.946 282.48 433.809 282.311 433.675 282.131H463.402Z" fill="#BCD235"/>
<path d="M465.6 278.318C465.522 278.504 465.444 278.676 465.361 278.854H431.727C431.644 278.669 431.564 278.498 431.488 278.318H465.6Z" fill="#BCD235"/>
<path d="M466.747 274.504C466.714 274.689 466.679 274.862 466.638 275.038H430.445C430.404 274.852 430.369 274.684 430.333 274.504H466.747Z" fill="#BCD235"/>
<path d="M467.067 271.069C467.067 271.121 467.067 271.177 467.067 271.231H430.013C430.013 271.177 430.013 271.121 430.013 271.069C430.013 270.943 430.013 270.819 430.013 270.699H467.057C467.065 270.819 467.067 270.943 467.067 271.069Z" fill="#BCD235"/>
<path d="M466.712 267.42H430.383C430.419 267.235 430.456 267.064 430.496 266.886H466.601C466.634 267.064 466.671 267.24 466.712 267.42Z" fill="#BCD235"/>
<path d="M465.502 263.609H431.583C431.661 263.424 431.744 263.249 431.83 263.073H465.257C465.341 263.249 465.415 263.427 465.502 263.609Z" fill="#BCD235"/>
<path d="M463.241 259.796H433.84C433.977 259.611 434.12 259.437 434.267 259.263H462.811C462.963 259.437 463.103 259.615 463.241 259.796Z" fill="#BCD235"/>
<path d="M459.298 255.987H437.783C438.042 255.802 438.305 255.624 438.572 255.454H458.509C458.778 255.624 459.041 255.802 459.298 255.987Z" fill="#BCD235"/>
<path d="M453.182 359.135V348.418C453.182 341.25 455.531 334.279 459.87 328.574C464.21 322.868 470.299 318.742 477.207 316.827L494.259 312.286L485.877 336.355C484.373 340.713 481.547 344.494 477.793 347.17C474.038 349.846 469.543 351.284 464.933 351.285C462.482 351.285 460.084 351.994 458.027 353.325C455.969 354.657 454.341 356.555 453.337 358.79L453.182 359.135Z" fill="#9BAD2E"/>
<path d="M452.997 359.32V348.603C452.997 341.435 455.346 334.465 459.685 328.759C464.024 323.053 470.114 318.927 477.022 317.012L494.074 312.471" stroke="white" stroke-width="5" stroke-miterlimit="10" stroke-linecap="round"/>
<path d="M402.604 352.218C406.818 352.218 408.798 354.664 410.574 358.488L416.69 371.657C418.874 376.363 422.357 380.346 426.729 383.137C431.101 385.929 436.18 387.412 441.368 387.412V379.813C441.368 376.19 440.654 372.603 439.268 369.257C437.882 365.91 435.85 362.869 433.289 360.308C430.727 357.747 427.686 355.715 424.34 354.329C420.993 352.942 417.406 352.229 413.784 352.229L402.604 352.218Z" fill="#9BAD2E"/>
<path d="M441.735 386.852V379.253C441.735 375.631 441.021 372.044 439.635 368.697C438.249 365.35 436.217 362.31 433.656 359.748C431.094 357.187 428.053 355.155 424.707 353.769C421.36 352.383 417.773 351.669 414.151 351.669H402.604" stroke="white" stroke-width="5" stroke-miterlimit="10" stroke-linecap="round"/>
<path d="M447.992 410.149C447.992 410.149 443.455 376.506 419.633 359.965" stroke="#423C52" stroke-width="5" stroke-miterlimit="10" stroke-linecap="round"/>
<path d="M447.992 390.037C447.992 390.037 446.646 348.638 474.312 331.419" stroke="#423C52" stroke-width="5" stroke-miterlimit="10" stroke-linecap="round"/>
<path d="M777.936 453.339V283.886" stroke="#423C52" stroke-width="5" stroke-miterlimit="10" stroke-linecap="round"/>
<path d="M768.603 239.406C769.777 245.296 772.164 250.112 774.633 252.116C776.147 249.319 776.505 243.96 775.333 238.066C774.162 232.172 771.773 227.36 769.302 225.355C767.79 228.153 767.43 233.516 768.603 239.406Z" fill="#FFDB00"/>
<path d="M779.895 296.099C781.068 301.988 783.455 306.803 785.924 308.809C787.437 306.01 787.796 300.653 786.623 294.757C785.45 288.861 783.064 284.051 780.594 282.046C779.081 284.845 778.721 290.207 779.895 296.099Z" fill="#FFDB00"/>
<path d="M805.127 258.104C799.238 259.277 794.423 261.663 792.417 264.134C795.216 265.646 800.573 266.006 806.467 264.832C812.361 263.659 817.175 261.272 819.178 258.803C816.381 257.289 811.019 256.931 805.127 258.104Z" fill="#FFDB00"/>
<path d="M748.445 269.396C742.554 270.567 737.739 272.954 735.735 275.423C738.532 276.938 743.891 277.297 749.785 276.124C755.679 274.951 760.491 272.563 762.496 270.094C759.688 268.573 754.326 268.221 748.445 269.396Z" fill="#FFDB00"/>
<path d="M790.72 241.219C787.384 246.214 785.667 251.306 785.995 254.469C789.044 253.561 793.09 250.021 796.425 245.03C799.759 240.038 801.479 234.941 801.15 231.777C798.101 232.685 794.056 236.224 790.72 241.219Z" fill="#FFDB00"/>
<path d="M758.617 289.291C755.281 294.284 753.564 299.376 753.892 302.54C756.941 301.632 760.986 298.092 764.322 293.1C767.658 288.109 769.375 283.013 769.046 279.849C765.997 280.758 761.951 284.294 758.617 289.291Z" fill="#FFDB00"/>
<path d="M803.323 280.266C798.33 276.93 793.238 275.214 790.074 275.542C790.982 278.591 794.523 282.637 799.514 285.971C804.506 289.306 809.601 291.026 812.765 290.696C811.857 287.647 808.313 283.603 803.323 280.266Z" fill="#FFDB00"/>
<path d="M755.253 248.162C750.257 244.826 745.166 243.109 742.002 243.439C742.91 246.488 746.45 250.533 751.442 253.869C756.433 257.205 761.53 258.921 764.694 258.593C763.786 255.544 760.248 251.498 755.253 248.162Z" fill="#FFDB00"/>
<path d="M779.252 239.028C778.23 244.737 778.679 249.908 780.191 252.579C782.538 250.597 784.751 245.906 785.772 240.196C786.794 234.485 786.345 229.315 784.833 226.643C782.486 228.624 780.273 233.319 779.252 239.028Z" fill="#FFDB00"/>
<path d="M769.423 293.975C768.401 299.684 768.848 304.853 770.362 307.526C772.709 305.545 774.922 300.853 775.943 295.143C776.965 289.432 776.516 284.263 775.004 281.59C772.657 283.571 770.444 288.266 769.423 293.975Z" fill="#FFDB00"/>
<path d="M805.498 268.71C799.789 267.689 794.62 268.137 791.947 269.651C793.928 271.998 798.619 274.211 804.33 275.232C810.041 276.254 815.21 275.805 817.883 274.291C815.901 271.944 811.207 269.731 805.498 268.71Z" fill="#FFDB00"/>
<path d="M750.55 258.881C744.842 257.86 739.672 258.308 737 259.822C738.981 262.169 743.672 264.382 749.383 265.403C755.093 266.425 760.263 265.976 762.936 264.462C760.954 262.115 756.259 259.902 750.55 258.881Z" fill="#FFDB00"/>
<path d="M798.675 249.261C793.896 252.432 790.506 256.288 789.631 259.196C792.653 259.518 797.52 257.898 802.3 254.72C807.08 251.541 810.468 247.693 811.345 244.783C808.313 244.46 803.447 246.088 798.675 249.261Z" fill="#FFDB00"/>
<path d="M752.67 279.792C747.889 282.965 744.501 286.819 743.625 289.729C746.646 290.051 751.513 288.431 756.293 285.252C761.073 282.074 764.463 278.226 765.338 275.316C762.317 274.993 757.45 276.621 752.67 279.792Z" fill="#FFDB00"/>
<path d="M795.389 288.313C792.217 283.534 788.362 280.144 785.454 279.267C785.131 282.289 786.751 287.158 789.93 291.936C793.109 296.715 796.957 300.106 799.867 300.981C800.189 297.962 798.562 293.093 795.389 288.313Z" fill="#FFDB00"/>
<path d="M764.858 242.312C761.685 237.534 757.831 234.144 754.921 233.267C754.599 236.288 756.219 241.158 759.397 245.936C762.576 250.714 766.426 254.106 769.334 254.983C769.657 251.962 768.031 247.092 764.858 242.312Z" fill="#FFDB00"/>
<path d="M777.452 284.244C786.913 284.244 794.582 276.575 794.582 267.114C794.582 257.653 786.913 249.984 777.452 249.984C767.992 249.984 760.322 257.653 760.322 267.114C760.322 276.575 767.992 284.244 777.452 284.244Z" fill="#423C52"/>
<path d="M760.322 267.112C760.322 267.162 760.322 267.212 760.322 267.262C760.329 268.28 760.427 269.295 760.615 270.295C760.646 270.461 760.678 270.624 760.717 270.788C760.941 271.826 761.264 272.84 761.682 273.816C761.753 273.983 761.825 274.148 761.903 274.311C762.244 275.051 762.639 275.765 763.086 276.446C763.241 276.693 763.406 276.933 763.579 277.164C763.619 277.223 763.664 277.282 763.708 277.349C763.833 277.516 763.959 277.679 764.092 277.842C764.839 278.775 765.683 279.627 766.609 280.383C766.77 280.517 766.935 280.648 767.104 280.772C767.148 280.808 767.193 280.842 767.237 280.873C767.466 281.046 767.699 281.21 767.936 281.367C768.637 281.836 769.371 282.253 770.133 282.613C770.296 282.691 770.461 282.765 770.627 282.837C771.604 283.262 772.619 283.594 773.658 283.829C773.821 283.868 773.986 283.901 774.151 283.933C775.15 284.128 776.164 284.234 777.181 284.248C777.27 284.248 777.367 284.248 777.45 284.248C777.534 284.248 777.6 284.248 777.676 284.248C778.694 284.237 779.708 284.134 780.707 283.942C780.872 283.91 781.037 283.875 781.2 283.84C782.239 283.608 783.253 283.279 784.23 282.856C784.397 282.785 784.562 282.711 784.725 282.631C785.503 282.269 786.252 281.846 786.964 281.367C787.201 281.21 787.435 281.046 787.665 280.873L787.756 280.806C787.921 280.68 788.086 280.55 788.249 280.417C789.191 279.652 790.05 278.789 790.808 277.842C790.942 277.679 791.068 277.516 791.192 277.349C791.224 277.31 791.253 277.267 791.279 277.229C791.452 276.997 791.617 276.76 791.774 276.517C792.237 275.816 792.647 275.081 792.999 274.319C793.075 274.155 793.149 273.99 793.22 273.824C793.637 272.847 793.959 271.833 794.184 270.795C794.223 270.632 794.256 270.469 794.287 270.302C794.474 269.302 794.572 268.287 794.58 267.27C794.58 267.22 794.58 267.17 794.58 267.12C794.58 267.005 794.58 266.89 794.58 266.777C794.561 265.759 794.45 264.744 794.25 263.746C794.217 263.579 794.184 263.416 794.145 263.251C793.904 262.212 793.567 261.197 793.136 260.221C793.062 260.056 792.988 259.891 792.908 259.728C792.576 259.035 792.198 258.365 791.776 257.722C791.619 257.475 791.454 257.238 791.281 257.012C791.205 256.907 791.127 256.801 791.046 256.697C790.92 256.529 790.788 256.364 790.653 256.202C789.931 255.332 789.123 254.535 788.243 253.824C788.08 253.691 787.915 253.561 787.75 253.437C787.633 253.348 787.513 253.252 787.394 253.174C787.147 253.003 786.9 252.839 786.653 252.681C786.03 252.281 785.381 251.923 784.71 251.609C784.547 251.532 784.382 251.457 784.216 251.385C783.239 250.963 782.224 250.634 781.185 250.403C781.022 250.366 780.857 250.332 780.692 250.301C779.693 250.109 778.679 250.006 777.661 249.995C777.585 249.995 777.511 249.995 777.435 249.995C777.359 249.995 777.25 249.995 777.167 249.995C776.149 250.009 775.135 250.113 774.136 250.308C773.971 250.34 773.806 250.375 773.643 250.412C772.604 250.647 771.59 250.979 770.613 251.404C770.446 251.476 770.281 251.55 770.118 251.63C769.462 251.939 768.828 252.29 768.218 252.681C767.971 252.838 767.727 253.003 767.488 253.174C767.354 253.27 767.221 253.359 767.089 253.468C766.921 253.592 766.756 253.722 766.594 253.858C765.734 254.561 764.944 255.346 764.237 256.202C764.102 256.363 763.97 256.528 763.842 256.697C763.747 256.821 763.654 256.944 763.564 257.068C763.393 257.303 763.229 257.542 763.071 257.785C762.664 258.407 762.299 259.055 761.979 259.726C761.901 259.889 761.825 260.054 761.753 260.219C761.323 261.195 760.984 262.21 760.743 263.249C760.706 263.414 760.67 263.577 760.637 263.744C760.437 264.743 760.327 265.757 760.307 266.775C760.324 266.882 760.322 266.997 760.322 267.112Z" fill="#423C52"/>
<path d="M791.281 257.005V277.221C791.454 276.99 791.619 276.753 791.776 276.509V257.715C791.619 257.474 791.454 257.237 791.281 257.005Z" fill="#BCD235"/>
<path d="M787.758 253.43V280.806C787.923 280.68 788.088 280.55 788.251 280.417V253.817C788.088 253.683 787.925 253.559 787.758 253.43Z" fill="#BCD235"/>
<path d="M784.232 251.378V282.845C784.399 282.774 784.564 282.7 784.727 282.62V251.602C784.564 251.521 784.402 251.45 784.232 251.378Z" fill="#BCD235"/>
<path d="M780.708 250.293V283.935C780.873 283.903 781.038 283.868 781.202 283.833V250.395C781.038 250.358 780.881 250.325 780.708 250.293Z" fill="#BCD235"/>
<path d="M777.183 249.988V284.24C777.272 284.24 777.368 284.24 777.452 284.24C777.535 284.24 777.602 284.24 777.678 284.24V249.988C777.602 249.988 777.528 249.988 777.452 249.988C777.376 249.988 777.272 249.984 777.183 249.988Z" fill="#BCD235"/>
<path d="M773.652 250.408V283.825C773.815 283.864 773.98 283.897 774.145 283.929V250.301C773.988 250.332 773.823 250.368 773.652 250.408Z" fill="#BCD235"/>
<path d="M770.131 251.622V282.606C770.294 282.683 770.459 282.758 770.626 282.83V251.396C770.463 251.469 770.298 251.543 770.131 251.622Z" fill="#BCD235"/>
<path d="M766.609 253.85V280.376C766.771 280.509 766.936 280.641 767.104 280.765V253.461C766.937 253.587 766.772 253.717 766.609 253.85Z" fill="#BCD235"/>
<path d="M763.088 257.78V276.446C763.244 276.694 763.408 276.933 763.581 277.164V257.062C763.41 257.299 763.246 257.538 763.088 257.78Z" fill="#BCD235"/>
<path d="M767.239 280.865C767.468 281.038 767.701 281.203 767.938 281.36H786.966C787.203 281.203 787.437 281.038 787.667 280.865H767.239Z" fill="#BCD235"/>
<path d="M763.71 277.342C763.835 277.508 763.961 277.671 764.094 277.835H790.811C790.944 277.671 791.07 277.508 791.194 277.342H763.71Z" fill="#BCD235"/>
<path d="M761.685 273.816C761.755 273.983 761.827 274.148 761.905 274.311H793.001C793.077 274.148 793.151 273.983 793.222 273.816H761.685Z" fill="#BCD235"/>
<path d="M760.616 270.295C760.648 270.461 760.679 270.624 760.718 270.788H794.185C794.224 270.624 794.257 270.461 794.289 270.295H760.616Z" fill="#BCD235"/>
<path d="M760.322 267.112C760.322 267.162 760.322 267.212 760.322 267.262H794.581C794.581 267.212 794.581 267.162 794.581 267.112C794.581 266.997 794.581 266.882 794.581 266.769H760.324C760.324 266.882 760.322 266.997 760.322 267.112Z" fill="#BCD235"/>
<path d="M760.654 263.739H794.251C794.218 263.572 794.184 263.409 794.145 263.244H760.76C760.723 263.409 760.688 263.568 760.654 263.739Z" fill="#BCD235"/>
<path d="M761.77 260.213H793.137C793.063 260.049 792.989 259.884 792.909 259.72H761.996C761.918 259.884 761.842 260.047 761.77 260.213Z" fill="#BCD235"/>
<path d="M763.859 256.69H791.046C790.92 256.521 790.788 256.356 790.653 256.195H764.254C764.119 256.357 763.987 256.522 763.859 256.69Z" fill="#BCD235"/>
<path d="M767.504 253.166H787.402C787.155 252.996 786.908 252.832 786.66 252.673H768.225C767.988 252.831 767.743 253.003 767.504 253.166Z" fill="#BCD235"/>
<path d="M773.334 347.45V339.058C773.334 333.443 771.493 327.984 768.095 323.515C764.697 319.046 759.927 315.814 754.517 314.313L740.977 311.313L747.722 329.609C748.901 333.023 751.115 335.984 754.056 338.08C756.997 340.176 760.519 341.303 764.131 341.302C766.05 341.302 767.929 341.857 769.54 342.9C771.151 343.943 772.427 345.429 773.213 347.18L773.334 347.45Z" fill="#9BAD2E"/>
<path d="M773.333 345.782V338.872C773.333 333.258 771.493 327.798 768.095 323.329C764.696 318.86 759.927 315.628 754.517 314.128L741.162 311.498" stroke="white" stroke-width="5" stroke-miterlimit="10" stroke-linecap="round"/>
<path d="M783.83 372.795V365.196C783.83 349.997 794.803 337.681 808.339 337.681H819.918C819.918 357.068 804.2 372.786 784.812 372.786L783.83 372.795Z" fill="#9BAD2E"/>
<path d="M783.83 372.61V365.011C783.83 349.812 794.803 337.495 808.339 337.495H819.918" stroke="white" stroke-width="5" stroke-miterlimit="10" stroke-linecap="round"/>
<path d="M777.936 392.815C777.936 392.815 781.967 362.922 803.143 348.225" stroke="#423C52" stroke-width="5" stroke-miterlimit="10" stroke-linecap="round"/>
<path d="M777.935 373.09C777.935 373.09 779.131 338.12 754.541 322.819" stroke="#423C52" stroke-width="5" stroke-miterlimit="10" stroke-linecap="round"/>
<path d="M702.977 466.314V322.81" stroke="#423C52" stroke-width="5" stroke-miterlimit="10" stroke-linecap="round"/>
<path d="M712.301 278.33C711.128 284.22 708.741 289.035 706.272 291.039C704.758 288.242 704.398 282.884 705.571 276.989C706.745 271.095 709.132 266.284 711.601 264.278C713.123 267.077 713.482 272.437 712.301 278.33Z" fill="#FFDB00"/>
<path d="M701.017 335.021C699.844 340.911 697.457 345.727 694.988 347.732C693.474 344.933 693.114 339.577 694.287 333.681C695.46 327.785 697.848 322.975 700.317 320.969C701.831 323.768 702.191 329.13 701.017 335.021Z" fill="#FFDB00"/>
<path d="M675.788 297.028C681.678 298.201 686.494 300.586 688.499 303.055C685.7 304.57 680.344 304.929 674.448 303.756C668.552 302.583 663.742 300.195 661.736 297.727C664.531 296.212 669.894 295.854 675.788 297.028Z" fill="#FFDB00"/>
<path d="M732.477 308.319C738.367 309.491 743.181 311.878 745.186 314.347C742.387 315.861 737.031 316.221 731.137 315.047C725.242 313.874 720.429 311.487 718.425 309.018C721.222 307.496 726.584 307.144 732.477 308.319Z" fill="#FFDB00"/>
<path d="M690.193 280.142C693.529 285.138 695.246 290.229 694.917 293.393C691.868 292.485 687.822 288.945 684.488 283.953C681.153 278.962 679.433 273.864 679.763 270.701C682.81 271.609 686.857 275.147 690.193 280.142Z" fill="#FFDB00"/>
<path d="M722.296 328.215C725.632 333.208 727.349 338.3 727.021 341.464C723.972 340.555 719.925 337.015 716.591 332.024C713.256 327.032 711.538 321.937 711.866 318.773C714.915 319.681 718.96 323.218 722.296 328.215Z" fill="#FFDB00"/>
<path d="M677.587 319.19C682.583 315.854 687.674 314.137 690.838 314.465C689.93 317.515 686.39 321.561 681.398 324.895C676.407 328.23 671.311 329.948 668.147 329.62C669.056 326.571 672.592 322.526 677.587 319.19Z" fill="#FFDB00"/>
<path d="M725.66 287.085C730.653 283.749 735.746 282.033 738.91 282.363C738.002 285.412 734.462 289.456 729.47 292.792C724.479 296.129 719.382 297.845 716.218 297.517C717.12 294.468 720.664 290.422 725.66 287.085Z" fill="#FFDB00"/>
<path d="M701.661 277.952C702.682 283.66 702.233 288.83 700.719 291.502C698.372 289.521 696.161 284.83 695.14 279.119C694.119 273.409 694.565 268.239 696.08 265.566C698.426 267.548 700.639 272.243 701.661 277.952Z" fill="#FFDB00"/>
<path d="M711.489 332.899C712.51 338.607 712.062 343.777 710.549 346.45C708.203 344.468 705.99 339.777 704.969 334.066C703.947 328.356 704.396 323.186 705.908 320.513C708.255 322.495 710.468 327.19 711.489 332.899Z" fill="#FFDB00"/>
<path d="M675.417 307.634C681.126 306.612 686.295 307.061 688.968 308.575C686.986 310.922 682.295 313.135 676.584 314.156C670.874 315.177 665.703 314.729 663.03 313.214C665.011 310.868 669.704 308.655 675.417 307.634Z" fill="#FFDB00"/>
<path d="M730.362 297.804C736.071 296.783 741.24 297.232 743.913 298.746C741.932 301.092 737.24 303.305 731.53 304.325C725.819 305.344 720.648 304.899 717.975 303.385C719.958 301.039 724.651 298.826 730.362 297.804Z" fill="#FFDB00"/>
<path d="M682.243 288.185C687.023 291.356 690.411 295.211 691.288 298.119C688.267 298.442 683.4 296.822 678.619 293.643C673.839 290.464 670.449 286.617 669.574 283.707C672.595 283.384 677.455 285.011 682.243 288.185Z" fill="#FFDB00"/>
<path d="M728.242 318.716C733.022 321.889 736.41 325.742 737.287 328.652C734.266 328.975 729.397 327.355 724.618 324.176C719.84 320.997 716.448 317.149 715.573 314.239C718.604 313.917 723.464 315.544 728.242 318.716Z" fill="#FFDB00"/>
<path d="M685.522 327.236C688.695 322.458 692.549 319.068 695.459 318.191C695.781 321.212 694.161 326.081 690.983 330.86C687.804 335.638 683.956 339.03 681.046 339.905C680.724 336.884 682.351 332.016 685.522 327.236Z" fill="#FFDB00"/>
<path d="M716.055 281.236C719.226 276.457 723.082 273.067 725.992 272.191C726.314 275.212 724.694 280.081 721.515 284.859C718.337 289.638 714.487 293.03 711.579 293.906C711.256 290.885 712.882 286.016 716.055 281.236Z" fill="#FFDB00"/>
<path d="M703.46 323.168C712.921 323.168 720.59 315.498 720.59 306.038C720.59 296.577 712.921 288.908 703.46 288.908C694 288.908 686.33 296.577 686.33 306.038C686.33 315.498 694 323.168 703.46 323.168Z" fill="#423C52"/>
<path d="M720.591 306.036C720.591 306.086 720.591 306.136 720.591 306.186C720.584 307.203 720.486 308.218 720.298 309.218C720.266 309.385 720.233 309.548 720.196 309.711C719.97 310.749 719.647 311.763 719.23 312.74C719.16 312.907 719.087 313.072 719.01 313.235C718.668 313.974 718.273 314.688 717.827 315.37C717.671 315.617 717.507 315.856 717.334 316.087C717.293 316.147 717.249 316.206 717.204 316.273C717.08 316.44 716.952 316.603 716.821 316.766C716.073 317.699 715.23 318.551 714.304 319.307C714.142 319.44 713.977 319.572 713.809 319.696C713.764 319.732 713.72 319.765 713.675 319.796C713.448 319.969 713.215 320.134 712.976 320.291C712.276 320.76 711.541 321.177 710.778 321.537C710.615 321.615 710.452 321.689 710.285 321.761C709.308 322.186 708.294 322.518 707.255 322.753C707.092 322.791 706.927 322.825 706.76 322.856C705.762 323.052 704.748 323.157 703.731 323.171C703.642 323.171 703.546 323.171 703.462 323.171C703.379 323.171 703.312 323.171 703.236 323.171C702.219 323.16 701.205 323.058 700.206 322.866C700.039 322.834 699.874 322.799 699.713 322.764C698.674 322.532 697.659 322.202 696.682 321.779C696.515 321.709 696.35 321.635 696.187 321.555C695.411 321.19 694.663 320.766 693.952 320.286C693.715 320.129 693.481 319.964 693.251 319.791L693.161 319.724C692.994 319.598 692.831 319.468 692.668 319.335C691.724 318.571 690.866 317.708 690.108 316.76C689.974 316.597 689.847 316.434 689.724 316.267C689.693 316.228 689.663 316.186 689.637 316.147C689.463 315.915 689.3 315.678 689.142 315.435C688.679 314.734 688.27 313.999 687.917 313.237C687.839 313.074 687.767 312.909 687.696 312.742C687.278 311.768 686.952 310.756 686.723 309.721C686.686 309.557 686.653 309.394 686.621 309.228C686.435 308.227 686.337 307.213 686.329 306.195C686.329 306.145 686.329 306.095 686.329 306.045C686.329 305.93 686.329 305.815 686.329 305.702C686.348 304.684 686.459 303.67 686.658 302.672C686.69 302.505 686.725 302.342 686.764 302.177C687.004 301.137 687.342 300.123 687.772 299.146C687.845 298.98 687.921 298.816 688 298.653C688.332 297.96 688.71 297.29 689.133 296.648C689.29 296.407 689.454 296.17 689.628 295.936C689.704 295.832 689.782 295.727 689.863 295.623C689.989 295.454 690.121 295.289 690.256 295.128C690.978 294.257 691.785 293.46 692.666 292.75C692.829 292.616 692.992 292.487 693.159 292.361C693.276 292.272 693.396 292.175 693.515 292.099C693.756 291.929 693.998 291.764 694.256 291.606C694.879 291.206 695.528 290.848 696.199 290.535C696.362 290.455 696.527 290.381 696.693 290.311C697.67 289.888 698.685 289.56 699.724 289.328C699.885 289.291 700.05 289.258 700.217 289.226C701.216 289.034 702.23 288.931 703.247 288.919H703.742C704.759 288.933 705.773 289.038 706.771 289.234C706.938 289.265 707.103 289.301 707.266 289.338C708.305 289.572 709.319 289.904 710.296 290.329C710.463 290.402 710.626 290.476 710.789 290.555C711.445 290.864 712.081 291.215 712.691 291.606C712.938 291.764 713.182 291.929 713.421 292.099C713.555 292.196 713.688 292.285 713.82 292.394C713.989 292.518 714.154 292.647 714.315 292.783C715.175 293.486 715.965 294.272 716.672 295.128C716.807 295.289 716.939 295.454 717.067 295.623C717.162 295.746 717.255 295.87 717.345 295.994C717.516 296.229 717.681 296.466 717.838 296.711C718.245 297.332 718.609 297.981 718.928 298.651C719.008 298.815 719.084 298.978 719.156 299.144C719.586 300.121 719.924 301.136 720.166 302.175C720.203 302.34 720.238 302.503 720.272 302.67C720.471 303.668 720.581 304.682 720.6 305.7C720.589 305.806 720.591 305.921 720.591 306.036Z" fill="#423C52"/>
<path d="M689.631 295.927V316.145C689.457 315.913 689.294 315.676 689.136 315.433V296.639C689.294 296.398 689.457 296.16 689.631 295.927Z" fill="#BCD235"/>
<path d="M693.155 292.351V319.729C692.988 319.603 692.825 319.474 692.662 319.34V292.741C692.825 292.607 692.988 292.483 693.155 292.351Z" fill="#BCD235"/>
<path d="M696.68 290.301V321.768C696.513 321.698 696.348 321.624 696.185 321.544V290.526C696.348 290.444 696.513 290.372 696.68 290.301Z" fill="#BCD235"/>
<path d="M700.204 289.217V322.858C700.037 322.827 699.872 322.791 699.711 322.756V289.319C699.872 289.282 700.037 289.249 700.204 289.217Z" fill="#BCD235"/>
<path d="M703.729 288.909V323.164C703.64 323.164 703.544 323.164 703.46 323.164C703.377 323.164 703.31 323.164 703.234 323.164V288.909H703.729Z" fill="#BCD235"/>
<path d="M707.252 289.332V322.749C707.089 322.788 706.924 322.821 706.757 322.853V289.224C706.926 289.256 707.089 289.291 707.252 289.332Z" fill="#BCD235"/>
<path d="M710.776 290.546V321.529C710.613 321.607 710.45 321.681 710.283 321.753V290.32C710.448 290.392 710.613 290.466 710.776 290.546Z" fill="#BCD235"/>
<path d="M714.302 292.774V319.299C714.14 319.433 713.975 319.564 713.807 319.689V292.385C713.976 292.511 714.141 292.64 714.302 292.774Z" fill="#BCD235"/>
<path d="M717.825 296.703V315.37C717.669 315.617 717.505 315.856 717.332 316.087V295.986C717.502 296.221 717.676 296.459 717.825 296.703Z" fill="#BCD235"/>
<path d="M713.673 319.789C713.446 319.962 713.213 320.127 712.974 320.284H693.952C693.714 320.127 693.481 319.962 693.251 319.789H713.673Z" fill="#BCD235"/>
<path d="M717.202 316.265C717.078 316.432 716.95 316.595 716.818 316.758H690.102C689.968 316.595 689.841 316.432 689.718 316.265H717.202Z" fill="#BCD235"/>
<path d="M719.228 312.74C719.157 312.907 719.085 313.072 719.007 313.235H687.911C687.833 313.072 687.761 312.907 687.69 312.74H719.228Z" fill="#BCD235"/>
<path d="M720.296 309.218C720.265 309.385 720.231 309.548 720.194 309.711H686.724C686.686 309.548 686.653 309.385 686.622 309.218H720.296Z" fill="#BCD235"/>
<path d="M720.59 306.036C720.59 306.086 720.59 306.136 720.59 306.186H686.33C686.33 306.136 686.33 306.086 686.33 306.036C686.33 305.921 686.33 305.806 686.33 305.693H720.587C720.588 305.806 720.59 305.921 720.59 306.036Z" fill="#BCD235"/>
<path d="M720.259 302.662H686.662C686.694 302.496 686.729 302.332 686.768 302.167H720.153C720.19 302.332 720.225 302.492 720.259 302.662Z" fill="#BCD235"/>
<path d="M719.143 299.137H687.776C687.848 298.97 687.924 298.807 688.004 298.644H718.915C718.994 298.807 719.07 298.97 719.143 299.137Z" fill="#BCD235"/>
<path d="M717.054 295.613H689.875C690.001 295.445 690.132 295.28 690.267 295.119H716.667C716.797 295.28 716.926 295.445 717.054 295.613Z" fill="#BCD235"/>
<path d="M713.414 292.09H693.511C693.752 291.919 693.995 291.754 694.252 291.597H712.672C712.924 291.754 713.169 291.927 713.414 292.09Z" fill="#BCD235"/>
<path d="M707.579 387.729V378.207C707.579 371.839 709.666 365.645 713.521 360.575C717.376 355.506 722.787 351.839 728.924 350.138L744.076 346.101L736.635 367.489C735.297 371.361 732.785 374.721 729.449 377.098C726.112 379.476 722.117 380.754 718.02 380.754C715.842 380.754 713.71 381.384 711.882 382.568C710.054 383.752 708.607 385.439 707.716 387.427L707.579 387.729Z" fill="#9BAD2E"/>
<path d="M707.551 387.421L707.414 387.729V378.207C707.413 371.838 709.501 365.645 713.356 360.575C717.212 355.505 722.623 351.839 728.76 350.138L743.911 346.101" stroke="white" stroke-width="5" stroke-miterlimit="10" stroke-linecap="round"/>
<path d="M665.258 383.972C665.258 392.265 668.552 400.218 674.416 406.082C680.28 411.946 688.233 415.241 696.526 415.241H697.639V408.481C697.639 401.981 695.056 395.747 690.46 391.15C685.864 386.554 679.63 383.972 673.13 383.972H665.258Z" fill="#9BAD2E"/>
<path d="M738.117 412.145C737.086 415.23 735.458 418.083 733.324 420.539C731.191 422.995 728.595 425.006 725.684 426.459C722.773 427.912 719.605 428.777 716.36 429.005C713.115 429.233 709.856 428.82 706.771 427.789L705.935 427.509L707.633 422.43C708.441 420.012 709.718 417.776 711.39 415.852C713.062 413.927 715.097 412.35 717.379 411.212C719.66 410.073 722.144 409.396 724.687 409.217C727.231 409.038 729.785 409.363 732.203 410.171L738.117 412.145Z" fill="#9BAD2E"/>
<path d="M702.976 431.738C702.976 431.738 698.945 405.552 677.769 390.856" stroke="#423C52" stroke-width="5" stroke-miterlimit="10" stroke-linecap="round"/>
<path d="M702.977 413.867C702.977 413.867 701.781 378.895 726.372 363.596" stroke="#423C52" stroke-width="5" stroke-miterlimit="10" stroke-linecap="round"/>
<path d="M702.977 466.321C702.977 466.321 686.329 429.26 724.518 416.05" stroke="#423C52" stroke-width="5" stroke-miterlimit="10" stroke-linecap="round"/>
<path d="M506.09 471.398H403.035C403.297 467.663 407.339 466.258 410.635 466.258C412.176 466.247 413.702 466.574 415.103 467.216C414.869 465.791 414.948 464.332 415.334 462.941C415.72 461.549 416.403 460.258 417.338 459.157C418.272 458.056 419.435 457.171 420.746 456.564C422.056 455.957 423.483 455.642 424.927 455.641C426.378 455.64 427.812 455.957 429.127 456.569C430.443 457.182 431.608 458.075 432.541 459.187C432.608 459.265 432.67 459.345 432.726 459.426C432.775 459.351 432.815 459.271 432.845 459.187C433.813 454.783 440.608 448.151 451.664 448.151C463.723 448.151 470.632 454.598 473.246 461.295C474.501 460.117 476.041 459.285 477.714 458.88C479.388 458.476 481.138 458.512 482.793 458.987C484.447 459.461 485.951 460.357 487.156 461.587C488.361 462.817 489.226 464.338 489.666 466.002C491.528 465.157 493.552 464.728 495.597 464.746C501.143 464.746 505.678 467.676 506.09 471.398Z" fill="#764327"/>
<path d="M460.958 458.944C462.545 458.944 463.831 457.658 463.831 456.071C463.831 454.485 462.545 453.198 460.958 453.198C459.372 453.198 458.085 454.485 458.085 456.071C458.085 457.658 459.372 458.944 460.958 458.944Z" fill="white"/>
<path d="M422.788 464.368C423.702 464.368 424.443 463.627 424.443 462.712C424.443 461.798 423.702 461.057 422.788 461.057C421.874 461.057 421.133 461.798 421.133 462.712C421.133 463.627 421.874 464.368 422.788 464.368Z" fill="white"/>
<path d="M456.211 480C459.856 480 462.811 478.731 462.811 477.166C462.811 475.601 459.856 474.332 456.211 474.332C452.565 474.332 449.61 475.601 449.61 477.166C449.61 478.731 452.565 480 456.211 480Z" fill="#423C52"/>
<path d="M469.884 476.325C471.732 476.325 473.231 475.681 473.231 474.888C473.231 474.095 471.732 473.452 469.884 473.452C468.035 473.452 466.536 474.095 466.536 474.888C466.536 475.681 468.035 476.325 469.884 476.325Z" fill="#423C52"/>
<path d="M811.338 470.315C811.338 470.365 811.338 470.415 811.338 470.464H685.363V469.822C685.975 468.185 686.928 466.696 688.159 465.455C689.389 464.213 690.87 463.247 692.502 462.62C694.133 461.993 695.88 461.72 697.625 461.818C699.371 461.916 701.075 462.384 702.626 463.191C703.485 460.58 705.19 458.33 707.471 456.798C709.753 455.266 712.48 454.539 715.222 454.733C717.963 454.926 720.562 456.029 722.606 457.866C724.649 459.703 726.022 462.17 726.505 464.875H734.774C735.621 460.59 740.467 458.612 744.757 458.612C745.33 458.613 745.902 458.655 746.469 458.74C746.373 458.12 746.325 457.494 746.325 456.866C746.325 448.946 753.885 442.522 763.208 442.522C771.734 442.522 778.792 447.897 779.929 454.878C781.696 453.697 783.743 453.006 785.864 452.872C787.984 452.739 790.103 453.169 792.003 454.118C793.904 455.068 795.52 456.503 796.687 458.279C797.854 460.054 798.531 462.107 798.649 464.228C800.023 463.386 801.606 462.944 803.218 462.951C807.703 462.95 811.338 466.247 811.338 470.315Z" fill="#764327"/>
<path d="M770.435 456.069C771.962 456.069 773.2 454.831 773.2 453.304C773.2 451.777 771.962 450.539 770.435 450.539C768.908 450.539 767.669 451.777 767.669 453.304C767.669 454.831 768.908 456.069 770.435 456.069Z" fill="white"/>
<path d="M219.881 473.266C307.054 473.266 377.722 470.411 377.722 466.888C377.722 463.366 307.054 460.51 219.881 460.51C132.708 460.51 62.0405 463.366 62.0405 466.888C62.0405 470.411 132.708 473.266 219.881 473.266Z" fill="#E5F1EF"/>
<path d="M212.041 297.656H224.897C231.74 297.654 238.367 300.058 243.618 304.446C248.87 308.834 252.412 314.928 253.626 321.663L280.721 458.566C280.966 459.918 281.677 461.141 282.732 462.022C283.786 462.903 285.117 463.385 286.491 463.385V463.385C287.745 463.385 288.966 462.983 289.974 462.237C290.983 461.492 291.726 460.443 292.094 459.244L306.594 410.427" stroke="#423C52" stroke-width="5" stroke-miterlimit="10" stroke-linecap="round"/>
<path d="M204.279 351.795H285.889C287.304 351.796 288.708 352.054 290.031 352.557L385.561 388.886H306.831C302.861 388.885 298.924 388.155 295.217 386.732L204.279 351.795Z" fill="#423C52"/>
<path d="M325.933 347.43L325.218 346.993C325.268 346.896 327.423 342.883 329.598 340.876C332.509 338.192 335.786 337.299 339.073 338.3L338.835 339.178C331.527 336.967 325.978 347.347 325.933 347.43Z" fill="#423C52"/>
<path d="M329.329 341.527C329.329 341.527 332.419 341.169 331.772 342.885C331.362 343.968 327.494 343.441 327.494 343.441C327.494 343.441 327.557 338.756 329.259 338.719C330.608 338.694 329.329 341.527 329.329 341.527Z" fill="#423C52"/>
<path d="M331.636 339.616C331.636 339.616 334.469 339.834 333.458 340.878C332.945 341.41 329.751 341.137 329.751 341.137C329.751 341.137 331.134 336.909 332.504 336.719C333.874 336.528 331.636 339.616 331.636 339.616Z" fill="#423C52"/>
<path d="M335.299 338.355C335.299 338.355 337.523 339.097 336.761 339.925C336.391 340.331 333.384 338.909 333.384 338.909C333.384 338.909 334.697 336.162 336.016 336.537C336.882 336.782 335.299 338.355 335.299 338.355Z" fill="#423C52"/>
<path d="M336.28 338.283C336.28 338.283 341.116 336.615 340.891 338.854C340.723 340.546 336.28 338.283 336.28 338.283Z" fill="#423C52"/>
<path d="M326.107 349.871L325.284 349.827C325.345 348.075 325.135 346.325 324.663 344.637C323.64 341.102 321.561 338.913 318.48 338.129L318.684 337.241C322.02 338.09 324.363 340.554 325.458 344.368C325.962 346.157 326.181 348.014 326.107 349.871Z" fill="#423C52"/>
<path d="M324.382 342.212C324.382 342.212 321.848 340.933 322.167 342.349C322.33 343.069 325.209 344.492 325.209 344.492C325.209 344.492 326.226 340.162 325.153 339.289C324.08 338.416 324.382 342.212 324.382 342.212Z" fill="#423C52"/>
<path d="M321.913 339.245C321.913 339.245 319.637 338.722 319.847 339.829C319.947 340.364 323.263 340.707 323.263 340.707C323.263 340.707 323.57 337.681 322.247 337.319C321.37 337.08 321.913 339.245 321.913 339.245Z" fill="#423C52"/>
<path d="M321.107 338.67C321.107 338.67 317.843 334.739 316.866 336.772C316.13 338.307 321.107 338.67 321.107 338.67Z" fill="#423C52"/>
<path d="M325.548 345.209L324.807 344.811C325.554 343.071 326.053 341.235 326.289 339.356C326.756 335.395 325.761 332.331 323.324 330.25L323.841 329.525C326.48 331.786 327.605 335.227 327.097 339.477C326.857 341.452 326.336 343.382 325.548 345.209Z" fill="#423C52"/>
<path d="M326.691 336.411C326.691 336.411 325.179 334.329 324.886 335.768C324.738 336.498 326.726 339.078 326.726 339.078C326.726 339.078 329.349 336.077 328.395 334.179C327.772 332.91 326.691 336.411 326.691 336.411Z" fill="#423C52"/>
<path d="M325.93 332.8C325.93 332.8 324.108 331.317 323.843 332.418C323.713 332.954 326.536 334.739 326.536 334.739C326.536 334.739 328.048 332.103 327.012 331.184C326.328 330.576 325.93 332.8 325.93 332.8Z" fill="#423C52"/>
<path d="M325.442 331.916C325.442 331.916 324.132 326.867 322.429 328.298C321.144 329.377 325.442 331.916 325.442 331.916Z" fill="#423C52"/>
<path d="M311.932 392.876C311.515 392.779 311.152 392.525 310.917 392.168C310.682 391.811 310.594 391.377 310.67 390.956L319.06 350.09C319.581 347.662 322.171 346.157 324.699 346.811L325.976 347.143C328.504 347.797 329.913 350.338 329.041 352.674L314.06 391.831C313.893 392.234 313.585 392.564 313.193 392.756C312.802 392.949 312.353 392.991 311.932 392.876Z" fill="#FFB68D"/>
<path d="M348.009 355.087C347.703 356.13 346.001 355.248 344.808 354.47C344.745 354.457 344.682 354.444 344.622 354.434C345.03 354.805 345.338 355.285 344.884 355.632C344.578 355.865 343.141 354.931 342.333 354.368C341.842 354.428 341.357 354.53 340.884 354.673C341.536 354.976 342.181 355.441 341.49 355.928C341.086 356.214 339.558 355.899 338.604 355.665C338.47 355.739 338.333 355.819 338.196 355.904C339.028 356.106 340.081 356.57 339.469 357.572C339.052 358.266 337.119 357.847 336 357.537C335.35 358.105 334.747 358.725 334.198 359.391L333.577 358.805C334.089 358.18 334.647 357.594 335.245 357.051C335.464 356.108 336.357 352.72 337.788 352.974C338.706 353.135 338.135 354.407 337.701 355.172H337.716C337.851 355.089 337.987 355.005 338.124 354.929C338.763 353.865 340.266 351.573 341.321 351.636C342.348 351.697 341.065 353.176 340.355 353.914C340.943 353.716 341.547 353.575 342.161 353.491C342.756 352.813 343.912 351.697 344.782 352.143C345.319 352.423 344.676 353.07 344.188 353.465C344.353 353.482 344.515 353.502 344.676 353.53C346.111 353.463 348.459 353.563 348.009 355.087Z" fill="#423C52"/>
<path d="M332.645 362.301L331.852 362.073C332.237 360.349 332.357 358.578 332.209 356.818C331.864 353.133 330.243 350.568 327.39 349.193L327.735 348.357C330.841 349.851 332.674 352.746 333.038 356.731C333.198 358.597 333.066 360.476 332.645 362.301Z" fill="#423C52"/>
<path d="M332.38 354.39C332.38 354.39 330.143 352.631 330.193 354.091C330.219 354.833 332.764 356.803 332.764 356.803C332.764 356.803 334.56 352.725 333.674 351.656C332.788 350.586 332.38 354.39 332.38 354.39Z" fill="#423C52"/>
<path d="M330.519 350.974C330.519 350.974 328.394 350.014 328.393 351.146C328.393 351.702 331.564 352.683 331.564 352.683C331.564 352.683 332.426 349.754 331.193 349.137C330.391 348.729 330.519 350.974 330.519 350.974Z" fill="#423C52"/>
<path d="M329.837 350.249C329.837 350.249 327.379 345.728 326.05 347.545C325.049 348.916 329.837 350.249 329.837 350.249Z" fill="#423C52"/>
<path d="M332.963 357.583L332.318 357.027C333.372 355.452 334.199 353.735 334.772 351.928C335.96 348.11 335.558 344.885 333.573 342.364L334.203 341.756C336.363 344.511 336.826 348.131 335.543 352.229C334.944 354.128 334.075 355.931 332.963 357.583Z" fill="#423C52"/>
<path d="M335.708 349.102C335.708 349.102 334.617 346.752 334.066 348.114C333.785 348.807 335.249 351.745 335.249 351.745C335.249 351.745 338.365 349.295 337.79 347.233C337.41 345.864 335.708 349.102 335.708 349.102Z" fill="#423C52"/>
<path d="M335.631 345.398C335.631 345.398 334.13 343.573 333.665 344.613C333.44 345.117 335.865 347.432 335.865 347.432C335.865 347.432 337.828 345.124 336.988 344.014C336.434 343.28 335.631 345.398 335.631 345.398Z" fill="#423C52"/>
<path d="M335.319 344.431C335.319 344.431 334.975 339.187 333.049 340.266C331.592 341.08 335.319 344.431 335.319 344.431Z" fill="#423C52"/>
<path d="M311.153 399.521C310.776 399.357 310.479 399.051 310.326 398.669C310.173 398.288 310.176 397.861 310.336 397.482L326.341 360.134C327.314 357.921 330.062 356.937 332.327 357.991L333.473 358.525C335.738 359.58 336.572 362.232 335.286 364.299L313.374 398.896C313.14 399.25 312.787 399.507 312.379 399.622C311.972 399.736 311.536 399.701 311.153 399.521Z" fill="#FFB68D"/>
<path d="M318.89 353.189C318.18 353.132 317.465 353.165 316.764 353.287C317.151 353.435 317.438 353.658 317.21 354.008C317.045 354.26 315.674 354.067 314.801 353.917C314.409 354.104 314.033 354.324 313.677 354.574C314.285 354.599 314.877 354.759 314.493 355.283C314.261 355.606 312.966 355.852 312.083 355.984C311.995 356.082 311.898 356.182 311.82 356.286C312.571 356.186 313.526 356.223 313.364 357.109C313.251 357.73 311.561 358.036 310.521 358.162C310.164 358.779 309.865 359.427 309.626 360.099L308.849 359.813C309.07 359.189 309.343 358.583 309.665 358.004C309.52 357.191 309.153 354.572 310.406 354.312C311.194 354.149 311.183 355.165 311.086 355.858C311.173 355.75 311.262 355.647 311.355 355.541C311.54 354.542 312.011 352.511 312.888 352.233C313.724 351.967 313.244 353.295 312.903 354.075C313.328 353.745 313.782 353.454 314.259 353.206C314.539 352.522 315.108 351.469 315.939 351.519C316.434 351.549 316.209 352.112 315.961 352.544C316.535 352.391 317.123 352.298 317.716 352.266C318.893 351.806 320.511 351.389 320.643 352.505C320.723 353.128 319.852 353.243 318.89 353.189Z" fill="#423C52"/>
<path d="M308.883 362.673C308.833 362.364 307.615 355.057 300.826 354.818L300.872 353.908C308.327 354.169 309.684 362.416 309.697 362.499L308.883 362.673L309.289 362.586L308.883 362.673Z" fill="#423C52"/>
<path d="M306.755 356.911C306.755 356.911 304.297 356.34 304.835 357.38C305.107 357.908 307.889 358.534 307.889 358.534C307.889 358.534 308.004 355.028 306.905 354.531C305.806 354.034 306.755 356.911 306.755 356.911Z" fill="#423C52"/>
<path d="M304.056 355.026C304.056 355.026 301.964 354.996 302.345 355.815C302.531 356.212 305.496 355.934 305.496 355.934C305.496 355.934 305.22 353.548 303.991 353.485C303.191 353.445 304.056 355.026 304.056 355.026Z" fill="#423C52"/>
<path d="M303.244 354.716C303.244 354.716 299.669 352.218 299.18 353.947C298.811 355.25 303.244 354.716 303.244 354.716Z" fill="#423C52"/>
<path d="M308.362 359.057L307.57 358.818C307.905 357.376 308.009 355.89 307.878 354.416C307.576 351.326 306.16 349.15 303.67 347.953L304.017 347.115C310.628 350.299 308.384 358.97 308.362 359.057Z" fill="#423C52"/>
<path d="M307.739 352.051C307.739 352.051 306.035 350.692 306.039 351.849C306.039 352.438 308.252 354.103 308.252 354.103C308.252 354.103 310.013 351.358 308.838 350.049C308.052 349.18 307.739 352.051 307.739 352.051Z" fill="#423C52"/>
<path d="M306.421 349.398C306.421 349.398 304.555 348.548 304.52 349.445C304.503 349.88 307.3 350.794 307.3 350.794C307.3 350.794 308.152 348.512 307.077 347.973C306.371 347.617 306.421 349.398 306.421 349.398Z" fill="#423C52"/>
<path d="M305.828 348.796C305.828 348.796 303.769 345.115 302.531 346.498C301.602 347.541 305.828 348.796 305.828 348.796Z" fill="#423C52"/>
<path d="M307.561 398.659C306.699 398.659 305.988 398.103 305.926 397.38L303.072 362.994C302.922 360.955 304.883 359.216 307.335 359.227H308.577C311.035 359.239 312.959 360.983 312.768 363.029L309.222 397.391C309.148 398.112 308.423 398.663 307.561 398.659Z" fill="#FFB68D"/>
<path d="M342.827 365.081C343.627 362.923 348.971 361.122 351.785 361.85L354.459 362.951C351.679 363.214 348.593 364.21 348.102 367.266L342.827 365.081Z" fill="#423C52"/>
<path d="M362.051 399.014C367.106 387.765 365.401 376.039 358.242 372.821C351.083 369.604 341.182 376.115 336.127 387.363C331.072 398.611 332.777 410.338 339.936 413.555C347.094 416.772 356.996 410.262 362.051 399.014Z" fill="#FF7500"/>
<path d="M335.045 386.879C340.101 375.631 338.395 363.904 331.237 360.687C324.078 357.47 314.177 363.98 309.121 375.229C304.066 386.477 305.772 398.204 312.93 401.421C320.089 404.638 329.99 398.128 335.045 386.879Z" fill="#FF7500"/>
<path d="M348.232 392.681C353.664 380.596 352.397 368.25 345.404 365.107C338.411 361.964 328.338 369.214 322.907 381.3C317.475 393.386 318.741 405.731 325.734 408.874C332.728 412.017 342.8 404.767 348.232 392.681Z" fill="#FF7500"/>
<path d="M319.121 397.906C318.694 392.985 319.749 387.026 322.399 381.13C325.712 373.757 330.74 368.185 335.763 365.672" stroke="white" stroke-width="5" stroke-miterlimit="10" stroke-linecap="round"/>
<path d="M351.378 372.76C352.798 378.17 351.803 385.549 348.507 392.889C345.234 400.175 340.272 405.706 335.316 408.258" stroke="white" stroke-width="5" stroke-miterlimit="10" stroke-linecap="round"/>
<path d="M238.219 395.602C241.367 394.509 242.65 389.969 241.084 385.462C239.519 380.956 235.698 378.189 232.55 379.283C229.402 380.376 228.119 384.916 229.685 389.422C231.25 393.929 235.071 396.695 238.219 395.602Z" fill="#FFDB00"/>
<path d="M246.079 405.823C249.212 404.743 250.78 401.049 249.581 397.57C248.383 394.092 244.872 392.147 241.739 393.226C238.606 394.306 237.038 398 238.236 401.479C239.435 404.957 242.946 406.902 246.079 405.823Z" fill="#FFDB00"/>
<path d="M248.411 368.404C248.493 364.291 244.099 360.869 238.598 360.759C233.097 360.65 228.571 363.895 228.489 368.007C228.408 372.119 232.801 375.542 238.302 375.651C243.803 375.761 248.329 372.516 248.411 368.404Z" fill="#FFDB00"/>
<path d="M273.958 401.986C274.04 397.873 269.647 394.451 264.146 394.341C258.645 394.232 254.119 397.477 254.037 401.589C253.955 405.701 258.348 409.124 263.849 409.233C269.35 409.343 273.876 406.098 273.958 401.986Z" fill="#FFDB00"/>
<path d="M257.477 355.705C258.939 351.772 257.298 347.533 253.81 346.236C250.323 344.939 246.31 347.075 244.847 351.008C243.384 354.941 245.026 359.181 248.514 360.478C252.001 361.775 256.014 359.638 257.477 355.705Z" fill="#FFDB00"/>
<path d="M289.722 359.535C291.156 355.68 288.889 351.279 284.659 349.706C280.428 348.133 275.837 349.983 274.403 353.838C272.969 357.693 275.236 362.093 279.467 363.667C283.697 365.24 288.288 363.39 289.722 359.535Z" fill="#FFDB00"/>
<path d="M265.695 372.708C270.611 369.308 272.74 363.869 270.451 360.559C268.162 357.25 262.321 357.323 257.405 360.723C252.489 364.123 250.36 369.563 252.649 372.872C254.938 376.182 260.779 376.108 265.695 372.708Z" fill="#FFDB00"/>
<path d="M269.46 355.145C273.264 353.834 274.77 348.191 272.823 342.539C270.876 336.888 266.214 333.37 262.409 334.68C258.605 335.991 257.099 341.635 259.046 347.286C260.993 352.937 265.655 356.456 269.46 355.145Z" fill="#FFDB00"/>
<path d="M291.238 390.108C295.165 389.232 297.295 383.793 295.994 377.959C294.693 372.125 290.455 368.106 286.527 368.981C282.599 369.857 280.47 375.296 281.771 381.13C283.072 386.964 287.31 390.984 291.238 390.108Z" fill="#FFDB00"/>
<path d="M248.09 391.714C252.114 391.714 255.376 388.452 255.376 384.428C255.376 380.404 252.114 377.142 248.09 377.142C244.066 377.142 240.804 380.404 240.804 384.428C240.804 388.452 244.066 391.714 248.09 391.714Z" fill="#FFDB00"/>
<path d="M276.292 374.434C278.912 374.434 281.036 372.31 281.036 369.691C281.036 367.071 278.912 364.947 276.292 364.947C273.673 364.947 271.549 367.071 271.549 369.691C271.549 372.31 273.673 374.434 276.292 374.434Z" fill="#FFDB00"/>
<path d="M236.678 358.251C238.974 358.251 240.835 356.389 240.835 354.093C240.835 351.797 238.974 349.936 236.678 349.936C234.382 349.936 232.521 351.797 232.521 354.093C232.521 356.389 234.382 358.251 236.678 358.251Z" fill="#FFDB00"/>
<path d="M250.611 344.155C253.957 342.745 255.972 339.946 255.111 337.903C254.25 335.859 250.839 335.346 247.494 336.756C244.148 338.166 242.133 340.965 242.994 343.008C243.855 345.052 247.265 345.565 250.611 344.155Z" fill="#FFDB00"/>
<path d="M269.511 391.867C274.18 391.026 277.412 387.279 276.731 383.498C276.05 379.717 271.713 377.334 267.045 378.175C262.376 379.016 259.144 382.762 259.825 386.543C260.506 390.324 264.842 392.708 269.511 391.867Z" fill="#FFDB00"/>
<path d="M282.536 403.713C285.492 403.18 287.312 399.547 286.6 395.598C285.889 391.649 282.916 388.879 279.96 389.411C277.005 389.944 275.185 393.577 275.896 397.526C276.608 401.475 279.58 404.245 282.536 403.713Z" fill="#FFDB00"/>
<path d="M299.932 379.573C299.398 406.47 282.047 413.103 260.823 412.683C239.599 412.262 222.52 404.94 223.054 378.046C223.588 351.152 244.497 329.755 262.456 330.109C278.93 330.441 300.466 352.679 299.932 379.573Z" stroke="white" stroke-width="4" stroke-miterlimit="10" stroke-linecap="round"/>
<path d="M265.346 330.541L263.715 412.555" stroke="white" stroke-width="4" stroke-miterlimit="10" stroke-linecap="round"/>
<path d="M271.208 332.141L269.62 412.115" stroke="white" stroke-width="4" stroke-miterlimit="10" stroke-linecap="round"/>
<path d="M277.04 335.408L275.531 411.305" stroke="white" stroke-width="4" stroke-miterlimit="10" stroke-linecap="round"/>
<path d="M282.841 340.159L281.462 409.571" stroke="white" stroke-width="4" stroke-miterlimit="10" stroke-linecap="round"/>
<path d="M288.612 346.39L287.413 406.722" stroke="white" stroke-width="4" stroke-miterlimit="10" stroke-linecap="round"/>
<path d="M294.331 355.402L293.417 401.363" stroke="white" stroke-width="4" stroke-miterlimit="10" stroke-linecap="round"/>
<path d="M229.512 353.558L228.596 399.621" stroke="white" stroke-width="4" stroke-miterlimit="10" stroke-linecap="round"/>
<path d="M235.582 344.779L234.375 405.484" stroke="white" stroke-width="4" stroke-miterlimit="10" stroke-linecap="round"/>
<path d="M241.603 338.596L240.207 408.749" stroke="white" stroke-width="4" stroke-miterlimit="10" stroke-linecap="round"/>
<path d="M247.58 334.452L246.064 410.72" stroke="white" stroke-width="4" stroke-miterlimit="10" stroke-linecap="round"/>
<path d="M253.528 331.788L251.936 411.95" stroke="white" stroke-width="4" stroke-miterlimit="10" stroke-linecap="round"/>
<path d="M259.452 330.424L257.822 412.438" stroke="white" stroke-width="4" stroke-miterlimit="10" stroke-linecap="round"/>
<path d="M231.909 349.558L296.931 395.365" stroke="white" stroke-width="4" stroke-miterlimit="10" stroke-linecap="round"/>
<path d="M235.397 345.045L298.763 389.682" stroke="white" stroke-width="4" stroke-miterlimit="10" stroke-linecap="round"/>
<path d="M239.32 340.898L299.487 383.288" stroke="white" stroke-width="4" stroke-miterlimit="10" stroke-linecap="round"/>
<path d="M243.664 336.924L299.838 376.497" stroke="white" stroke-width="4" stroke-miterlimit="10" stroke-linecap="round"/>
<path d="M248.972 333.692L299 368.934" stroke="white" stroke-width="4" stroke-miterlimit="10" stroke-linecap="round"/>
<path d="M255.178 331.089L296.364 360.171" stroke="white" stroke-width="4" stroke-miterlimit="10" stroke-linecap="round"/>
<path d="M263.792 330.187L290.804 349.217" stroke="white" stroke-width="4" stroke-miterlimit="10" stroke-linecap="round"/>
<path d="M225.492 393.842L251.769 411.919" stroke="white" stroke-width="4" stroke-miterlimit="10" stroke-linecap="round"/>
<path d="M223.384 385.386L262.169 412.708" stroke="white" stroke-width="4" stroke-miterlimit="10" stroke-linecap="round"/>
<path d="M222.986 378.133L271.353 412.208" stroke="white" stroke-width="4" stroke-miterlimit="10" stroke-linecap="round"/>
<path d="M223.573 371.576L279.041 410.651" stroke="white" stroke-width="4" stroke-miterlimit="10" stroke-linecap="round"/>
<path d="M224.814 365.476L285.323 408.104" stroke="white" stroke-width="4" stroke-miterlimit="10" stroke-linecap="round"/>
<path d="M226.654 359.8L290.318 404.651" stroke="white" stroke-width="4" stroke-miterlimit="10" stroke-linecap="round"/>
<path d="M229.03 354.503L294.149 400.379" stroke="white" stroke-width="4" stroke-miterlimit="10" stroke-linecap="round"/>
<path d="M253.617 331.249L248.035 322.897C247.877 322.662 247.798 322.383 247.809 322.1C247.819 321.817 247.919 321.545 248.093 321.322C248.268 321.099 248.508 320.937 248.78 320.858C249.052 320.78 249.342 320.79 249.608 320.886L253.795 322.397C254.547 322.668 255.361 322.723 256.143 322.556C256.925 322.389 257.644 322.006 258.22 321.451L259.806 319.922C260.215 319.528 260.698 319.219 261.227 319.013C261.757 318.807 262.321 318.709 262.889 318.724C263.457 318.738 264.016 318.866 264.534 319.099C265.052 319.331 265.518 319.665 265.906 320.08L266.985 321.233C267.566 321.854 268.32 322.288 269.149 322.48C269.978 322.671 270.846 322.611 271.641 322.308L274.643 321.16C275.002 321.023 275.396 321.003 275.766 321.104C276.137 321.206 276.466 321.423 276.705 321.723C276.944 322.024 277.081 322.394 277.096 322.778C277.111 323.162 277.003 323.54 276.788 323.859L271.209 332.14" stroke="white" stroke-width="4" stroke-miterlimit="10" stroke-linecap="round"/>
<path d="M347.595 398.848L346.561 398.095C356.166 384.405 377.655 366.069 377.87 365.885L378.69 366.871C378.475 367.053 357.107 385.288 347.595 398.848Z" fill="#9BAD2E"/>
<path d="M348.885 400.74L347.773 400.118C350.518 394.995 356.407 386.719 368.864 376.38C373.282 372.702 377.906 369.278 382.713 366.126L383.392 367.216C378.623 370.341 374.038 373.737 369.657 377.386C362.873 383.019 353.762 391.645 348.885 400.74Z" fill="#9BAD2E"/>
<path d="M346.774 398.373L345.914 397.424C345.96 397.38 350.685 392.957 356.223 385.562C361.326 378.741 368.184 367.922 371.88 355.115L373.094 355.485C369.34 368.489 362.388 379.455 357.215 386.365C351.61 393.845 346.82 398.329 346.774 398.373Z" fill="#9BAD2E"/>
<path d="M348.87 398.896L347.877 398.092L379.464 357.746L380.458 358.549L348.87 398.896Z" fill="#9BAD2E"/>
<path d="M352.303 408.31L351.208 407.66C363.09 392.889 388.659 372.219 388.917 372.013L389.751 372.921C389.497 373.127 364.071 393.684 352.303 408.31Z" fill="#9BAD2E"/>
<path d="M353.591 410.086L352.397 409.572C355.895 404.132 363.168 395.193 377.976 383.505C386.804 376.53 394.253 371.805 394.327 371.759L394.997 372.786C394.924 372.832 387.544 377.512 378.782 384.435C370.712 390.804 359.8 400.423 353.591 410.086Z" fill="#9BAD2E"/>
<path d="M351.424 407.917L350.54 407.05C350.596 407.002 356.249 402.064 363.06 394.04C369.336 386.648 377.907 375.051 383.104 361.771L384.43 362.023C379.154 375.505 370.465 387.262 364.104 394.75C357.213 402.863 351.48 407.867 351.424 407.917Z" fill="#9BAD2E"/>
<path d="M353.727 408.229L352.681 407.52L395.215 358.961L396.263 359.667L353.727 408.229Z" fill="#9BAD2E"/>
<path d="M353.842 401.595L352.646 398.286L395.075 351.847L396.12 352.555L353.842 401.595Z" fill="#9BAD2E"/>
<path d="M355.571 391.163C355.571 391.163 352.42 394.263 350.073 399.638C350.025 399.823 349.973 400.023 349.919 400.222C349.339 402.325 347.421 403.756 345.286 403.335C344.259 403.133 343.354 402.531 342.77 401.663C342.187 400.794 341.971 399.729 342.172 398.702C342.455 397.26 343.922 396.212 345.849 395.432C345.849 395.432 345.849 395.432 345.86 395.432C346.09 395.326 349.808 393.568 353.252 389.347C353.245 389.334 355.252 389.221 355.571 391.163Z" fill="white"/>
<path d="M361.552 392.683C361.552 392.683 357.863 396.928 356.732 400.996C356.154 403.1 354.234 404.533 352.099 404.11C351.072 403.908 350.167 403.306 349.583 402.437C349 401.568 348.784 400.504 348.985 399.476C349.203 398.364 350.299 397.474 351.696 396.696H351.709C351.776 396.665 352.117 396.501 352.647 396.207C354.084 395.41 356.897 393.66 359.281 391.052C359.27 391.037 361.359 390.759 361.552 392.683Z" fill="white"/>
<path d="M352.636 396.192C352.106 396.487 351.765 396.65 351.698 396.681C351.997 396.513 352.314 396.351 352.636 396.192Z" fill="white"/>
<path d="M361.865 399.754C361.865 399.754 357.146 405.482 355.458 410.786C354.879 412.89 352.824 414.297 350.683 413.874C349.656 413.672 348.751 413.071 348.167 412.202C347.582 411.333 347.367 410.268 347.567 409.241C347.979 407.157 351.46 405.534 353.943 403.801C355.569 402.205 357.535 400.214 359.413 398.157C359.413 398.149 361.671 397.832 361.865 399.754Z" fill="white"/>
<path d="M382.734 388.889L370.936 412.799C368.531 417.674 364.81 421.779 360.193 424.65C355.577 427.52 350.249 429.041 344.813 429.042H261.917C254.821 429.041 247.889 426.902 242.026 422.905C236.163 418.907 231.641 413.235 229.049 406.629L208.245 353.315L295.217 386.735C298.924 388.159 302.861 388.889 306.831 388.889H382.734Z" fill="#C8D9D2"/>
<path d="M382.734 388.889L370.937 412.799C368.531 417.674 364.81 421.779 360.193 424.65C355.577 427.52 350.249 429.041 344.813 429.042H340.55C333.454 429.041 326.523 426.903 320.66 422.906C314.797 418.909 310.275 413.238 307.682 406.633L300.476 388.257C302.569 388.678 304.699 388.89 306.835 388.889H382.734Z" fill="#E5F1EF"/>
<path d="M210.868 352.166H202.655C202.436 352.163 202.224 352.237 202.054 352.376C201.885 352.514 201.771 352.708 201.731 352.923C201.691 353.138 201.728 353.36 201.836 353.55C201.944 353.74 202.116 353.886 202.321 353.962L295.393 389.725C299.377 391.256 303.608 392.04 307.876 392.04H388.624C388.791 392.04 388.952 391.982 389.08 391.875C389.207 391.768 389.294 391.62 389.324 391.457C389.354 391.293 389.325 391.124 389.244 390.979C389.162 390.834 389.032 390.722 388.876 390.663L379.455 387.038" stroke="#423C52" stroke-width="5" stroke-miterlimit="10"/>
<path d="M353.635 465.897C365.058 465.897 374.319 453.825 374.319 438.934C374.319 424.043 365.058 411.971 353.635 411.971C342.212 411.971 332.952 424.043 332.952 438.934C332.952 453.825 342.212 465.897 353.635 465.897Z" fill="#423C52"/>
<path d="M347.389 463.387C355.362 463.387 361.826 452.439 361.826 438.934C361.826 425.429 355.362 414.481 347.389 414.481C339.416 414.481 332.952 425.429 332.952 438.934C332.952 452.439 339.416 463.387 347.389 463.387Z" fill="white" stroke="#423C52" stroke-width="5" stroke-miterlimit="10" stroke-linecap="round"/>
<path d="M346.915 443.996C348.566 443.996 349.905 441.729 349.905 438.934C349.905 436.138 348.566 433.872 346.915 433.872C345.264 433.872 343.925 436.138 343.925 438.934C343.925 441.729 345.264 443.996 346.915 443.996Z" fill="white" stroke="#423C52" stroke-width="5" stroke-miterlimit="10" stroke-linecap="round"/>
<path d="M147.552 297.656H160.406C167.249 297.654 173.876 300.058 179.127 304.446C184.378 308.834 187.921 314.928 189.135 321.663L216.23 458.566C216.475 459.918 217.186 461.141 218.241 462.022C219.295 462.903 220.626 463.385 222 463.385V463.385C223.254 463.385 224.475 462.982 225.483 462.237C226.492 461.492 227.235 460.443 227.605 459.244L243.419 401.786C243.726 400.671 244.271 399.635 245.017 398.751C245.763 397.867 246.692 397.155 247.739 396.665C248.787 396.175 249.929 395.918 251.086 395.912C252.242 395.905 253.387 396.15 254.44 396.629L347.395 438.93" stroke="#423C52" stroke-width="5" stroke-miterlimit="10" stroke-linecap="round"/>
</svg>
