<svg width="603" height="677" viewBox="0 0 603 677" fill="none" xmlns="http://www.w3.org/2000/svg">
<path fill-rule="evenodd" clip-rule="evenodd" d="M494.225 376.498C494.146 376.71 494.061 376.923 493.969 377.136C493.263 378.791 492.215 380.424 490.814 382.045C489.413 383.667 487.67 385.266 485.585 386.855C483.5 388.433 481.084 389.988 478.337 391.521C475.579 393.044 472.513 394.544 469.137 396C467.387 396.753 465.557 397.497 463.646 398.23C480.517 391.786 491.318 384.402 494.225 376.498ZM495.017 372.194V372.172C495.017 372.176 495.017 372.179 495.017 372.183C495.016 370.532 494.674 368.881 493.969 367.241C493.263 365.597 492.215 363.953 490.814 362.332C489.413 360.71 487.67 359.11 485.585 357.522C483.5 355.944 481.084 354.389 478.337 352.855C475.579 351.333 472.513 349.833 469.137 348.376C465.75 346.92 462.066 345.497 458.072 344.129C454.079 342.75 449.809 341.426 445.253 340.147C440.697 338.867 435.876 337.643 430.802 336.473C425.727 335.304 420.41 334.19 414.861 333.142C409.312 332.094 403.553 331.112 397.574 330.185C391.606 329.27 385.461 328.42 379.129 327.637C372.786 326.865 366.31 326.159 359.669 325.519C353.039 324.89 346.288 324.327 339.415 323.853C332.542 323.368 325.581 322.97 318.543 322.65C311.505 322.32 304.4 322.077 297.263 321.922C290.114 321.757 282.944 321.68 275.773 321.68C268.591 321.68 261.421 321.757 254.283 321.922C247.135 322.077 240.041 322.32 232.992 322.65C225.954 322.97 218.993 323.368 212.12 323.853C205.247 324.327 198.496 324.89 191.866 325.519C185.225 326.159 178.749 326.865 172.417 327.637C166.085 328.42 159.929 329.27 153.961 330.185C147.982 331.112 142.223 332.094 136.674 333.142C131.125 334.19 125.808 335.304 120.733 336.473C115.659 337.643 110.838 338.867 106.282 340.147C101.726 341.426 97.4565 342.75 93.463 344.129C89.4806 345.497 85.785 346.92 82.4093 348.376C79.0225 349.833 75.9557 351.333 73.2088 352.855C70.4619 354.389 68.0349 355.944 65.961 357.522C63.876 359.11 62.133 360.71 60.7319 362.332C59.3309 363.953 58.2719 365.597 57.5658 367.241C56.8724 368.881 56.5194 370.532 56.5178 372.183C56.5178 372.179 56.5178 372.176 56.5178 372.172V372.194V447.143C56.5178 460.732 68.5559 473.423 89.3076 484.195C101.446 523.272 126.671 594.139 160.514 634.561C193.51 673.955 249.01 677 268.768 677C308.228 677 358.533 673.768 391.529 634.34C432.33 585.634 457.755 516.453 469.084 480.368C485.607 470.463 495.017 459.152 495.017 447.143V372.194ZM56.7592 374.564C58.4517 382.93 68.9778 390.765 86.2377 397.583C84.9199 397.06 83.6432 396.533 82.4093 396C79.0225 394.544 75.9557 393.044 73.2088 391.521C70.4619 389.988 68.0349 388.433 65.961 386.855C63.876 385.266 62.133 383.667 60.7319 382.045C59.3309 380.424 58.2719 378.791 57.5658 377.136C57.2035 376.279 56.9341 375.422 56.7592 374.564ZM210.944 420.442C211.668 420.493 212.393 420.544 213.12 420.594C212.787 420.571 212.453 420.547 212.12 420.524C211.728 420.497 211.336 420.469 210.944 420.442ZM336.454 420.727C338.896 420.566 341.32 420.394 343.725 420.214C342.294 420.321 340.857 420.424 339.415 420.524C338.43 420.593 337.443 420.661 336.454 420.727Z" fill="url(#paint0_radial_172_113)"/>
<path d="M296.663 451.064H119.042C119.042 451.064 149.831 571.376 198.294 629.26C231.289 668.654 286.79 671.699 306.548 671.699C346.008 671.699 396.313 668.466 429.309 629.039C486.817 560.389 513.779 451.064 513.779 451.064H296.663Z" fill="#E36F44"/>
<path d="M532.797 366.892C532.797 368.547 532.455 370.191 531.749 371.835C531.043 373.489 529.995 375.122 528.594 376.744C527.193 378.365 525.45 379.965 523.365 381.554C521.28 383.131 518.864 384.687 516.117 386.22C513.359 387.742 510.292 389.243 506.917 390.699C503.53 392.155 499.845 393.578 495.852 394.957C491.858 396.325 487.589 397.66 483.033 398.928C478.477 400.208 473.656 401.433 468.582 402.602C463.507 403.771 458.19 404.886 452.641 405.934C447.092 406.982 441.333 407.974 435.354 408.89C429.386 409.806 423.241 410.655 416.909 411.438C410.566 412.222 404.09 412.928 397.449 413.557C390.819 414.185 384.068 414.748 377.195 415.222C370.322 415.708 363.361 416.105 356.323 416.436C349.285 416.756 342.18 416.998 335.043 417.164C327.894 417.318 320.723 417.407 313.553 417.407C306.371 417.407 299.201 417.318 292.063 417.164C284.915 416.998 277.821 416.756 270.772 416.436C263.734 416.105 256.773 415.708 249.9 415.222C243.027 414.748 236.276 414.185 229.646 413.557C223.005 412.928 216.529 412.222 210.197 411.438C203.865 410.655 197.709 409.806 191.741 408.89C185.762 407.974 180.003 406.982 174.454 405.934C168.905 404.886 163.588 403.771 158.513 402.602C153.439 401.433 148.618 400.208 144.062 398.928C139.506 397.66 135.236 396.325 131.243 394.957C127.26 393.578 123.565 392.155 120.189 390.699C116.802 389.243 113.735 387.742 110.989 386.22C108.242 384.687 105.815 383.131 103.741 381.554C101.656 379.965 99.9127 378.365 98.5117 376.744C97.1107 375.122 96.0516 373.489 95.3456 371.835C94.6506 370.191 94.2976 368.547 94.2976 366.892C94.2976 365.238 94.6506 363.583 95.3456 361.939C96.0516 360.295 97.1107 358.652 98.5117 357.03C99.9127 355.408 101.656 353.809 103.741 352.22C105.815 350.643 108.242 349.087 110.989 347.554C113.735 346.031 116.802 344.531 120.189 343.075C123.565 341.619 127.26 340.196 131.243 338.828C135.236 337.449 139.506 336.125 144.062 334.845C148.618 333.566 153.439 332.341 158.513 331.172C163.588 330.002 168.905 328.888 174.454 327.84C180.003 326.792 185.762 325.81 191.741 324.884C197.709 323.968 203.865 323.119 210.197 322.335C216.529 321.563 223.005 320.857 229.646 320.217C236.276 319.588 243.027 319.026 249.9 318.551C256.773 318.066 263.734 317.669 270.772 317.349C277.821 317.018 284.915 316.775 292.063 316.621C299.201 316.455 306.371 316.378 313.553 316.378C320.723 316.378 327.894 316.455 335.043 316.621C342.18 316.775 349.285 317.018 356.323 317.349C363.361 317.669 370.322 318.066 377.195 318.551C384.068 319.026 390.819 319.588 397.449 320.217C404.09 320.857 410.566 321.563 416.909 322.335C423.241 323.119 429.386 323.968 435.354 324.884C441.333 325.81 447.092 326.792 452.641 327.84C458.19 328.888 463.507 330.002 468.582 331.172C473.656 332.341 478.477 333.566 483.033 334.845C487.589 336.125 491.858 337.449 495.852 338.828C499.845 340.196 503.53 341.619 506.917 343.075C510.292 344.531 513.359 346.031 516.117 347.554C518.864 349.087 521.28 350.643 523.365 352.22C525.45 353.809 527.193 355.408 528.594 357.03C529.995 358.652 531.043 360.295 531.749 361.939C532.455 363.583 532.797 365.238 532.797 366.892Z" fill="#E36F44"/>
<path d="M123.863 392.122C161.801 407.213 232.448 417.385 313.553 417.385C394.647 417.385 465.305 407.213 503.232 392.122C465.305 377.042 394.647 366.87 313.553 366.87C232.448 366.87 161.801 377.064 123.863 392.122Z" fill="#671F11"/>
<path d="M441.587 340.008C441.719 340.902 441.499 341.829 440.903 342.81C440.307 343.792 439.359 344.796 438.057 345.833C436.755 346.87 435.122 347.918 433.159 348.966C431.206 350.025 428.956 351.062 426.407 352.088C423.87 353.114 421.079 354.107 418.056 355.067C415.034 356.037 411.823 356.942 408.426 357.813C405.039 358.674 401.52 359.468 397.89 360.196C394.261 360.924 390.587 361.564 386.859 362.127C383.13 362.701 379.423 363.164 375.739 363.55C372.054 363.936 368.458 364.212 364.961 364.399C361.464 364.576 358.132 364.653 354.955 364.631C351.778 364.609 348.832 364.488 346.096 364.256C343.361 364.024 340.912 363.704 338.727 363.285C336.543 362.855 334.668 362.347 333.123 361.741C331.568 361.134 330.365 360.45 329.505 359.689C328.644 358.928 328.148 358.111 328.004 357.218C327.872 356.335 328.104 355.398 328.699 354.416C329.295 353.434 330.244 352.43 331.546 351.393C332.847 350.356 334.48 349.319 336.444 348.26C338.396 347.212 340.647 346.175 343.195 345.149C345.732 344.112 348.512 343.119 351.535 342.159C354.569 341.2 357.779 340.284 361.166 339.424C364.564 338.563 368.072 337.769 371.701 337.041C375.331 336.313 379.015 335.662 382.744 335.099C386.473 334.537 390.179 334.062 393.864 333.676C397.548 333.301 401.134 333.014 404.631 332.838C408.128 332.65 411.47 332.573 414.637 332.595C417.814 332.617 420.77 332.749 423.506 332.97C426.231 333.202 428.691 333.533 430.875 333.952C433.059 334.371 434.924 334.89 436.479 335.496C438.035 336.092 439.237 336.776 440.098 337.537C440.958 338.298 441.455 339.126 441.587 340.008Z" fill="#56861D"/>
<path d="M296.355 373.997C296.2 381.543 274.346 387.257 247.495 386.772C220.666 386.264 193.241 377.88 193.396 370.334C193.539 362.778 221.173 358.927 248.025 359.435C274.865 359.931 296.487 366.462 296.355 373.997Z" fill="#6AAB1C"/>
<path d="M367.377 338.585C366.781 346.108 387.984 353.93 414.736 356.048C441.488 358.166 463.661 353.775 464.279 346.241C464.875 338.706 443.672 330.896 416.92 328.778C390.146 326.682 367.972 331.05 367.377 338.585Z" fill="#6AAB1C"/>
<path d="M279.939 394.659C282.785 401.654 264.936 415.509 240.07 425.581C215.194 435.664 192.722 438.18 189.887 431.185C187.041 424.191 204.89 410.336 229.767 400.253C254.621 390.159 277.082 387.665 279.939 394.659ZM267.639 373.754C269.669 381.024 251.819 392.31 227.792 398.973C203.754 405.625 182.639 405.129 180.61 397.859C178.58 390.578 196.429 379.292 220.467 372.64C244.505 365.977 265.609 366.485 267.639 373.754ZM241.924 348.955C243.965 356.236 228.09 366.981 206.49 372.971C184.901 378.961 165.761 377.902 163.731 370.621C161.701 363.352 177.576 352.607 199.154 346.616C220.765 340.626 239.894 341.685 241.924 348.955Z" fill="#85CA36"/>
<path d="M321.76 436.503C320.701 443.982 299.818 447.192 275.129 443.684C250.44 440.165 231.289 431.263 232.371 423.783C233.43 416.304 254.324 413.082 279.002 416.601C303.668 420.121 322.831 429.023 321.76 436.503Z" fill="#9ADB6F"/>
<path d="M327.21 437.716C322.378 437.716 318.164 434.197 317.425 429.31C297.413 297.591 334.281 105.22 419.248 39.7801C423.55 36.4485 429.794 37.2318 433.159 41.5562C436.512 45.8917 435.718 52.1025 431.372 55.4562C354.15 114.928 317.888 300.327 337.028 426.331C337.867 431.737 334.138 436.778 328.71 437.606C328.192 437.672 327.685 437.716 327.21 437.716Z" fill="#56861D"/>
<path d="M327.431 292.55C328.567 300.007 350.994 302.82 377.548 298.783C404.079 294.767 424.686 285.445 423.55 277.988C422.414 270.531 399.975 267.717 373.433 271.755C346.88 275.76 326.294 285.07 327.431 292.55ZM329.196 324.895C330.332 332.352 354.503 334.879 383.174 330.543C411.845 326.197 434.163 316.632 433.026 309.153C431.89 301.695 407.731 299.169 379.059 303.504C350.388 307.851 328.06 317.415 329.196 324.895Z" fill="#56861D"/>
<path d="M333.95 264.783C335.87 272.086 356.974 272.869 381.1 266.548C405.215 260.227 423.208 249.162 421.288 241.87C419.369 234.556 398.265 233.773 374.139 240.105C350.024 246.448 332.031 257.491 333.95 264.783ZM337.271 231.953C339.521 239.167 358.672 239.597 380.085 232.945C401.465 226.282 416.975 215.03 414.714 207.837C412.463 200.611 393.312 200.192 371.9 206.844C350.509 213.507 335.009 224.76 337.271 231.953ZM339.224 202.498C341.584 208.543 359.125 207.385 378.386 199.894C397.648 192.393 411.36 181.427 408.999 175.382C406.627 169.337 389.098 170.484 369.837 177.985C350.564 185.454 336.874 196.43 339.224 202.498ZM354.161 170.175C356.268 175.58 370.896 174.974 386.803 168.774C402.722 162.596 413.919 153.186 411.812 147.781C409.705 142.364 395.077 142.982 379.169 149.171C363.24 155.37 352.042 164.758 354.161 170.175ZM366.317 134.498C367.244 140.224 379.688 142.982 394.128 140.654C408.547 138.315 419.49 131.763 418.553 126.037C417.626 120.312 405.182 117.554 390.742 119.881C376.312 122.209 365.38 128.751 366.317 134.498ZM380.957 110.769C381.927 116.759 395.618 119.506 411.525 116.925C427.444 114.332 439.557 107.404 438.586 101.414C437.615 95.424 423.925 92.6661 408.006 95.2586C392.099 97.84 379.986 104.779 380.957 110.769ZM402.424 83.9621C403.296 89.3014 415.717 91.7174 430.202 89.3787C444.676 87.0289 455.707 80.807 454.825 75.4677C453.953 70.1283 441.532 67.7124 427.047 70.0511C412.596 72.4119 401.564 78.6448 402.424 83.9621ZM420.097 58.7105C420.869 63.3769 431.338 65.5722 443.506 63.5975C455.663 61.6339 464.908 56.2394 464.147 51.562C463.385 46.8955 452.905 44.7002 440.748 46.6749C428.58 48.6496 419.336 54.0441 420.097 58.7105Z" fill="#56861D"/>
<path d="M433.368 43.928C435.773 47.9987 446.33 46.2337 456.954 39.9787C467.577 33.7347 474.229 25.3617 471.825 21.291C469.42 17.2203 458.851 18.9853 448.239 25.2293C437.615 31.4622 430.963 39.8463 433.368 43.928Z" fill="#56861D"/>
<path d="M426.562 42.8028C431.107 44.1597 437.671 35.7205 441.212 23.9496C444.753 12.1567 443.948 1.52215 439.425 0.143187C434.88 -1.21371 428.316 7.22554 424.775 18.9964C421.233 30.7893 422.039 41.4459 426.562 42.8028ZM225.42 288.314C225.42 295.859 247.186 301.982 274.026 301.982C300.877 301.982 322.643 295.859 322.643 288.314C322.643 280.757 300.877 274.634 274.026 274.634C247.186 274.634 225.42 280.757 225.42 288.314ZM219.165 315.43C218.437 322.942 239.508 331.128 266.227 333.676C292.946 336.235 315.185 332.22 315.914 324.707C316.642 317.195 295.571 309.009 268.852 306.461C242.133 303.89 219.894 307.917 219.165 315.43ZM209.16 346.164C208.432 353.688 231.885 362.094 261.527 364.94C291.169 367.786 315.803 363.991 316.531 356.467C317.259 348.955 293.795 340.549 264.153 337.703C234.5 334.856 209.888 338.651 209.16 346.164ZM239.718 254.402C239.078 261.937 257.743 269.615 281.395 271.589C305.036 273.564 324.706 269.041 325.346 261.529C325.974 253.994 307.309 246.316 283.668 244.341C260.016 242.366 240.346 246.867 239.718 254.402ZM254.202 228.29C253.871 235.847 271.103 242.719 292.681 243.69C314.27 244.639 332.053 239.3 332.384 231.765C332.715 224.219 315.483 217.336 293.905 216.365C272.316 215.405 254.544 220.744 254.202 228.29Z" fill="#56861D"/>
<path d="M273.022 198.78C271.754 205.322 285.212 213.43 303.062 216.872C320.911 220.314 336.41 217.788 337.679 211.235C338.948 204.693 325.489 196.585 307.64 193.143C289.79 189.701 274.291 192.227 273.022 198.78ZM281.671 165.255C279.156 171.454 290.783 182.001 307.629 188.829C324.463 195.647 340.172 196.165 342.688 189.999C345.203 183.799 333.597 173.253 316.73 166.435C299.873 159.606 284.186 159.088 281.671 165.255ZM288.765 127.526C285.245 132.634 295.064 145.486 310.718 156.22C326.372 166.953 341.882 171.488 345.423 166.38C348.943 161.261 339.124 148.409 323.481 137.675C307.827 126.941 292.295 122.407 288.765 127.526ZM309.835 111.199C306.316 116.307 314.513 128.045 328.159 137.4C341.794 146.754 355.716 150.174 359.235 145.067C362.754 139.948 354.558 128.21 340.922 118.855C327.276 109.5 313.365 106.08 309.835 111.199ZM322.886 82.4947C318.539 86.9405 324.629 99.9027 336.499 111.42C348.369 122.926 361.486 128.662 365.832 124.217C370.168 119.771 364.078 106.809 352.208 95.2915C340.36 83.7743 327.221 78.0489 322.886 82.4947ZM339.908 61.9867C335.572 66.4215 340.922 78.6446 351.833 89.2461C362.754 99.8476 375.121 104.856 379.467 100.388C383.803 95.9423 378.463 83.7192 367.542 73.1177C356.621 62.5162 344.254 57.5409 339.908 61.9867ZM357.426 43.9057C353.157 48.2743 357.757 59.6701 367.73 69.3228C377.691 78.9756 389.208 83.2779 393.478 78.9094C397.747 74.5408 393.147 63.134 383.174 53.4813C373.201 43.8285 361.695 39.5151 357.426 43.9057Z" fill="#56861D"/>
<path d="M400.88 39.6149C401.763 41.0049 402.579 42.417 403.34 43.8621C404.09 45.2962 404.752 46.7303 405.337 48.1645C405.922 49.5986 406.418 50.9996 406.815 52.3786C407.212 53.7465 407.51 55.0593 407.698 56.3169C407.896 57.5745 407.985 58.7549 407.962 59.8471C407.951 60.9502 407.83 61.9431 407.598 62.8366C407.367 63.7302 407.047 64.5024 406.617 65.1533C406.186 65.8042 405.668 66.3337 405.05 66.7198C404.443 67.117 403.748 67.3707 402.965 67.481C402.193 67.5913 401.354 67.5582 400.45 67.3927C399.545 67.2162 398.586 66.9073 397.582 66.4661C396.578 66.0138 395.541 65.4401 394.482 64.7341C393.423 64.0281 392.353 63.2117 391.272 62.274C390.19 61.3363 389.131 60.2994 388.072 59.1631C387.013 58.0379 385.998 56.8244 385.005 55.5337C384.013 54.254 383.075 52.9191 382.192 51.5291C381.299 50.1392 380.482 48.7271 379.732 47.2819C378.982 45.8478 378.309 44.4137 377.725 42.9796C377.14 41.5454 376.643 40.1444 376.246 38.7765C375.849 37.3975 375.562 36.0847 375.364 34.8271C375.165 33.5695 375.077 32.3891 375.099 31.297C375.121 30.1938 375.242 29.201 375.463 28.3074C375.695 27.4138 376.026 26.6416 376.445 25.9907C376.875 25.3399 377.394 24.8103 378.011 24.4242C378.629 24.0271 379.324 23.7844 380.096 23.663C380.869 23.5527 381.707 23.5858 382.623 23.7513C383.527 23.9278 384.476 24.2367 385.48 24.678C386.484 25.1303 387.521 25.7039 388.58 26.4099C389.639 27.116 390.709 27.9323 391.79 28.87C392.871 29.8077 393.941 30.8447 394.989 31.981C396.048 33.1172 397.074 34.3197 398.056 35.6104C399.049 36.8901 399.987 38.2359 400.88 39.6149Z" fill="#56861D"/>
<path d="M403.053 10.182C398.188 11.8588 397.372 22.2728 401.244 33.4479C405.116 44.612 412.199 52.3121 417.064 50.6133C421.929 48.9254 422.745 38.5335 418.873 27.3474C415.001 16.1943 407.918 8.51624 403.053 10.182Z" fill="#56861D"/>
<path d="M292.769 439.68C287.595 438.919 283.866 434.23 284.33 428.968C298.362 276.962 240.269 169.149 120.729 125.419C115.589 123.566 112.963 117.874 114.85 112.733C116.703 107.603 122.373 104.911 127.569 106.842C256.353 153.936 319.047 268.986 304.099 430.788C303.602 436.227 298.77 440.242 293.332 439.735C293.133 439.735 292.957 439.724 292.769 439.68Z" fill="#56861D"/>
<path d="M288.654 312.837C288.511 320.394 266.657 326.097 239.806 325.601C212.955 325.093 191.321 318.573 191.454 311.017C191.608 303.471 213.484 297.757 240.313 298.242C267.153 298.761 288.786 305.291 288.654 312.837ZM288.621 345.535C288.467 353.092 266.613 358.795 239.773 358.31C212.921 357.835 185.519 349.429 185.662 341.872C185.794 334.327 213.44 330.477 240.291 330.973C267.12 331.459 288.753 337.989 288.621 345.535Z" fill="#56861D"/>
<path d="M285.587 288.788C284.572 296.268 263.723 299.654 239 296.323C214.3 292.991 195.072 284.232 196.076 276.764C197.08 269.284 217.952 265.897 242.652 269.229C267.385 272.56 286.591 281.32 285.587 288.788ZM271.721 255.892C270.717 263.371 251.897 267.034 229.69 264.033C207.483 261.065 190.307 252.56 191.31 245.08C192.314 237.612 211.134 233.949 233.341 236.939C255.548 239.929 272.724 248.412 271.721 255.892Z" fill="#56861D"/>
<path d="M263.502 225.245C263.579 231.732 246.866 237.182 226.204 237.402C205.519 237.623 188.718 232.548 188.641 226.062C188.575 219.564 205.277 214.114 225.939 213.894C246.601 213.673 263.425 218.748 263.502 225.245ZM237.566 200.821C237.622 206.624 223.843 211.5 206.777 211.687C189.689 211.864 175.811 207.308 175.734 201.505C175.678 195.702 189.468 190.837 206.534 190.65C223.611 190.44 237.511 194.996 237.566 200.821ZM212.955 172.238C214.223 177.908 203.721 185.09 189.446 188.289C175.193 191.488 162.595 189.481 161.315 183.821C160.047 178.151 170.549 170.969 184.824 167.77C199.099 164.571 211.686 166.568 212.955 172.238ZM190.527 155.668C191.851 161.581 180.19 169.237 164.459 172.756C148.739 176.287 134.894 174.356 133.57 168.443C132.247 162.53 143.907 154.863 159.638 151.344C175.359 147.814 189.181 149.744 190.527 155.668ZM160.587 138.79C161.779 144.063 151.144 150.936 136.825 154.157C122.539 157.356 109.985 155.679 108.793 150.417C107.602 145.133 118.236 138.271 132.544 135.061C146.853 131.862 159.407 133.528 160.587 138.79ZM134.74 121.922C135.788 126.534 126.885 132.469 114.85 135.171C102.825 137.863 92.2236 136.319 91.1976 131.685C90.1606 127.074 99.0632 121.139 111.077 118.447C123.112 115.756 133.703 117.311 134.74 121.922Z" fill="#56861D"/>
<path d="M116.913 113.152C116.206 117.818 105.737 120.124 93.5474 118.26C81.3684 116.406 72.0686 111.122 72.7967 106.434C73.5027 101.767 83.9718 99.4616 96.1619 101.315C108.319 103.179 117.619 108.475 116.913 113.152Z" fill="#56861D"/>
<path d="M122.804 109.6C119.108 112.556 109.875 107.162 102.175 97.5422C94.4854 87.9225 91.2421 77.7402 94.9487 74.7948C98.6554 71.8383 107.9 77.2328 115.589 86.8524C123.267 96.4611 126.51 106.632 122.804 109.6ZM386.991 290.509C388.205 297.966 367.686 307.465 341.199 311.723C314.7 315.981 292.229 313.4 291.037 305.942C289.835 298.485 310.343 288.975 336.841 284.717C363.328 280.459 385.8 283.04 386.991 290.509ZM403.462 314.293C404.675 321.751 375.926 336.588 349.417 340.869C322.919 345.127 300.447 342.545 299.245 335.088C298.032 327.631 318.539 318.121 345.038 313.863C371.569 309.605 402.248 306.836 403.462 314.293ZM413.765 345.513C414.979 352.981 378.795 369.717 352.297 373.975C325.809 378.233 303.338 375.652 302.146 368.194C300.933 360.737 321.452 351.227 347.939 346.969C374.437 342.711 412.552 338.056 413.765 345.513ZM365.601 254.965C367.917 262.157 351.48 273.862 328.898 281.088C306.316 288.347 286.128 288.38 283.812 281.187C281.506 273.983 297.932 262.29 320.514 255.053C343.096 247.816 363.295 247.783 365.601 254.965ZM350.719 228.621C353.025 235.825 338.231 247 317.668 253.586C297.094 260.172 278.538 259.708 276.233 252.527C273.916 245.323 288.71 234.148 309.284 227.562C329.847 220.965 348.391 221.428 350.719 228.621ZM323.537 197.159C327.144 202.774 317.701 215.295 302.422 225.124C287.143 234.964 271.809 238.395 268.202 232.769C264.583 227.154 274.027 214.644 289.305 204.804C304.584 194.985 319.896 191.554 323.537 197.159ZM303.007 169.281C307.64 174.08 300.8 188.19 287.728 200.799C274.644 213.408 260.281 219.74 255.626 214.942C250.981 210.143 257.821 196.022 270.905 183.413C283.977 170.804 298.362 164.483 303.007 169.281ZM282.322 136.892C287.507 140.334 283.194 155.9 272.692 171.697C262.178 187.462 249.459 197.478 244.274 194.037C239.1 190.595 243.402 175.029 253.905 159.232C264.418 143.467 277.137 133.461 282.322 136.892ZM256.663 129.589C261.848 133.031 258.626 146.964 249.459 160.721C240.292 174.488 228.664 182.839 223.479 179.397C218.305 175.956 221.527 162.023 230.694 148.266C239.839 134.52 251.467 126.147 256.663 129.589ZM233.849 107.824C239.53 110.339 238.703 124.625 231.996 139.727C225.288 154.83 215.25 165.023 209.568 162.508C203.887 159.993 204.703 145.718 211.411 130.615C218.096 115.513 228.157 105.297 233.849 107.824ZM210.385 95.1262C216.066 97.6304 215.68 110.957 209.513 124.868C203.346 138.779 193.716 148.023 188.034 145.486C182.342 142.96 182.739 129.667 188.906 115.756C195.073 101.834 204.681 92.611 210.385 95.1262ZM187.372 84.8557C192.966 87.3268 192.943 99.6051 187.317 112.292C181.691 124.956 172.601 133.23 167.008 130.759C161.426 128.288 161.437 116.009 167.074 103.323C172.7 90.6584 181.79 82.3846 187.372 84.8557Z" fill="#6AAB1C"/>
<path d="M160.995 74.4417C167.007 75.578 169.809 87.5364 167.239 101.15C164.669 114.763 157.719 124.901 151.695 123.765C145.683 122.628 142.881 110.67 145.451 97.0567C148.022 83.4215 154.972 73.3055 160.995 74.4417ZM132.456 70.5696C137.597 70.3159 142.23 79.6928 142.815 91.4747C143.389 103.29 139.704 113.053 134.552 113.295C129.411 113.56 124.778 104.183 124.193 92.3903C123.598 80.5974 127.304 70.8123 132.456 70.5696ZM329.869 466.818C329.438 466.818 328.997 466.796 328.545 466.729C323.106 466.001 319.3 461.015 320.028 455.598C347.63 250.353 474.34 158.581 547.723 148.95C553.073 148.244 558.137 152.039 558.843 157.466C559.571 162.894 555.754 167.869 550.315 168.575C482.735 177.445 365.81 263.922 339.687 458.224C339.014 463.21 334.767 466.818 329.869 466.818Z" fill="#6AAB1C"/>
<path d="M463.011 311.712C463.044 312.605 462.79 313.51 462.238 314.404C461.698 315.308 460.87 316.191 459.767 317.062C458.664 317.934 457.296 318.772 455.685 319.577C454.064 320.383 452.222 321.133 450.148 321.85C448.074 322.556 445.812 323.207 443.374 323.792C440.925 324.376 438.344 324.895 435.619 325.336C432.894 325.777 430.081 326.13 427.18 326.417C424.278 326.693 421.355 326.891 418.387 326.991C415.431 327.101 412.485 327.123 409.584 327.046C406.672 326.98 403.836 326.814 401.09 326.572C398.343 326.329 395.728 325.998 393.246 325.59C390.764 325.182 388.458 324.696 386.34 324.145C384.222 323.582 382.336 322.953 380.659 322.269C378.982 321.585 377.57 320.846 376.401 320.063C375.242 319.269 374.36 318.452 373.742 317.592C373.135 316.731 372.815 315.849 372.782 314.955C372.749 314.062 373.003 313.157 373.554 312.263C374.095 311.359 374.922 310.476 376.025 309.605C377.129 308.733 378.497 307.895 380.107 307.09C381.729 306.284 383.571 305.534 385.645 304.817C387.719 304.111 389.981 303.46 392.419 302.875C394.868 302.291 397.449 301.772 400.174 301.331C402.899 300.89 405.712 300.526 408.613 300.25C411.514 299.974 414.438 299.775 417.405 299.676C420.362 299.566 423.307 299.544 426.22 299.621C429.121 299.687 431.956 299.842 434.703 300.095C437.45 300.338 440.065 300.658 442.547 301.077C445.029 301.485 447.334 301.971 449.453 302.522C451.571 303.085 453.457 303.703 455.134 304.398C456.811 305.082 458.223 305.821 459.392 306.604C460.55 307.398 461.433 308.215 462.051 309.075C462.658 309.936 462.977 310.818 463.011 311.712Z" fill="#6AAB1C"/>
<path d="M389.804 283.57C390.091 291.115 408.459 296.587 430.831 295.771C453.225 294.966 471.152 288.192 470.876 280.646C470.589 273.09 452.221 267.629 429.849 268.445C407.455 269.251 389.528 276.013 389.804 283.57Z" fill="#6AAB1C"/>
<path d="M400.99 253.85C400.273 260.304 416.379 267.353 436.92 269.604C457.472 271.854 474.704 268.423 475.421 261.97C476.127 255.516 460.032 248.467 439.48 246.216C418.928 243.988 401.674 247.397 400.99 253.85ZM429.154 232.063C428.525 237.854 441.774 244.021 458.741 245.863C475.719 247.706 489.983 244.529 490.623 238.759C491.252 232.978 478.002 226.801 461.036 224.958C444.058 223.116 429.794 226.304 429.154 232.063ZM456.447 206.028C454.626 211.555 464.411 219.718 478.289 224.296C492.167 228.864 504.887 228.102 506.718 222.587C508.538 217.06 498.764 208.896 484.886 204.318C470.997 199.74 458.278 200.501 456.447 206.028ZM480.407 191.731C478.51 197.489 489.376 206.238 504.688 211.29C520 216.332 533.955 215.758 535.853 210.01C537.761 204.241 526.895 195.504 511.583 190.44C496.271 185.388 482.316 185.961 480.407 191.731ZM511.837 177.853C510.149 182.983 520.055 190.848 533.977 195.449C547.888 200.038 560.564 199.596 562.263 194.456C563.951 189.326 554.044 181.438 540.122 176.871C526.211 172.271 513.536 172.723 511.837 177.853ZM539.206 163.589C537.717 168.09 546.013 174.841 557.707 178.702C569.411 182.552 580.112 182.056 581.601 177.555C583.091 173.054 574.795 166.303 563.101 162.431C551.396 158.57 540.707 159.088 539.206 163.589Z" fill="#6AAB1C"/>
<path d="M557.828 156.573C558.082 161.295 568.253 164.593 580.575 163.942C592.887 163.291 602.65 158.923 602.407 154.19C602.142 149.469 591.971 146.181 579.66 146.832C567.348 147.494 557.563 151.852 557.828 156.573Z" fill="#6AAB1C"/>
<path d="M552.312 152.469C555.699 155.757 565.429 151.289 574.034 142.474C582.628 133.66 586.853 123.842 583.466 120.532C580.068 117.234 570.349 121.702 561.733 130.516C553.129 139.352 548.915 149.171 552.312 152.469ZM271.688 306.759C269.768 314.073 289.239 325.501 315.186 332.33C341.143 339.159 363.758 338.762 365.678 331.481C367.619 324.167 348.126 312.727 322.18 305.898C296.222 299.081 273.607 299.445 271.688 306.759ZM296.443 273.487C293.442 280.426 308.644 293.664 330.432 303.074C352.208 312.484 372.297 314.492 375.298 307.575C378.287 300.636 363.085 287.398 341.309 277.988C319.543 268.556 299.466 266.548 296.443 273.487ZM313.851 248.71C310.85 255.649 324.485 268.203 344.309 276.774C364.133 285.357 382.656 286.692 385.656 279.753C388.646 272.814 375.011 260.26 355.187 251.688C335.363 243.117 316.852 241.793 313.851 248.71ZM343.979 220.049C339.82 225.278 347.994 238.671 362.247 249.945C376.5 261.209 391.404 266.118 395.563 260.9C399.722 255.671 391.536 242.278 377.283 231.004C363.052 219.74 348.126 214.82 343.979 220.049ZM367.134 194.312C362.048 198.648 367.465 213.353 379.247 227.176C391.04 240.999 404.708 248.699 409.794 244.363C414.879 240.028 409.463 225.311 397.692 211.5C385.91 197.677 372.22 189.977 367.134 194.312ZM390.885 164.085C385.392 167.009 388.172 182.928 397.074 199.652C405.977 216.365 417.659 227.562 423.153 224.65C428.658 221.726 425.878 205.807 416.975 189.083C408.062 172.37 396.379 161.173 390.885 164.085ZM417.141 159.331C411.647 162.243 413.489 176.441 421.256 191.025C429.022 205.598 439.778 215.063 445.272 212.151C450.765 209.227 448.923 195.04 441.157 180.457C433.391 165.851 422.635 156.407 417.141 159.331ZM441.973 139.871C436.071 141.823 435.487 156.11 440.694 171.808C445.889 187.484 454.88 198.626 460.793 196.673C466.695 194.721 467.28 180.434 462.073 164.736C456.877 149.06 447.875 137.94 441.973 139.871ZM466.563 129.534C460.661 131.487 459.745 144.769 464.533 159.22C469.321 173.672 477.992 183.788 483.894 181.835C489.796 179.883 490.711 166.601 485.924 152.149C481.136 137.72 472.476 127.593 466.563 129.534ZM490.458 121.558C484.644 123.467 483.463 135.69 487.821 148.862C492.19 162.023 500.419 171.135 506.233 169.226C512.047 167.307 513.216 155.084 508.858 141.923C504.523 128.751 496.271 119.639 490.458 121.558Z" fill="#85CA36"/>
<path d="M517.75 113.759C511.66 114.299 507.7 125.927 508.913 139.739C510.149 153.539 516.073 164.317 522.162 163.777C528.252 163.236 532.201 151.609 530.999 137.786C529.785 123.974 523.839 113.218 517.75 113.759ZM546.531 112.678C541.424 111.939 535.908 120.786 534.176 132.491C532.444 144.173 535.169 154.267 540.276 155.017C545.373 155.757 550.911 146.898 552.621 135.205C554.342 123.522 551.617 113.439 546.531 112.678Z" fill="#85CA36"/>
<path d="M293.928 436.668C289.702 436.37 285.974 433.38 284.97 429.045C283.646 423.386 250.374 290.873 48.1079 285.059C43.1547 285.28 38.3228 280.371 38.4772 274.877C38.6207 269.416 43.1878 265.114 48.6705 265.268C266.58 271.402 303.955 423.077 304.286 424.621C305.5 429.939 302.168 435.223 296.851 436.447C295.847 436.668 294.876 436.745 293.928 436.668Z" fill="#6AAB1C"/>
<path d="M222.277 324.001C224.902 329.936 211.686 341.52 192.778 349.837C173.87 358.166 156.395 360.097 153.77 354.162C151.144 348.238 164.349 336.644 183.258 328.337C202.188 319.997 219.651 318.066 222.277 324.001ZM188.829 311.745C191.178 317.062 180.411 326.936 164.79 333.819C149.17 340.703 134.597 341.961 132.247 336.644C129.897 331.326 140.664 321.453 156.285 314.569C171.895 307.685 186.468 306.428 188.829 311.745ZM154.917 295.131C158.326 299.842 151.497 310.587 139.638 319.125C127.79 327.664 115.424 330.775 112.015 326.064C108.606 321.354 115.446 310.609 127.294 302.07C139.142 293.532 151.508 290.41 154.917 295.131ZM127.757 288.722C131.32 293.631 123.598 305.247 110.525 314.679C97.4418 324.111 83.9721 327.752 80.4199 322.843C76.8566 317.934 84.5678 306.317 97.6514 296.885C110.724 287.453 124.194 283.813 127.757 288.722ZM93.5918 284.96C96.7579 289.328 89.6976 299.842 77.8054 308.413C65.9242 316.985 53.7121 320.372 50.546 316.003C47.3799 311.635 54.4402 301.121 66.3324 292.55C78.2136 283.978 90.4146 280.591 93.5918 284.96ZM63.1773 279.621C65.9573 283.46 60.1105 292.395 50.1158 299.621C40.1321 306.814 29.7733 309.55 26.9933 305.722C24.2243 301.883 30.0712 292.936 40.0549 285.721C50.0606 278.506 60.4084 275.771 63.1773 279.621Z" fill="#85CA36"/>
<path d="M43.3201 278.54C44.5115 283.118 35.7964 289.329 23.8712 292.418C11.9459 295.506 1.30027 294.293 0.10885 289.704C-1.08257 285.126 7.64351 278.915 19.5688 275.826C31.5051 272.759 42.1507 273.973 43.3201 278.54Z" fill="#85CA36"/>
<path d="M47.3467 272.969C45.1073 277.128 34.4838 275.815 23.6286 269.99C12.7623 264.187 5.77925 256.079 8.00766 251.909C10.2471 247.75 20.8706 249.063 31.7258 254.888C42.5921 260.712 49.5752 268.799 47.3467 272.969ZM361.541 335.474C365.59 341.851 350.476 358.652 327.806 372.971C305.125 387.29 283.458 393.744 279.421 387.367C275.372 380.991 290.486 364.19 313.156 349.871C335.826 335.552 357.503 329.098 361.541 335.474ZM327.861 311.227C332.814 316.919 322.323 334.139 304.419 349.661C286.514 365.194 267.981 373.17 263.006 367.488C258.041 361.774 268.533 344.564 286.437 329.043C304.364 313.488 322.897 305.512 327.861 311.227ZM303.79 292.848C308.743 298.54 299.554 314.646 283.238 328.778C266.933 342.932 249.679 349.782 244.726 344.09C239.773 338.376 248.951 322.291 265.278 308.149C281.572 293.995 298.826 287.155 303.79 292.848ZM266.392 274.601C271.941 278.341 268.18 293.554 258.008 308.601C247.837 323.648 235.095 332.816 229.558 329.076C224.009 325.336 227.77 310.123 237.942 295.076C248.113 280.029 260.854 270.862 266.392 274.601ZM236.53 257.05C242.696 259.631 241.968 275.285 234.908 292.031C227.848 308.744 217.136 320.228 210.969 317.625C204.802 315.033 205.519 299.379 212.58 282.632C219.651 265.919 230.363 254.446 236.53 257.05ZM204.758 235.395C210.892 236.531 213.054 252.549 209.623 271.159C206.181 289.792 198.426 303.99 192.314 302.854C186.203 301.717 184.019 285.71 187.449 267.089C190.88 248.456 198.636 234.258 204.758 235.395ZM178.282 238.759C184.394 239.896 186.931 253.972 183.93 270.211C180.93 286.449 173.538 298.706 167.427 297.591C161.293 296.455 158.778 282.379 161.779 266.14C164.779 249.879 172.16 237.623 178.282 238.759ZM148.717 227.717C154.939 227.794 159.826 241.23 159.616 257.756C159.407 274.27 154.2 287.586 147.967 287.508C141.745 287.431 136.869 273.984 137.068 257.469C137.299 240.955 142.495 227.639 148.717 227.717ZM122.153 225.256C128.375 225.334 133.251 237.744 133.063 252.957C132.876 268.17 127.68 280.437 121.458 280.349C115.236 280.272 110.36 267.872 110.536 252.659C110.724 237.458 115.931 225.19 122.153 225.256ZM96.9564 224.848C103.068 224.926 107.9 236.233 107.723 250.089C107.558 263.945 102.45 275.12 96.3275 275.054C90.216 274.976 85.3841 263.669 85.5606 249.813C85.7481 235.957 90.8448 224.771 96.9564 224.848Z" fill="#6AAB1C"/>
<path d="M68.5827 225.654C74.5619 224.33 81.8539 234.225 84.8435 247.75C87.8441 261.264 85.4612 273.322 79.482 274.634C73.5029 275.958 66.2219 266.063 63.2213 252.549C60.2207 239.002 62.6256 226.966 68.5827 225.654ZM40.8269 233.299C45.4382 231.048 53.4141 237.833 58.599 248.456C63.7729 259.069 64.2472 269.505 59.6029 271.755C54.9806 274.006 47.0047 267.221 41.8308 256.598C36.6459 245.996 36.2046 235.56 40.8269 233.299Z" fill="#6AAB1C"/>
<path d="M321.882 453.944H321.429C315.947 453.69 311.721 449.079 311.964 443.607C312.913 422.029 310.993 312.208 179.253 270.586C174.035 268.953 171.133 263.371 172.788 258.164C174.443 252.968 180.003 250.034 185.232 251.711C330.784 297.702 332.836 420.363 331.766 444.479C331.545 449.796 327.144 453.944 321.882 453.944Z" fill="#85CA36"/>
<path d="M320.514 408.791C319.455 416.27 300.602 419.768 278.428 416.623C256.243 413.457 239.133 404.853 240.192 397.373C241.262 389.894 260.115 386.397 282.289 389.541C304.452 392.685 321.573 401.311 320.514 408.791ZM307.828 373.953C307.85 380.45 291.093 385.768 270.43 385.845C249.757 385.9 232.989 380.693 232.944 374.196C232.933 367.709 249.679 362.392 270.342 362.314C291.026 362.259 307.806 367.466 307.828 373.953ZM293.299 351.095C293.31 356.898 279.487 361.663 262.41 361.719C245.322 361.774 231.477 357.107 231.455 351.305C231.444 345.502 245.267 340.736 262.355 340.681C279.421 340.626 293.277 345.292 293.299 351.095ZM268.886 322.324C270.121 327.995 259.531 335.099 245.245 338.188C230.959 341.277 218.383 339.181 217.147 333.5C215.922 327.829 226.502 320.725 240.788 317.636C255.085 314.547 267.661 316.654 268.886 322.324ZM246.591 305.589C247.87 311.524 236.133 319.07 220.39 322.49C204.626 325.899 190.825 323.847 189.535 317.934C188.255 311.999 199.993 304.453 215.735 301.033C231.477 297.624 245.3 299.654 246.591 305.589ZM226.204 287.31C227.362 292.583 216.662 299.378 202.342 302.478C188.012 305.589 175.469 303.802 174.322 298.518C173.175 293.234 183.853 286.449 198.183 283.338C212.525 280.26 225.068 282.026 226.204 287.31ZM194.609 272.593C195.613 277.227 186.655 283.085 174.62 285.688C162.562 288.292 151.994 286.659 150.99 282.037C149.986 277.414 158.944 271.556 170.979 268.953C183.015 266.327 193.605 267.96 194.609 272.593ZM173.307 262.499C172.568 267.166 162.099 269.372 149.909 267.42C137.741 265.467 128.485 260.117 129.224 255.45C129.974 250.773 140.443 248.566 152.634 250.519C164.79 252.472 174.057 257.822 173.307 262.499Z" fill="#AFE090"/>
<path d="M179.231 259.002C175.513 261.915 166.301 256.454 158.69 246.779C151.067 237.105 147.912 226.9 151.618 223.977C155.347 221.053 164.558 226.525 172.17 236.2C179.793 245.853 182.959 256.057 179.231 259.002ZM409.109 408.581C411.36 415.785 394.834 427.368 372.197 434.44C349.56 441.511 329.361 441.39 327.111 434.197C324.86 426.982 341.386 415.41 364.023 408.35C386.66 401.278 406.859 401.389 409.109 408.581ZM396.191 383.308C398.453 390.512 383.56 401.576 362.942 408.008C342.312 414.45 323.779 413.833 321.507 406.618C319.234 399.403 334.138 388.349 354.756 381.896C375.386 375.486 393.919 376.093 396.191 383.308ZM375.739 348.106C379.313 353.743 369.781 366.187 354.425 375.906C339.069 385.613 323.724 388.923 320.139 383.297C316.564 377.66 326.107 365.194 341.474 355.486C356.808 345.778 372.164 342.468 375.739 348.106ZM358.948 320.074C363.56 324.906 356.61 338.971 343.438 351.47C330.266 363.969 315.836 370.202 311.214 365.348C306.614 360.505 313.564 346.451 326.736 333.952C339.93 321.453 354.348 315.22 358.948 320.074ZM338.529 287.53C343.691 291.005 339.257 306.549 328.622 322.247C317.999 337.945 305.202 347.841 300.039 344.366C294.876 340.891 299.311 325.336 309.956 309.638C320.569 293.94 333.377 284.044 338.529 287.53ZM312.935 280.018C318.098 283.493 314.755 297.404 305.5 311.094C296.244 324.785 284.539 333.058 279.377 329.561C274.214 326.086 277.556 312.175 286.812 298.485C296.068 284.817 307.772 276.532 312.935 280.018ZM290.276 258.065C295.946 260.635 295.008 274.899 288.191 289.946C281.373 304.994 271.235 315.132 265.576 312.561C259.906 309.991 260.843 295.727 267.661 280.68C274.478 265.633 284.617 255.516 290.276 258.065ZM266.911 245.202C272.581 247.761 272.096 261.076 265.819 274.932C259.53 288.788 249.845 297.966 244.163 295.396C238.504 292.826 238.989 279.51 245.266 265.655C251.566 251.799 261.251 242.653 266.911 245.202ZM243.998 234.766C249.569 237.27 249.459 249.57 243.733 262.202C238.019 274.822 228.851 283.03 223.28 280.492C217.709 277.988 217.82 265.71 223.545 253.067C229.259 240.436 238.427 232.24 243.998 234.766Z" fill="#9ADB6F"/>
<path d="M217.687 224.12C223.689 225.3 226.391 237.27 223.722 250.883C221.063 264.485 214.025 274.568 208.024 273.388C202.022 272.218 199.32 260.249 201.989 246.625C204.648 233.012 211.686 222.951 217.687 224.12ZM189.181 220.038C194.322 219.807 198.889 229.217 199.397 241.032C199.882 252.847 196.12 262.565 190.957 262.786C185.817 262.996 181.25 253.608 180.742 241.793C180.257 230 184.019 220.259 189.181 220.038ZM354.613 449.167L353.83 449.145C348.369 448.726 344.276 443.96 344.684 438.51C348.821 383.87 397.427 293.818 510.204 284.717C515.555 284.331 520.453 288.347 520.883 293.796C521.324 299.246 517.264 304.001 511.782 304.453C399.236 313.51 366.913 407.732 364.464 440.022C364.078 445.207 359.754 449.167 354.613 449.167Z" fill="#9ADB6F"/>
<path d="M350.046 418.333C349.902 425.879 367.917 432.388 390.312 432.862C412.706 433.325 430.997 427.589 431.151 420.043C431.294 412.497 413.28 406 390.863 405.514C368.491 405.029 350.211 410.776 350.046 418.333ZM368.226 385.988C367.156 392.387 382.821 400.351 403.219 403.749C423.605 407.158 441.024 404.731 442.083 398.322C443.165 391.923 427.5 383.958 407.091 380.561C386.715 377.152 369.307 379.59 368.226 385.988ZM386.285 365.789C385.314 371.515 398.188 378.454 415.056 381.267C431.89 384.069 446.331 381.708 447.279 375.982C448.239 370.257 435.365 363.318 418.52 360.505C401.674 357.703 387.234 360.064 386.285 365.789ZM415.012 341.332C412.871 346.748 422.171 355.463 435.773 360.825C449.375 366.186 462.117 366.142 464.257 360.737C466.397 355.32 457.098 346.594 443.507 341.244C429.915 335.882 417.152 335.937 415.012 341.332ZM436.799 324.321C434.56 329.947 444.919 339.324 459.911 345.226C474.914 351.117 488.891 351.36 491.108 345.7C493.337 340.074 482.978 330.708 467.986 324.795C453.005 318.882 439.028 318.662 436.799 324.321Z" fill="#9ADB6F"/>
<path d="M462.823 313.675C460.826 318.695 470.28 327.145 483.916 332.495C497.551 337.879 510.215 338.155 512.201 333.135C514.187 328.105 504.744 319.688 491.108 314.304C477.462 308.932 464.798 308.656 462.823 313.675ZM496.393 304.265C494.661 308.678 502.548 315.893 513.999 320.405C525.461 324.928 536.173 325.027 537.905 320.614C539.637 316.202 531.76 308.987 520.298 304.475C508.847 299.952 498.125 299.864 496.393 304.265Z" fill="#9ADB6F"/>
<path d="M519.052 297.735C519.029 302.467 529.024 306.35 541.336 306.383C553.647 306.428 563.675 302.633 563.675 297.911C563.697 293.178 553.702 289.317 541.391 289.262C529.079 289.218 519.074 293.013 519.052 297.735Z" fill="#AFE090"/>
<path d="M513.778 293.333C516.989 296.83 526.95 292.903 536.029 284.585C545.12 276.278 549.885 266.713 546.686 263.216C543.476 259.719 533.514 263.647 524.435 271.965C515.345 280.271 510.579 289.836 513.778 293.333ZM285.411 383.892C282.024 390.644 294.92 403.959 314.215 413.645C333.52 423.331 351.932 425.714 355.319 418.962C358.706 412.211 345.821 398.895 326.515 389.21C307.21 379.513 288.809 377.141 285.411 383.892Z" fill="#AFE090"/>
<path d="M311.291 356.567C306.845 361.553 314.259 375.365 327.817 387.445C341.386 399.513 356.014 405.261 360.46 400.275C364.916 395.288 357.503 381.454 343.934 369.386C330.376 357.306 315.748 351.581 311.291 356.567ZM326.515 324.553C321.187 328.591 325.754 343.583 336.741 358.056C347.718 372.519 360.945 380.991 366.273 376.954C371.602 372.916 367.023 357.924 356.047 343.45C345.048 328.988 331.843 320.526 326.515 324.553ZM351.943 295.749C346.306 298.353 348.148 314.404 356.102 331.602C364.034 348.812 375.065 360.66 380.714 358.056C386.362 355.453 384.52 339.402 376.555 322.192C368.623 304.994 357.591 293.146 351.943 295.749ZM378.419 292.473C372.782 295.076 373.797 309.34 380.736 324.354C387.664 339.357 397.857 349.407 403.505 346.804C409.142 344.2 408.117 329.936 401.189 314.944C394.283 299.93 384.089 289.869 378.419 292.473ZM404.344 274.469C398.32 276.091 396.919 290.322 401.222 306.273C405.513 322.236 413.864 333.853 419.876 332.242C425.9 330.62 427.29 316.389 422.987 300.438C418.707 284.497 410.334 272.869 404.344 274.469ZM429.474 265.566C423.451 267.177 421.796 280.382 425.745 295.076C429.695 309.77 437.781 320.372 443.782 318.772C449.794 317.151 451.46 303.946 447.511 289.262C443.572 274.546 435.486 263.945 429.474 265.566ZM453.788 258.936C447.875 260.525 445.999 272.671 449.596 286.041C453.192 299.412 460.903 308.987 466.805 307.41C472.718 305.832 474.594 293.686 470.997 280.316C467.401 266.934 459.69 257.359 453.788 258.936Z" fill="#AFE090"/>
<path d="M481.478 252.714C475.366 252.902 470.744 264.275 471.174 278.131C471.593 291.987 476.911 303.063 483.022 302.875C489.134 302.688 493.756 291.303 493.304 277.447C492.852 263.591 487.578 252.527 481.478 252.714ZM510.282 253.288C505.229 252.251 499.206 260.778 496.801 272.351C494.407 283.923 496.547 294.149 501.6 295.186C506.641 296.234 512.665 287.696 515.069 276.123C517.463 264.562 515.323 254.325 510.282 253.288Z" fill="#AFE090"/>
<path d="M313.553 417.385C192.458 417.385 94.2976 394.77 94.2976 366.87V441.842C94.2976 480.883 193.66 512.511 313.553 512.511C433.457 512.511 532.797 480.861 532.797 441.842V366.87C532.797 394.781 434.637 417.385 313.553 417.385Z" fill="#E69055"/>
<defs>
<radialGradient id="paint0_radial_172_113" cx="0" cy="0" r="1" gradientUnits="userSpaceOnUse" gradientTransform="translate(56.5178 321.68) rotate(39.0626) scale(564.672 552.33)">
<stop stop-color="#FFFB7D"/>
<stop offset="1" stop-color="#91E35B"/>
</radialGradient>
</defs>
</svg>
