<svg width="20" height="30" viewBox="0 0 20 30" fill="none" xmlns="http://www.w3.org/2000/svg">
<path d="M10 21.825C12.5679 19.725 14.5062 17.7062 15.8148 15.7687C17.1235 13.8313 17.7778 12.025 17.7778 10.35C17.7778 8.875 17.5123 7.625 16.9815 6.6C16.4506 5.575 15.7963 4.7375 15.0185 4.0875C14.2407 3.4375 13.3951 2.96875 12.4815 2.68125C11.5679 2.39375 10.7407 2.25 10 2.25C9.25926 2.25 8.4321 2.39375 7.51852 2.68125C6.60494 2.96875 5.75926 3.4375 4.98148 4.0875C4.2037 4.7375 3.54938 5.575 3.01852 6.6C2.48765 7.625 2.22222 8.875 2.22222 10.35C2.22222 12.025 2.87654 13.8313 4.18518 15.7687C5.49383 17.7062 7.4321 19.725 10 21.825ZM10 24.2625C9.82716 24.2625 9.66667 24.2438 9.51852 24.2063C9.37037 24.1688 9.23457 24.1 9.11111 24C6.02469 21.575 3.73457 19.2437 2.24074 17.0062C0.746913 14.7687 0 12.55 0 10.35C0 8.65 0.302469 7.15625 0.907408 5.86875C1.51235 4.58125 2.2963 3.5 3.25926 2.625C4.22222 1.75 5.2963 1.09375 6.48148 0.65625C7.66667 0.21875 8.83951 0 10 0C11.1605 0 12.3333 0.21875 13.5185 0.65625C14.7037 1.09375 15.7778 1.75 16.7407 2.625C17.7037 3.5 18.4877 4.58125 19.0926 5.86875C19.6975 7.15625 20 8.65 20 10.35C20 12.55 19.2531 14.7687 17.7593 17.0062C16.2654 19.2437 13.9753 21.575 10.8889 24C10.7654 24.1 10.6296 24.1688 10.4815 24.2063C10.3333 24.2438 10.1728 24.2625 10 24.2625ZM10 12.75C10.716 12.75 11.3272 12.4938 11.8333 11.9813C12.3395 11.4688 12.5926 10.85 12.5926 10.125C12.5926 9.4 12.3395 8.78125 11.8333 8.26875C11.3272 7.75625 10.716 7.5 10 7.5C9.28395 7.5 8.67284 7.75625 8.16667 8.26875C7.66049 8.78125 7.40741 9.4 7.40741 10.125C7.40741 10.85 7.66049 11.4688 8.16667 11.9813C8.67284 12.4938 9.28395 12.75 10 12.75ZM1.11111 30C0.790123 30 0.524691 29.8938 0.314815 29.6813C0.104938 29.4688 0 29.2 0 28.875C0 28.55 0.104938 28.2812 0.314815 28.0687C0.524691 27.8562 0.790123 27.75 1.11111 27.75H18.8889C19.2099 27.75 19.4753 27.8562 19.6852 28.0687C19.8951 28.2812 20 28.55 20 28.875C20 29.2 19.8951 29.4688 19.6852 29.6813C19.4753 29.8938 19.2099 30 18.8889 30H1.11111Z" fill="#E35B5B"/>
</svg>
