<svg width="400" height="400" viewBox="0 0 400 400" fill="none" xmlns="http://www.w3.org/2000/svg">
<path d="M200 400C89.4492 400 0 310.418 0 200C0 89.4492 89.5819 0 200 0C310.551 0 400 89.5819 400 200C400.133 310.551 310.551 400 200 400Z" fill="url(#paint0_radial_211_166)"/>
<mask id="mask0_211_166" style="mask-type:alpha" maskUnits="userSpaceOnUse" x="0" y="0" width="400" height="400">
<path d="M200 400C89.4492 400 0 310.418 0 200C0 89.4492 89.5819 0 200 0C310.551 0 400 89.5819 400 200C400.133 310.551 310.551 400 200 400Z" fill="#F7C0B5"/>
</mask>
<g mask="url(#mask0_211_166)">
<path d="M312 368.41C311.067 369.076 310 369.743 309.067 370.41C308 371.076 307.067 371.743 306 372.276C305.067 372.81 304.267 373.343 303.333 373.876C303.2 374.01 303.067 374.01 302.933 374.143C299.867 376.01 296.667 377.743 293.467 379.343C292.533 379.876 291.467 380.41 290.533 380.81C290.533 380.81 290.4 380.943 290.267 380.943C289.2 381.476 288.133 382.01 287.067 382.543C284.933 383.61 282.667 384.543 280.533 385.476C279.467 386.01 278.267 386.41 277.2 386.81C276.133 387.21 274.933 387.743 273.867 388.143C272.8 388.543 271.6 389.076 270.533 389.476C270.533 389.476 270.533 389.476 270.4 389.476C269.333 389.876 268.133 390.276 267.067 390.676C264.667 391.476 262.133 392.276 259.733 393.076C258.933 393.343 258 393.61 257.2 393.876C254.667 394.676 252.133 395.343 249.6 395.876C248.667 396.143 247.733 396.276 246.667 396.543C244.267 397.076 241.733 397.61 239.333 398.143C238.8 398.276 238.4 398.276 237.867 398.41C237.067 398.543 236.133 398.676 235.333 398.81C234.133 398.943 233.067 399.21 231.867 399.343C231.333 399.476 230.8 399.476 230.267 399.61C229.6 399.743 228.8 399.876 228 399.876C225.867 400.143 223.6 400.41 221.467 400.676C220.8 400.81 220 400.81 219.333 400.943H219.2C218.267 401.076 217.333 401.076 216.4 401.21C215.467 401.343 214.533 401.343 213.6 401.343C213.067 401.343 212.4 401.476 211.867 401.476C210.8 401.476 209.867 401.61 208.933 401.61C207.6 401.61 206.4 401.743 205.067 401.743C203.733 401.743 202.533 401.743 201.2 401.743C200.267 401.743 199.333 401.743 198.4 401.743C142.267 400.943 91.6001 377.076 55.6001 339.21C55.6001 339.21 55.6001 339.076 55.4668 339.076C59.6001 330.943 74.9335 316.276 90.9335 304.143C111.2 288.81 139.867 279.343 139.867 279.343C139.867 279.343 158.667 276.276 228.4 290.81C281.6 302.01 304.267 347.476 312 368.41Z" fill="#F7D3B5"/>
<path d="M243.2 327.743C240.4 341.476 222.266 349.61 191.733 337.343C154.266 322.143 139.866 279.343 139.866 279.343C137.866 248.676 133.2 222.41 133.2 222.41C176.533 218.676 227.733 269.343 227.733 269.343L233.6 294.41C234.133 296.543 235.2 298.41 236.8 299.743C239.6 304.543 245.066 318.943 243.2 327.743Z" fill="#F7D3B5"/>
<path d="M236.8 299.876C211.333 298.543 192.533 294.81 172.4 258.676C189.467 273.743 209.6 279.476 230.8 282.143L233.6 294.41C234.133 296.676 235.2 298.543 236.8 299.876Z" fill="#EFBDA5"/>
<path d="M289.467 139.21C291.867 150.41 293.067 159.476 286.533 189.343C280 219.21 292.533 249.076 261.067 276.41C239.867 294.81 202.8 298.276 173.2 278.143C163.2 271.343 154 261.876 146.533 249.476C140.667 239.743 133.867 230.543 126.267 222.143C115.733 210.676 103.067 187.61 109.333 146.81C119.467 80.4098 185.2 72.8098 224 80.1431C262.8 87.4764 282.933 109.61 289.467 139.21Z" fill="#F7D3B5"/>
<path d="M161.867 191.343C161.867 191.343 157.733 171.343 138.267 173.743C121.467 175.876 115.6 216.143 153.733 227.343" fill="#F7D3B5"/>
<path d="M152.533 209.076C152.533 209.076 147.733 206.01 148.267 200.676C149.067 194.41 148.267 190.543 145.333 189.343C138 186.276 136.533 194.81 136.8 195.876" stroke="#423232" stroke-width="4" stroke-miterlimit="10" stroke-linecap="round" stroke-linejoin="round"/>
<path d="M254.267 222.01C254.267 222.01 259.333 222.276 264.133 216.543C266.8 213.343 269.067 209.343 267.6 208.143C266.133 206.81 242 210.543 240.4 213.743C238.8 216.943 248.133 222.01 254.267 222.01Z" fill="#EFBDA5"/>
<path d="M258.266 177.21C258.266 177.21 258.533 189.876 266.666 204.01C270.266 210.276 264.8 220.543 252.933 222.276" stroke="#423232" stroke-width="4" stroke-miterlimit="10" stroke-linecap="round" stroke-linejoin="round"/>
<path d="M358.933 451.625L21.2 444.158C17.7333 359.091 52.6666 314.158 66.4 305.358C92.1333 288.691 125.6 283.758 141.333 282.291C145.333 292.158 160.533 324.558 192.133 337.358C222.667 349.758 240.8 341.491 243.6 327.758C245.333 318.958 239.867 304.558 237.067 299.891C235.467 298.558 234.4 296.558 233.867 294.558L232.8 290.158C235.067 289.625 237.333 289.091 239.6 288.291C295.467 294.558 318.133 309.758 331.467 335.758C345.2 362.558 358.933 451.625 358.933 451.625Z" fill="#474E51"/>
<path d="M80.4003 451.091C80.4003 451.091 78.6669 407.891 76.9336 399.891" stroke="#544D4D" stroke-width="13" stroke-miterlimit="10" stroke-linecap="round" stroke-linejoin="round"/>
<path d="M316.667 451.091C316.667 451.091 312.667 424.291 312.667 419.625C312.667 415.091 316.133 400.158 316.667 387.091" stroke="#544D4D" stroke-width="13" stroke-miterlimit="10" stroke-linecap="round" stroke-linejoin="round"/>
<path d="M220.533 333.892C220.533 333.892 202.267 351.092 199.867 355.625C197.467 360.158 210.133 367.358 210.133 367.358C210.133 367.358 230.533 371.625 239.733 363.358C239.733 363.358 244.933 357.625 243.867 352.158C242.933 346.825 220.533 333.892 220.533 333.892Z" fill="#474E51"/>
<path d="M137.466 266.558L139.2 266.158C144.133 282.025 175.466 319.491 220.533 333.891L192.533 369.225C190.666 371.625 187.333 372.025 184.933 370.291C173.466 361.758 142.8 336.691 130.267 304.691C127.6 298.025 127.067 290.691 128.4 283.758L130.133 274.291C130.8 270.425 133.733 267.358 137.466 266.558Z" fill="white"/>
<path d="M257.867 357.091C257.067 361.491 251.867 363.225 248.533 360.158L220.4 333.891C220.4 333.891 236.8 318.291 232.8 290.025C238.267 288.825 243.467 287.091 248.267 284.825C248.4 285.091 250.267 288.691 252.4 294.691C256.933 307.091 262.667 329.891 257.867 357.091Z" fill="white"/>
<path d="M210.971 191.438C207.771 191.305 205.371 188.638 205.637 185.438L205.771 181.705C205.904 178.505 208.571 176.105 211.771 176.371C214.971 176.505 217.371 179.171 217.104 182.371L216.971 186.105C216.837 189.171 214.171 191.571 210.971 191.438Z" fill="#423232"/>
<path d="M267.104 193.438C264.171 193.305 261.904 190.771 262.037 187.838L262.171 184.371C262.304 181.438 264.837 179.171 267.771 179.305C270.704 179.438 272.971 181.971 272.837 184.905L272.704 188.371C272.571 191.305 270.037 193.571 267.104 193.438Z" fill="#423232"/>
<path d="M223.904 183.705C223.904 183.705 220.437 178.771 214.437 177.838C209.504 177.038 204.037 179.438 203.237 182.238" stroke="#423232" stroke-width="4" stroke-miterlimit="10" stroke-linecap="round" stroke-linejoin="round"/>
<path d="M263.237 184.904C263.237 184.904 263.237 180.638 269.371 180.638C274.437 180.638 276.571 185.304 276.571 185.304" stroke="#423232" stroke-width="4" stroke-miterlimit="10" stroke-linecap="round" stroke-linejoin="round"/>
<path d="M231.504 160.505C234.437 160.238 235.904 156.771 234.304 154.105C233.37 152.771 232.17 151.571 230.437 150.905C225.37 149.305 208.837 152.905 201.637 161.171C195.237 168.771 218.17 161.705 231.504 160.505Z" fill="#423232"/>
<path d="M266.704 162.638C264.437 161.971 263.771 158.638 265.637 156.505C266.571 155.438 267.904 154.505 269.371 154.238C273.904 153.438 284.304 157.571 287.237 165.438C289.904 172.238 277.504 165.305 266.704 162.638Z" fill="#423232"/>
<path d="M164.615 113.718C164.615 113.718 121.607 57.4256 83.8082 98.2122C46.0091 138.999 87.2809 245.516 64.3076 277.538C64.3076 277.538 73.8461 277.538 93.692 261.246C93.692 261.246 121.607 234.167 121.607 201.696C121.607 169.224 149.522 122.032 164.615 113.718Z" fill="#423232"/>
<path d="M288.401 176.745C292.001 156.478 290.934 148.478 288.801 139.012C288.134 136.078 287.334 133.278 286.401 130.478C279.334 124.878 271.867 121.278 260.534 119.678C230.001 115.545 205.867 118.345 180.134 123.945C164.001 127.412 167.334 183.145 161.067 190.478C160.001 186.745 154.801 171.545 137.734 173.678C121.601 175.678 115.467 213.012 148.801 225.812C148.534 233.145 141.734 246.745 136.267 249.812C136.267 249.812 135.334 240.078 124.667 227.278C114.001 214.478 92.6673 181.278 107.067 132.745C121.467 84.2118 186.667 58.8784 247.334 83.5451C257.734 87.8118 266.267 93.8118 273.067 100.078C289.067 114.745 297.601 136.078 295.067 157.545C294.401 164.745 292.401 171.678 288.401 176.745Z" fill="#423232"/>
<path d="M253.167 101.723C253.167 101.723 213.834 161.99 140.5 143.323C140.5 143.323 126.234 107.456 157.3 93.7231C188.5 80.1231 245.7 89.7231 253.167 101.723Z" fill="#423232"/>
<path d="M230.533 205.867H199.466C191.333 205.867 184.8 199.333 184.8 191.2V178.533C184.8 170.4 191.333 163.867 199.466 163.867H230.533C238.666 163.867 245.2 170.4 245.2 178.533V191.2C245.2 199.333 238.533 205.867 230.533 205.867Z" stroke="#423232" stroke-width="4" stroke-miterlimit="10" stroke-linecap="round" stroke-linejoin="round"/>
<path d="M284.133 163.867H268.8C263.466 163.867 259.066 168.267 259.066 173.6V185.2C260.933 191.867 263.6 198.267 267.6 204C268 204 268.4 204.133 268.8 204.133H284.133C289.466 204.133 293.866 199.733 293.866 194.4V173.6C294 168.133 289.6 163.867 284.133 163.867Z" stroke="#423232" stroke-width="4" stroke-miterlimit="10" stroke-linecap="round" stroke-linejoin="round"/>
<path d="M245.2 176C249.733 175.467 255.466 175.067 260.266 175.6" stroke="#423232" stroke-width="4" stroke-miterlimit="10" stroke-linecap="round" stroke-linejoin="round"/>
<path d="M184.8 176.933L153.866 178" stroke="#423232" stroke-width="4" stroke-miterlimit="10" stroke-linecap="round" stroke-linejoin="round"/>
<path d="M244 237.395C236.771 241.586 223.961 237.025 218 230" stroke="#423232" stroke-width="4" stroke-miterlimit="10" stroke-linecap="round" stroke-linejoin="round"/>
</g>
<defs>
<radialGradient id="paint0_radial_211_166" cx="0" cy="0" r="1" gradientUnits="userSpaceOnUse" gradientTransform="translate(264.769 31.8461) rotate(99.9779) scale(373.808 373.808)">
<stop stop-color="#91E35B"/>
<stop offset="1" stop-color="#FFFB7D"/>
</radialGradient>
</defs>
</svg>
